<svg id="card1" data-name="card1" xmlns="http://www.w3.org/2000/svg" viewBox="0 0 141.73 56.69"><path d="M142 14.13S113.46-12 70.56 6.81c0 0-22.64 15.88-70.56-2.9v26.94s16 5.66 74.58-3.93c16.84-2.76 34.83.18 47.24 7.89A55.33 55.33 0 01142 57z" fill="#3600bc" opacity=".3"/><path class="cls-2" d="M33.3 53.92l4.74-4.31 3.94 3.58 4.22-3.58 3.63 3.55 4.29-3.55 4.33 4.35-1.76 1.76-2.73-2.74-4.26 3.54-3.62-3.55-4.16 3.52-3.88-3.52-3.07 2.79-1.67-1.84zm0-8.24l4.74-4.31 3.94 3.58 4.22-3.58 3.63 3.56 4.29-3.56 4.33 4.36-1.76 1.75-2.73-2.74-4.26 3.54-3.62-3.54-4.16 3.52-3.88-3.52-3.07 2.78-1.67-1.84zm0-8.23l4.74-4.31 3.94 3.57 4.22-3.57 3.63 3.55 4.29-3.56 4.33 4.36-1.76 1.76-2.73-2.75-4.26 3.54-3.62-3.54-4.16 3.52-3.88-3.52-3.07 2.79-1.67-1.84z"/><path class="cls-3" d="M94.28 16.46v-1.98h1.98v-2.82h-1.98V9.68h-2.82v1.98h-1.98v2.82h1.98v1.98h2.82zm-9.34 0v-1.98h1.97v-2.82h-1.97V9.68h-2.82v1.98h-1.98v2.82h1.98v1.98h2.82zm-9.35 0v-1.98h1.98v-2.82h-1.98V9.68h-2.82v1.98h-1.98v2.82h1.98v1.98h2.82zm66.73 5.81a23.15 23.15 0 01-16.5-6.85A23.28 23.28 0 01119-1.13h7.5a15.77 15.77 0 004.64 11.22 15.72 15.72 0 0011.2 4.66z"/><path class="cls-4" d="M142.32 31.68c-7.86 0-17.87-5.07-23.43-10.63s-8-14.32-8-22.18h11.47A19.89 19.89 0 00128.19 13a19.87 19.87 0 0014.13 5.85z"/><circle cx="22.88" cy="14.37" r="10.68" opacity=".5" fill="#fff"/><circle class="cls-4" cx="24.81" cy="16.11" r="10.68"/><path class="cls-3" d="M18.87 27.56c1.24-.85 1.56-2.9 1.87-4.24.52-2.3.83-4.8 2-6.92s3.12-3.3 5.06-4.37c2.51-1.39 7.42-2.83 8.18-6C37 1.43 31 .57 28.15-.47h-2.28C28.34.44 38 2.68 34.67 7a12.43 12.43 0 01-4.22 2.88 45.93 45.93 0 00-5.13 2.86c-3.16 2.18-4.11 5.12-4.89 8.74-.33 1.54-.52 4.43-1.86 5.47-1.71 1.32-4.65-1.06-6-2A22.18 22.18 0 006.5 21.3a13.43 13.43 0 00-7.3-.63v.72a13.66 13.66 0 019.16 1.4c2.22 1.14 4 3 6.19 4.21 1.2.66 3.03 1.45 4.32.56z"/><path class="cls-3" d="M25.11 35.5c1.6-1.07 2-3.71 2.41-5.42.68-3 1.07-6.15 2.45-8.89s3.8-4.31 6.27-5.72 4.9-2.44 7.23-3.87c1.52-.93 3.22-2.13 3.8-3.92C48.72 3.19 43 1 38.56-.47h-2.23c4.46 1.39 12.94 4 9.84 8.83-1.17 1.85-3.49 2.94-5.37 3.93a74 74 0 00-6.67 3.64 13.62 13.62 0 00-4.59 4.56A27.07 27.07 0 0027.26 28c-.43 2-.69 5.14-2.22 6.66-2 2-5.85-.91-7.54-2.11-2.52-1.79-4.81-3.73-7.75-4.8a18 18 0 00-10.55-1v.74a17.59 17.59 0 0112.46 1.81c2.64 1.43 4.83 3.56 7.4 5.11 1.6.96 4.23 2.3 6.05 1.09zm72.18 4.89v.12a11.68 11.68 0 0023.36 0v-.12zm9.46-1.39v-.12a11.68 11.68 0 10-23.36 0V39z"/><path class="cls-2" d="M100.11 40.39v.12a11.68 11.68 0 1023.36 0v-.12zm9.46-1.39v-.12a11.68 11.68 0 10-23.36 0V39z"/></svg>