<svg id="card2" data-name="card2" xmlns="http://www.w3.org/2000/svg" viewBox="0 0 141.73 56.69"><ellipse cx="49.18" cy="49.1" rx="3.35" ry="3.25" fill="#8100bc" opacity=".3"/><ellipse class="cls-2" cx="48.58" cy="49.99" rx="3.35" ry="3.25"/><path d="M142-.13h-.15a14.51 14.51 0 00-14.72 14.3 14.51 14.51 0 0014.72 14.31h.15z" fill="#950eca"/><path class="cls-2" d="M134.51 21.34A10.57 10.57 0 01127 24a10.27 10.27 0 01-10-10.5 10.33 10.33 0 0110.83-9.73 10.28 10.28 0 0110 10.53 10 10 0 01-3.32 7.04zM122.62 8.82a6.83 6.83 0 00-2.29 4.81 7.12 7.12 0 0014.22.54A7 7 0 00127.72 7a7.17 7.17 0 00-5.1 1.82z"/><path class="cls-4" d="M132.64 21.36a10.52 10.52 0 01-7.48 2.64 10.26 10.26 0 01-10-10.52 10.43 10.43 0 0120.83.8 9.94 9.94 0 01-3.35 7.08zM120.75 8.84a6.81 6.81 0 00-2.28 4.8 7.11 7.11 0 0014.21.55A7 7 0 00125.86 7a7.21 7.21 0 00-5.11 1.84zm-115.43 13l4.7 4.31-5.66 5.18 5.66 5.56-5.7 4.84 5.7 5.71-4.66 3.86 1.81 2.65 7.56-6.27-5.72-5.74 5.72-4.86-5.76-5.66 5.76-5.27-7.49-6.86-1.92 2.55zM38.8 11.38a8.71 8.71 0 01-2.67 6.27 9.3 9.3 0 01-12.88 0 8.69 8.69 0 010-12.53 9.3 9.3 0 0112.88 0 8.71 8.71 0 012.67 6.26zm-17.56 0a8 8 0 002.48 5.81 8.6 8.6 0 0011.94 0 8 8 0 000-11.61 8.6 8.6 0 00-11.94 0 8 8 0 00-2.48 5.8z"/><path class="cls-4" d="M31.77 11.38a8.71 8.71 0 01-2.67 6.27 9.3 9.3 0 01-12.88 0 8.69 8.69 0 010-12.53 9.3 9.3 0 0112.88 0 8.71 8.71 0 012.67 6.26zm-17.56 0a8 8 0 002.48 5.81 8.6 8.6 0 0011.94 0 8 8 0 000-11.61 8.6 8.6 0 00-11.94 0 8 8 0 00-2.48 5.8z"/><path class="cls-2" d="M87.27 30.38A5.27 5.27 0 0190 35.23c0 2-1.06 3.75-2.11 5.4a12 12 0 01-4.2 4.37c-2 1-4.79.91-7 .54-4.49-.77-8.63-3.06-12.32-5.57-4.1-2.8-8.07-5.86-9.1-10.89-.47-2.27-.13-4.4-.21-6.67a19.82 19.82 0 00-.92-4.28c-.38-1.42-1.15-3.52-.36-4.93.93-1.67 3.11-.57 4.35.07 2.66 1.39 5.37 3.37 8.54 2.54 1.75-.46 3.31-1.38 5-1.89.89-.27 1.7-.4 2.21.52a5.7 5.7 0 01.44 2.71 21.92 21.92 0 00.21 5.37A9.29 9.29 0 0077.69 28a6.92 6.92 0 003.67 1.18 20.92 20.92 0 015.91 1.25c.31.13.59-.32.27-.46a20 20 0 00-5.25-1.21c-1.82-.24-3.45-.29-4.86-1.68a10.11 10.11 0 01-2.6-7.24c0-1.7.36-3.65-.3-5.28A1.94 1.94 0 0072 13.33c-1.89.44-3.56 1.52-5.44 2-2.32.6-4.37-.43-6.35-1.51-1.37-.75-2.87-1.81-4.48-2-3.37-.36-2.8 3.66-2.29 5.66.44 1.76 1.18 3.6 1.1 5.44a22.81 22.81 0 00.5 7.41c1.36 4.71 5.48 7.7 9.45 10.35s8.52 5.08 13.4 5.56c2.27.22 4.9.11 6.82-1.22a15.26 15.26 0 004.18-5c1.09-1.85 1.94-3.68 1.62-5.86a5.58 5.58 0 00-2.95-4.31c-.33-.08-.56.37-.29.53z"/><path class="cls-2" d="M96.92 29.13a7.89 7.89 0 014.38 7.19c0 3-1.57 5.63-3.19 8.1s-3.74 5.22-6.53 6.71-6.86 1.5-10.07 1.12c-7.2-.88-13.92-4.3-19.9-8.13-6.15-3.93-12.69-8.38-14.61-15.67-1-3.6-.63-7-.58-10.62A23.76 23.76 0 0045 11.19C44.37 9 43.23 6 44.28 3.77c1.17-2.47 4.19-1.5 6.12-.63 4.5 2 8.9 5.57 14.16 4.28 2.62-.65 5-1.92 7.57-2.74 1-.31 2.38-.79 3.3-.12 1.1.8 1.28 2.57 1.36 3.78.17 2.73-.44 5.53.12 8.23.7 3.41 2.22 7 5.25 9.07C84 26.9 86 27.06 88.1 27.29a32.24 32.24 0 018.82 1.84c.31.13.59-.32.27-.46a30 30 0 00-7.69-1.74c-2.31-.3-4.68-.24-6.72-1.52-3.34-2.08-5.29-6.51-5.52-10.29-.16-2.79.46-5.66-.14-8.43-.4-1.85-1.45-3.22-3.51-2.92-2.8.41-5.37 2-8 2.8-3.26 1-6.06.49-9.1-.93C54 4.46 51.62 2.85 49 2c-1.72-.55-3.73-.58-4.87 1-1.26 1.76-.65 4.32-.19 6.23.66 2.69 1.83 5.41 1.93 8.19.06 1.7-.24 3.41-.2 5.12a26.28 26.28 0 00.64 5.38c1.75 7.45 7.95 12 14.13 16S73.53 51.69 81 52.71c3.15.43 6.83.51 9.84-.66 2.78-1.09 4.9-3.44 6.6-5.75s3.68-5.07 4.21-7.92a9.46 9.46 0 00-1.58-7.4 7.68 7.68 0 00-2.89-2.31c-.3-.15-.58.33-.26.46zm-4.7-25.02h9V13h-9z"/><path stroke="#fff" stroke-miterlimit="10" fill="none" d="M90.75 5.56h9v8.89h-9z"/><path id="_Compound_Path_" data-name="&lt;Compound Path&gt;" class="cls-6" d="M106.36 52.56a.44.44 0 01-.44.44.44.44 0 01-.44-.44.45.45 0 01.44-.45.44.44 0 01.44.45zm4.57 0a.45.45 0 01-.45.44.44.44 0 01-.44-.44.45.45 0 01.44-.45.45.45 0 01.45.45zm4.56 0a.44.44 0 01-.44.44.45.45 0 01-.45-.44.45.45 0 01.45-.45.45.45 0 01.44.45zm4.56 0a.44.44 0 01-.44.44.44.44 0 01-.44-.44.45.45 0 01.44-.45.44.44 0 01.44.45zm4.57 0a.45.45 0 01-.45.44.44.44 0 01-.44-.44.45.45 0 01.44-.45.45.45 0 01.45.45zm4.56 0a.44.44 0 01-.44.44.45.45 0 01-.45-.44.45.45 0 01.45-.45.45.45 0 01.44.45zm4.57 0a.45.45 0 01-.45.44.44.44 0 01-.44-.44.45.45 0 01.44-.45.45.45 0 01.45.45zm4.56 0a.44.44 0 01-.44.44.45.45 0 01-.45-.44.45.45 0 01.45-.45.45.45 0 01.44.45z"/><path id="_Compound_Path_2" data-name="&lt;Compound Path&gt;" class="cls-6" d="M106.36 47.22a.45.45 0 01-.44.45.45.45 0 01-.44-.45.45.45 0 01.44-.45.44.44 0 01.44.45zm4.57 0a.45.45 0 01-.45.45.45.45 0 01-.44-.45.45.45 0 01.44-.45.45.45 0 01.45.45zm4.56 0a.45.45 0 01-.44.45.45.45 0 01-.45-.45.45.45 0 01.45-.45.45.45 0 01.44.45zm4.56 0a.45.45 0 01-.44.45.45.45 0 01-.44-.45.45.45 0 01.44-.45.44.44 0 01.44.45zm4.57 0a.45.45 0 01-.45.45.45.45 0 01-.44-.45.45.45 0 01.44-.45.45.45 0 01.45.45zm4.56 0a.45.45 0 01-.44.45.45.45 0 01-.45-.45.45.45 0 01.45-.45.45.45 0 01.44.45zm4.57 0a.45.45 0 01-.45.45.45.45 0 01-.44-.45.45.45 0 01.44-.45.45.45 0 01.45.45zm4.56 0a.45.45 0 01-.44.45.45.45 0 01-.45-.45.45.45 0 01.45-.45.45.45 0 01.44.45z"/><path id="_Compound_Path_3" data-name="&lt;Compound Path&gt;" class="cls-6" d="M106.36 41.88a.45.45 0 01-.44.45.45.45 0 01-.44-.45.45.45 0 01.44-.45.44.44 0 01.44.45zm4.57 0a.45.45 0 01-.45.45.45.45 0 01-.44-.45.45.45 0 01.44-.45.45.45 0 01.45.45zm4.56 0a.45.45 0 01-.44.45.45.45 0 01-.45-.45.45.45 0 01.45-.45.45.45 0 01.44.45zm4.56 0a.45.45 0 01-.44.45.45.45 0 01-.44-.45.45.45 0 01.44-.45.44.44 0 01.44.45zm4.57 0a.45.45 0 01-.45.45.45.45 0 01-.44-.45.45.45 0 01.44-.45.45.45 0 01.45.45zm4.56 0a.45.45 0 01-.44.45.45.45 0 01-.45-.45.45.45 0 01.45-.45.45.45 0 01.44.45zm4.57 0a.45.45 0 01-.45.45.45.45 0 01-.44-.45.45.45 0 01.44-.45.45.45 0 01.45.45zm4.56 0a.45.45 0 01-.44.45.45.45 0 01-.45-.45.45.45 0 01.45-.45.45.45 0 01.44.45z"/></svg>