<?xml version="1.0" standalone="no"?>
<!DOCTYPE svg PUBLIC "-//W3C//DTD SVG 20010904//EN"
 "http://www.w3.org/TR/2001/REC-SVG-20010904/DTD/svg10.dtd">
<svg version="1.0" xmlns="http://www.w3.org/2000/svg"
 width="654.000000pt" height="654.000000pt" viewBox="0 0 654.000000 654.000000"
 preserveAspectRatio="xMidYMid meet">
<metadata>
Created by potrace 1.11, written by Peter Selinger 2001-2013
</metadata>
<g transform="translate(0.000000,654.000000) scale(0.100000,-0.100000)"
fill="#000000" stroke="none">
<path d="M9 6102 c-4 -32 0 -5653 4 -5660 4 -5 1342 -9 3262 -9 2963 0 3255 2
3256 16 1 21 1 5457 0 5496 l-1 30 -1807 -2 c-995 -1 -1836 -2 -1870 -2 l-63
-1 -2 -630 -3 -630 -225 175 c-124 97 -238 186 -255 199 -269 211 -794 621
-1020 798 l-290 226 -492 0 c-271 0 -493 -3 -494 -6z"/>
</g>
</svg>
