<svg xmlns="http://www.w3.org/2000/svg" viewBox="0 0 750 500"><defs><clipPath id="a"><path fill="none" d="M0 0h750v500H0z"/></clipPath></defs><g clip-path="url(#a)"><path d="M480.431 416.369a25.984 25.984 0 01-16.166-33.001 25.984 25.984 0 0133.001-16.166 25.984 25.984 0 0116.166 33.001 25.984 25.984 0 01-33 16.166z" fill="#666bff"/><path d="M480.431 416.369a25.984 25.984 0 01-16.166-33.001 25.984 25.984 0 0133.001-16.166 25.984 25.984 0 0116.166 33.001 25.984 25.984 0 01-33 16.166z" opacity=".2"/><circle cx="653.442" cy="191.891" r="28.403" transform="rotate(-58.609 653.442 191.89)" fill="#666bff"/><circle cx="653.442" cy="191.891" r="28.403" transform="rotate(-58.609 653.442 191.89)" opacity=".2"/><circle cx="733.902" cy="478.749" r="38.412" fill="#666bff"/><circle cx="733.902" cy="478.749" r="38.412" fill="#fff" opacity=".6"/><circle cx="208.929" cy="177.496" r="38.412" transform="rotate(-76.617 208.929 177.496)" fill="#666bff"/><circle cx="208.929" cy="177.496" r="38.412" transform="rotate(-76.617 208.929 177.496)" fill="#fff" opacity=".6"/><path fill="#666bff" d="M664.152 23.634l78.732-41.322 44.571 84.922-78.732 41.322z"/><path fill="#fff" opacity=".3" d="M664.152 23.634l78.732-41.322 44.571 84.922-78.732 41.322z"/><path fill="#666bff" d="M88.449 274.95l-27.061 84.699-91.359-29.19 27.062-84.698z"/><path fill="#fff" opacity=".3" d="M88.449 274.95l-27.061 84.699-91.359-29.19 27.062-84.698z"/><path fill="#666bff" d="M51.687 106.999L20.98 160.072l-30.61-53.129 61.317.056z"/><path opacity=".3" d="M51.687 106.999L20.98 160.072l-30.61-53.129 61.317.056z"/><path fill="none" stroke="#fff" stroke-miterlimit="10" d="M51.311 120.451l-30.707 53.073-30.609-53.129 61.316.056z"/><path fill="#666bff" d="M126.501 436.912l-38.3-43.548 56.865-11.395-7.85 23.231-10.715 31.712z"/><path d="M90.246 403.567a12.713 12.713 0 10-16.708-6.642 12.728 12.728 0 0016.708 6.642zm-1.927-4.47a7.847 7.847 0 114.099-10.311 7.856 7.856 0 01-4.1 10.312z" fill="#eee"/><path fill="#666bff" d="M124.943 91.182l25.887 45.306-52.18-.234 11.117-19.057 15.176-26.015z"/><path d="M150.872 127.126a11.439 11.439 0 1013.526 8.873 11.452 11.452 0 00-13.526-8.873zm.89 4.287a7.06 7.06 0 11-5.476 8.348 7.068 7.068 0 015.477-8.348z" fill="#eee"/><path d="M255.31 3.307a27.05 27.05 0 0134.354-16.829 27.05 27.05 0 0116.829 34.355 27.05 27.05 0 01-34.355 16.829A27.05 27.05 0 01255.31 3.307z" fill="#666bff"/><path d="M255.31 3.307a27.05 27.05 0 0134.354-16.829 27.05 27.05 0 0116.829 34.355 27.05 27.05 0 01-34.355 16.829A27.05 27.05 0 01255.31 3.307z" opacity=".2"/><circle cx="18.409" cy="25.152" r="41.294" transform="rotate(-55.206 18.409 25.152)" fill="#666bff"/><circle cx="18.409" cy="25.152" r="41.294" transform="rotate(-55.206 18.409 25.152)" fill="#fff" opacity=".6"/><path d="M349.892 395.867a8.811 8.811 0 118.81 8.811 8.811 8.811 0 01-8.81-8.811z" fill="#666bff"/><circle cx="375.735" cy="89.91" r="8.811" transform="rotate(-7.033 375.736 89.91)" fill="#666bff"/><circle cx="703.723" cy="255.288" r="8.811" fill="#666bff"/><circle cx="343.566" cy="482.721" r="8.811" fill="#666bff"/><path fill="#666bff" d="M245.577 95.463l-53.533-29.897 52.659-31.413.874 61.31zm521.644 242.716l-29.897 53.534-31.413-52.659 61.31-.875zM514.788 506.202l-60.059 12.353 19.331-58.19 40.728 45.837zm86.242-28.612a2.852 2.852 0 105.332 1.356q-.26-.834-.561-1.655a2.85 2.85 0 00-4.772.3zm-8.47-1.501a2.851 2.851 0 102.802-4.968 2.851 2.851 0 00-2.801 4.968zm-9.55-5.386a2.851 2.851 0 10-1.084-3.885 2.851 2.851 0 001.083 3.885zm-9.553-5.386a2.851 2.851 0 10-1.083-3.885 2.851 2.851 0 001.083 3.885zm-9.552-5.387a2.851 2.851 0 101.672-5.32q-.858.167-1.706.376a2.847 2.847 0 00.034 4.945zm38.236 10.332c.08.045.162.085.245.122q-.792-1.241-1.688-2.42a2.848 2.848 0 001.443 2.298zm-10.635-9.271a2.852 2.852 0 001.084 3.884 2.851 2.851 0 003.884-1.083 2.906 2.906 0 00.15-.311 35.54 35.54 0 00-4.293-3.405 2.837 2.837 0 00-.825.915zm-9.551-5.386a2.851 2.851 0 004.967 2.801 2.836 2.836 0 00.357-1.179 35.566 35.566 0 00-5.135-1.911 2.882 2.882 0 00-.19.289zm-5.755-1.455q-1.473-.16-2.945-.193c.074.052.151.1.231.146a2.847 2.847 0 002.713.046zm-9.018 44.62a2.851 2.851 0 101.084 3.884 2.852 2.852 0 00-1.084-3.884zm-9.552-5.386a2.852 2.852 0 101.084 3.884 2.852 2.852 0 00-1.083-3.884zm-9.551-5.387a2.851 2.851 0 101.083 3.885 2.852 2.852 0 00-1.083-3.885zm-8.469-1.501a2.849 2.849 0 00-2.111-4.227 35.359 35.359 0 00-.71 5.658 2.852 2.852 0 002.821-1.431zm43.903 16.8a2.851 2.851 0 10-1.083-3.884 2.851 2.851 0 001.083 3.884zm-9.551-5.386a2.851 2.851 0 002.801-4.968 2.851 2.851 0 10-2.801 4.968zm-9.552-5.386a2.851 2.851 0 10-1.083-3.884 2.851 2.851 0 001.083 3.884zm-6.75-10.354a2.851 2.851 0 101.083 3.884 2.852 2.852 0 00-1.084-3.884zm-9.552-5.386a2.851 2.851 0 101.083 3.884 2.851 2.851 0 00-1.083-3.884zm-.058 22.427a2.851 2.851 0 101.083 3.884 2.851 2.851 0 00-1.083-3.884zm-9.552-5.386a2.837 2.837 0 00-1.53-.362 35.799 35.799 0 001.055 5.54 2.848 2.848 0 00.475-5.178zm63.064 5.145a2.85 2.85 0 003.845 3.904 35.393 35.393 0 001.25-3.643 2.848 2.848 0 00-5.095-.26zm-8.468-1.501a2.852 2.852 0 10-1.083-3.885 2.852 2.852 0 001.083 3.885zm-9.552-5.386a2.852 2.852 0 002.801-4.968 2.852 2.852 0 00-2.8 4.968zm-9.552-5.386a2.852 2.852 0 10-1.083-3.885 2.852 2.852 0 001.083 3.885zm-9.551-5.387a2.852 2.852 0 10-1.084-3.884 2.852 2.852 0 001.084 3.884zm-9.552-5.386a2.852 2.852 0 10-1.083-3.884 2.851 2.851 0 001.083 3.884zm-9.552-5.386a2.852 2.852 0 101.025-5.307 35.493 35.493 0 00-2.47 2.954 2.846 2.846 0 001.445 2.353zm57.339 21.103a2.851 2.851 0 10-1.083-3.884 2.851 2.851 0 001.083 3.884zm-9.551-5.386a2.851 2.851 0 10-1.084-3.884 2.851 2.851 0 001.084 3.884zm-9.552-5.385a2.851 2.851 0 002.801-4.969 2.851 2.851 0 10-2.801 4.968zm-9.551-5.387a2.851 2.851 0 10-1.084-3.885 2.851 2.851 0 001.083 3.885zm-9.553-5.386a2.851 2.851 0 10-1.083-3.885 2.851 2.851 0 001.083 3.885zm-9.551-5.387a2.851 2.851 0 10-1.084-3.884 2.852 2.852 0 001.084 3.885zm-39.039-316.158l-24.799 33.38q.534.522 1.104 1.002l24.973-33.615c-.417-.27-.842-.527-1.278-.767zm-7.463-2.436l-21.822 29.374c.227.511.47 1.013.736 1.5l22.734-30.602a20.745 20.745 0 00-1.648-.272zm3.965.904l-23.777 32.005c.298.422.608.834.934 1.231l24.291-32.697a21.01 21.01 0 00-1.448-.539zm-8.539-.986l-18.647 25.1c.128.632.286 1.252.468 1.859l20.093-27.047c-.634 0-1.273.029-1.915.088zm-5.607 1.306l-13.408 18.05a20.901 20.901 0 00-.035 2.535l15.86-21.35a20.87 20.87 0 00-2.417.766zm-4.63 2.483a21.069 21.069 0 00-7.739 10.416zm33.064 15.404l-16.508 22.22a20.99 20.99 0 002.324-.639l14.243-19.172a20.987 20.987 0 00-.06-2.409zm-.997-4.9l-20.49 27.582q.93.024 1.876-.035l19.123-25.741q-.216-.922-.508-1.806zm.374 11.978l-9.288 12.503a21.006 21.006 0 005.56-4.996l.55-.74a21.003 21.003 0 003.178-6.767zm-4.384-19.058l-24.417 32.866c.467.208.94.402 1.422.575l23.956-32.246a20.972 20.972 0 00-.961-1.195zm-17.564 19.893l15.993-21.529c-.363-.34-.736-.667-1.122-.98l-25.006 33.66c.41.278.833.54 1.263.79l8.872-11.942m19.83-16.703l-22.975 30.926c.531.125 1.068.234 1.613.318l22.132-29.792c-.237-.497-.497-.98-.77-1.452zM571.894 16.06a50.67 50.67 0 10-50.67 50.67 50.728 50.728 0 0050.67-50.67zm-11.03 0a39.641 39.641 0 11-39.64-39.642 39.687 39.687 0 0139.64 39.642zM427.135 244.78a50.67 50.67 0 10-50.67 50.67 50.728 50.728 0 0050.67-50.67zm-11.03 0a39.641 39.641 0 11-39.64-39.642 39.687 39.687 0 0139.64 39.641z"/><circle cx="598.64" cy="397.1" r="25.145" fill="#666bff"/><path d="M554.438 218.494a12.82 12.82 0 01-7.975-16.28 12.82 12.82 0 0116.28-7.975 12.82 12.82 0 017.976 16.28 12.82 12.82 0 01-16.28 7.975zm-236.91-84.27l28.087 32.058q.638-.423 1.243-.89l-28.285-32.283q-.541.54-1.045 1.115zm-4.053 6.951l24.717 28.21a21.283 21.283 0 001.66-.414l-25.748-29.388a21.344 21.344 0 00-.629 1.592zm1.763-3.777l26.93 30.736c.486-.207.966-.428 1.435-.67l-27.512-31.4c-.301.432-.584.879-.853 1.334zm-2.833 8.343l21.12 24.105q.991.011 1.963-.068l-22.758-25.974q-.204.953-.325 1.937zm.098 5.899l15.187 17.333a21.444 21.444 0 002.533.582l-17.964-20.503a21.403 21.403 0 00.244 2.588zm1.487 5.175a21.595 21.595 0 008.764 10.004zm22.576-29.799l18.697 21.34a21.494 21.494 0 00-.138-2.466l-16.132-18.413a21.528 21.528 0 00-2.427-.461zm-5.124-.061l23.208 26.489q.225-.928.37-1.887l-21.66-24.72q-.97.016-1.918.118zm12.081 2.214l10.52 12.007a21.53 21.53 0 00-3.804-6.65l-.623-.712a21.532 21.532 0 00-6.093-4.645zm-20.042.275l27.655 31.564c.309-.423.605-.855.883-1.3l-27.132-30.968c-.479.217-.946.454-1.406.704zm-3.202 2.133l28.322 32.325c.368-.35.722-.717 1.065-1.094l-28.163-32.143c-.418.29-.828.593-1.224.912zm6.887-3.714l26.022 29.7c.24-.505.466-1.02.667-1.547l-25.068-28.611c-.549.13-1.088.286-1.621.458zm221.048-30.518l31.261-2.09c.026-.374.037-.748.036-1.122l-31.481 2.104c.048.37.109.74.184 1.108zm2.25 5.47l27.51-1.839c.181-.38.35-.764.5-1.154l-28.66 1.915c.2.367.42.725.65 1.078zm-1.419-2.715l29.973-2.004c.096-.377.182-.756.25-1.137l-30.621 2.046c.118.37.253.734.398 1.095zm3.608 5.378l23.506-1.57q.45-.575.837-1.177l-25.33 1.693q.466.544.987 1.054zm3.488 2.577l16.903-1.13a15.77 15.77 0 001.471-1.219l-19.994 1.337a15.748 15.748 0 001.62 1.012zm3.687 1.443a15.875 15.875 0 009.755-.652zm-7.323-26.49l20.81-1.39a15.81 15.81 0 00-1.502-1.02l-17.955 1.2a15.848 15.848 0 00-1.353 1.21zm-2.323 2.966l25.83-1.726q-.44-.546-.936-1.059L550.97 84.8q-.423.574-.787 1.174zm6.686-6.067l11.71-.783a15.828 15.828 0 00-5.583-.747l-.693.046a15.827 15.827 0 00-5.434 1.484zm-8.788 11.827l30.78-2.057a15.31 15.31 0 00-.364-1.097l-30.199 2.02c-.087.376-.157.755-.216 1.135zm-.184 2.822l31.523-2.106c-.04-.372-.096-.742-.163-1.11l-31.345 2.094c-.018.374-.024.749-.015 1.123zm.907-5.68l28.962-1.936a15.703 15.703 0 00-.605-1.08l-27.9 1.865c-.17.379-.32.763-.457 1.151zm-16.31 211.499l-40.602-40.602c-.547.416-1.077.854-1.592 1.307l40.887 40.887q.68-.773 1.307-1.591zm4.83-9.703l-35.728-35.73c-.744.209-1.478.44-2.196.704l37.22 37.222c.266-.718.496-1.452.704-2.196zm-2.033 5.233l-38.929-38.928c-.636.322-1.261.662-1.87 1.028l39.77 39.77a28.86 28.86 0 001.028-1.87zm3.067-11.466l-30.53-30.53c-.889.049-1.767.139-2.633.265l32.898 32.898q.19-1.299.265-2.633zm-.655-7.921l-21.953-21.954a28.897 28.897 0 00-3.457-.558l25.968 25.969a28.86 28.86 0 00-.558-3.457zm-2.458-6.826a29.092 29.092 0 00-12.67-12.67zm-27.705 42.062l-27.027-27.027a28.981 28.981 0 00.405 3.303l23.319 23.32a28.987 28.987 0 003.303.404zm6.894-.373l-33.548-33.549q-.221 1.267-.33 2.57l31.31 31.31q1.301-.109 2.568-.33zm-16.437-1.903l-15.207-15.208a29.002 29.002 0 005.704 8.603l.9.9a29.003 29.003 0 008.603 5.705zm26.917-2.148l-39.976-39.978a28.84 28.84 0 00-1.072 1.827l39.222 39.222a28.87 28.87 0 001.826-1.072zm4.117-3.152l-40.942-40.941a29.169 29.169 0 00-1.334 1.565l40.71 40.71c.537-.427 1.06-.87 1.565-1.334zm-8.93 5.604l-37.616-37.617a29.324 29.324 0 00-.76 2.14l36.237 36.237a28.703 28.703 0 002.14-.76zm-533.779 68.913l6.51-3.524 6.511 3.524 6.511-3.524 6.51 3.524 6.51-3.524 6.511 3.524 6.51-3.524 6.511 3.524 6.511-3.524 6.51 3.524m-65.105 7.146l6.51-3.524 6.511 3.524 6.511-3.524 6.51 3.524 6.51-3.524 6.511 3.524 6.51-3.524 6.511 3.524 6.511-3.524 6.51 3.524m-65.105 7.147l6.51-3.524 6.511 3.524 6.511-3.524 6.51 3.524 6.51-3.524 6.511 3.524 6.51-3.524 6.511 3.524 6.511-3.524 6.51 3.524m-65.105 7.147l6.51-3.524 6.511 3.524 6.511-3.524 6.51 3.524 6.51-3.524 6.511 3.524 6.51-3.524 6.511 3.524 6.511-3.524 6.51 3.524m-65.105 7.147l6.51-3.525 6.511 3.525 6.511-3.525 6.51 3.525 6.51-3.525 6.511 3.525 6.51-3.525 6.511 3.525 6.511-3.525 6.51 3.525m-65.105 7.146l6.51-3.524 6.511 3.524 6.511-3.524 6.51 3.524 6.51-3.524 6.511 3.524 6.51-3.524 6.511 3.524 6.511-3.524 6.51 3.524m-65.105 7.147l6.51-3.524 6.511 3.524 6.511-3.524 6.51 3.524 6.51-3.524 6.511 3.524 6.51-3.524 6.511 3.524 6.511-3.524 6.51 3.524m-65.105 7.147l6.51-3.525 6.511 3.525 6.511-3.525 6.51 3.525 6.51-3.525 6.511 3.525 6.51-3.525 6.511 3.525 6.511-3.525 6.51 3.525m-65.105 7.147l6.51-3.525 6.511 3.525 6.511-3.525 6.51 3.525 6.51-3.525 6.511 3.525 6.51-3.525 6.511 3.525 6.511-3.525 6.51 3.525m-65.105 7.146l6.51-3.524 6.511 3.524 6.511-3.524 6.51 3.524 6.51-3.524 6.511 3.524 6.51-3.524 6.511 3.524 6.511-3.524 6.51 3.524m-65.105 7.147l6.51-3.524 6.511 3.524 6.511-3.524 6.51 3.524 6.51-3.524 6.511 3.524 6.51-3.524 6.511 3.524 6.511-3.524 6.51 3.524m-65.105 7.147l6.51-3.525 6.511 3.525 6.511-3.525 6.51 3.525 6.51-3.525 6.511 3.525 6.51-3.525 6.511 3.525 6.511-3.525 6.51 3.525m-65.105 7.147l6.51-3.525 6.511 3.525 6.511-3.525 6.51 3.525 6.51-3.525 6.511 3.525 6.51-3.525 6.511 3.525 6.511-3.525 6.51 3.525m-65.105 7.146l6.51-3.524 6.511 3.524 6.511-3.524 6.51 3.524 6.51-3.524 6.511 3.524 6.51-3.524 6.511 3.524 6.511-3.524 6.51 3.524m-65.105 7.147l6.51-3.524 6.511 3.524 6.511-3.524 6.51 3.524 6.51-3.524 6.511 3.524 6.51-3.524 6.511 3.524 6.511-3.524 6.51 3.524m-65.105 7.147l6.51-3.524 6.511 3.524 6.511-3.524 6.51 3.524 6.51-3.524 6.511 3.524 6.51-3.524 6.511 3.524 6.511-3.524 6.51 3.524m524.035-217.06l5.458-2.955 5.458 2.955 5.459-2.955 5.458 2.955 5.458-2.955 5.459 2.955 5.458-2.955 5.459 2.955 5.458-2.955 5.458 2.955m-54.583 5.992l5.458-2.955 5.458 2.955 5.459-2.955 5.458 2.955 5.458-2.955 5.459 2.955 5.458-2.955 5.459 2.955 5.458-2.955 5.458 2.955m-54.583 5.991l5.458-2.954 5.458 2.954 5.459-2.954 5.458 2.954 5.458-2.954 5.459 2.954 5.458-2.954 5.459 2.954 5.458-2.954 5.458 2.954m-54.583 5.992l5.458-2.955 5.458 2.955 5.459-2.955 5.458 2.955 5.458-2.955 5.459 2.955 5.458-2.955 5.459 2.955 5.458-2.955 5.458 2.955m-54.583 5.992l5.458-2.955 5.458 2.955 5.459-2.955 5.458 2.955 5.458-2.955 5.459 2.955 5.458-2.955 5.459 2.955 5.458-2.955 5.458 2.955m-54.583 5.992l5.458-2.955 5.458 2.955 5.459-2.955 5.458 2.955 5.458-2.955 5.459 2.955 5.458-2.955 5.459 2.955 5.458-2.955 5.458 2.955m-54.583 5.992l5.458-2.955 5.458 2.955 5.459-2.955 5.458 2.955 5.458-2.955 5.459 2.955 5.458-2.955 5.459 2.955 5.458-2.955 5.458 2.955m-54.583 5.991l5.458-2.955 5.458 2.955 5.459-2.955 5.458 2.955 5.458-2.955 5.459 2.955 5.458-2.955 5.459 2.955 5.458-2.955 5.458 2.955m-54.583 5.992l5.458-2.955 5.458 2.955 5.459-2.955 5.458 2.955 5.458-2.955 5.459 2.955 5.458-2.955 5.459 2.955 5.458-2.955 5.458 2.955m-54.583 5.992l5.458-2.955 5.458 2.955 5.459-2.955 5.458 2.955 5.458-2.955 5.459 2.955 5.458-2.955 5.459 2.955 5.458-2.955 5.458 2.955m-54.583 5.991l5.458-2.954 5.458 2.954 5.459-2.954 5.458 2.954 5.458-2.954 5.459 2.954 5.458-2.954 5.459 2.954 5.458-2.954 5.458 2.954m-54.583 5.992l5.458-2.955 5.458 2.955 5.459-2.955 5.458 2.955 5.458-2.955 5.459 2.955 5.458-2.955 5.459 2.955 5.458-2.955 5.458 2.955m-54.583 5.992l5.458-2.955 5.458 2.955 5.459-2.955 5.458 2.955 5.458-2.955 5.459 2.955 5.458-2.955 5.459 2.955 5.458-2.955 5.458 2.955m-54.583 5.992l5.458-2.955 5.458 2.955 5.459-2.955 5.458 2.955 5.458-2.955 5.459 2.955 5.458-2.955 5.459 2.955 5.458-2.955 5.458 2.955m-54.583 5.991l5.458-2.954 5.458 2.954 5.459-2.954 5.458 2.954 5.458-2.954 5.459 2.954 5.458-2.954 5.459 2.954 5.458-2.954 5.458 2.954m-54.583 5.992l5.458-2.954 5.458 2.954 5.459-2.954 5.458 2.954 5.458-2.954 5.459 2.954 5.458-2.954 5.459 2.954 5.458-2.954 5.458 2.954" fill="#666bff"/><circle cx="471.772" cy="228.904" r="8.811" fill="#eee"/><path d="M608.126 140.277a8.811 8.811 0 11-8.81-8.811 8.811 8.811 0 018.81 8.81zM40.46 29.034a2.851 2.851 0 101.24-5.36q-.828.278-1.642.596a2.849 2.849 0 00.402 4.764zm-1.32 8.499a2.851 2.851 0 10-5.027-2.694 2.851 2.851 0 005.027 2.694zm-5.18 9.665a2.851 2.851 0 10-3.86 1.166 2.851 2.851 0 003.86-1.166zm-5.18 9.665a2.851 2.851 0 10-3.86 1.166 2.851 2.851 0 003.86-1.166zm-5.18 9.665a2.851 2.851 0 10-5.356-1.557q.185.854.412 1.698a2.847 2.847 0 004.943-.14zm9.508-38.448a2.91 2.91 0 00.117-.247q-1.223.818-2.383 1.74a2.848 2.848 0 002.267-1.493zm-9.04 10.831a2.852 2.852 0 003.86-1.166 2.851 2.851 0 00-1.166-3.86 2.913 2.913 0 00-.314-.143 35.561 35.561 0 00-3.313 4.364 2.838 2.838 0 00.933.805zm-5.18 9.665a2.851 2.851 0 002.694-5.027 2.837 2.837 0 00-1.187-.33 35.566 35.566 0 00-1.8 5.174 2.882 2.882 0 00.293.183zm-1.332 5.785q-.127 1.475-.13 2.948c.05-.075.098-.153.142-.234a2.847 2.847 0 00-.012-2.714zm61.51-17.076a2.852 2.852 0 003.15-.303 35.364 35.364 0 00-3.63-4.397 2.849 2.849 0 00.48 4.7zM72.72 43.09a2.851 2.851 0 103.86-1.166 2.851 2.851 0 00-3.86 1.166zm-5.18 9.665a2.851 2.851 0 005.026 2.694 2.851 2.851 0 10-5.027-2.694zm-5.18 9.665a2.851 2.851 0 103.86-1.166 2.852 2.852 0 00-3.86 1.166zm-5.181 9.665a2.852 2.852 0 103.86-1.166 2.852 2.852 0 00-3.86 1.166zm-5.18 9.665a2.851 2.851 0 103.86-1.166A2.852 2.852 0 0052 81.75zm-1.319 8.499a2.849 2.849 0 00-4.181 2.201 35.37 35.37 0 005.671.59 2.852 2.852 0 00-1.49-2.791zm16.009-56.613a2.851 2.851 0 103.86-1.166 2.852 2.852 0 00-3.86 1.166zm-.154 12.359a2.851 2.851 0 10-3.86 1.167 2.851 2.851 0 003.86-1.167zm-5.18 9.665a2.851 2.851 0 00-5.027-2.694 2.851 2.851 0 105.026 2.694zm-5.181 9.665a2.851 2.851 0 10-3.86 1.167 2.851 2.851 0 003.86-1.167zm-10.206 6.971a2.851 2.851 0 103.86-1.166 2.852 2.852 0 00-3.86 1.166zm-5.181 9.665a2.851 2.851 0 103.86-1.166 2.851 2.851 0 00-3.86 1.166zm43.996-19.964a2.852 2.852 0 002.8 4.184 35.372 35.372 0 00.94-5.407 2.849 2.849 0 00-3.74 1.223zm-1.32 8.499a2.851 2.851 0 10.423 4.748c.189-.327.381-.65.56-.986s.343-.674.51-1.012a2.851 2.851 0 00-1.493-2.75zm-9.041 10.831a2.85 2.85 0 001.052 3.791 35.36 35.36 0 003.983-3.776 2.852 2.852 0 00-5.035-.015zm10.676-34.588a2.837 2.837 0 002.008.257 35.794 35.794 0 00-2.077-5.243 2.848 2.848 0 00.069 4.985zm-6.347 5.804a2.851 2.851 0 103.86-1.166 2.851 2.851 0 00-3.86 1.166zm-5.18 9.665a2.851 2.851 0 105.026 2.694 2.851 2.851 0 00-5.026-2.694zm-5.181 9.665a2.851 2.851 0 103.86-1.166 2.851 2.851 0 00-3.86 1.166zm-5.18 9.665a2.851 2.851 0 103.86-1.166 2.851 2.851 0 00-3.86 1.166zm-5.18 9.665a2.837 2.837 0 00-.329 1.537 35.791 35.791 0 005.516-1.173 2.848 2.848 0 00-5.187-.364zm3.793-63.16a2.85 2.85 0 003.82-3.927 35.44 35.44 0 00-3.669-1.171 2.848 2.848 0 00-.15 5.098zm-1.32 8.499a2.852 2.852 0 10-3.86 1.166 2.852 2.852 0 003.86-1.166zm-5.18 9.665a2.852 2.852 0 10-5.027-2.694 2.852 2.852 0 005.027 2.694zm-5.18 9.665a2.852 2.852 0 10-3.86 1.166 2.852 2.852 0 003.86-1.166zm-5.18 9.665a2.852 2.852 0 10-3.86 1.166 2.851 2.851 0 003.86-1.166zm-5.181 9.665a2.852 2.852 0 10-3.86 1.166 2.852 2.852 0 003.86-1.166zm-5.18 9.665a2.852 2.852 0 10-5.328-.911 35.483 35.483 0 003.007 2.406 2.847 2.847 0 002.321-1.495zm19.87-57.778a2.851 2.851 0 10-3.86 1.166 2.851 2.851 0 003.86-1.166zm-5.18 9.665a2.851 2.851 0 10-3.86 1.166 2.851 2.851 0 003.86-1.166zm-5.181 9.665a2.851 2.851 0 00-5.026-2.695 2.851 2.851 0 105.027 2.695zm-5.18 9.665a2.851 2.851 0 10-3.86 1.166 2.851 2.851 0 003.86-1.166zm-5.18 9.665a2.851 2.851 0 10-3.86 1.166 2.851 2.851 0 003.86-1.166zm-5.181 9.664a2.851 2.851 0 10-3.86 1.167 2.852 2.852 0 003.86-1.166zm570.745 104.785l-52.77-50.568-8.414 8.78 52.77 50.568zm-52.665-45.656l47.752 45.76-3.606 3.763-47.752-45.76zM394.94 29.293l-52.77-50.569-8.414 8.781 52.77 50.568zm-52.665-45.656l47.753 45.76-3.607 3.763L338.67-12.6zM124.445 204.52l-2.113-2.113 2.113-2.114a.435.435 0 00-.615-.615l-2.113 2.114-2.114-2.114a.435.435 0 00-.615.615l2.114 2.114-2.114 2.114a.435.435 0 00.615.615l2.114-2.114 2.113 2.114a.435.435 0 10.615-.615zm17.367 0l-2.114-2.113 2.114-2.114a.435.435 0 00-.615-.615l-2.114 2.114-2.113-2.114a.435.435 0 10-.615.615l2.114 2.114-2.114 2.114a.435.435 0 00.615.615l2.113-2.114 2.114 2.114a.435.435 0 10.615-.615zm17.367 0l-2.114-2.113 2.114-2.114a.435.435 0 00-.615-.615l-2.114 2.114-2.114-2.114a.435.435 0 00-.615.615l2.114 2.114-2.114 2.114a.435.435 0 10.615.615l2.114-2.114 2.114 2.114a.435.435 0 00.615-.615zm17.366 0l-2.113-2.113 2.113-2.114a.435.435 0 00-.615-.615l-2.113 2.114-2.114-2.114a.435.435 0 00-.615.615l2.114 2.114-2.114 2.114a.435.435 0 10.615.615l2.114-2.114 2.113 2.114a.435.435 0 10.615-.615zm17.367 0l-2.114-2.113 2.114-2.114a.435.435 0 00-.615-.615l-2.114 2.114-2.113-2.114a.435.435 0 00-.615.615l2.113 2.114-2.114 2.114a.435.435 0 00.615.615l2.114-2.114 2.114 2.114a.435.435 0 10.615-.615zm17.367 0l-2.114-2.113 2.114-2.114a.435.435 0 00-.615-.615l-2.114 2.114-2.114-2.114a.435.435 0 10-.615.615l2.114 2.114-2.114 2.114a.435.435 0 10.615.615l2.114-2.114 2.114 2.114a.435.435 0 10.615-.615zm17.366 0l-2.114-2.113 2.114-2.114a.435.435 0 10-.615-.615l-2.113 2.114-2.114-2.114a.435.435 0 00-.615.615l2.114 2.114-2.114 2.114a.435.435 0 00.615.615l2.114-2.114 2.113 2.114a.435.435 0 10.615-.615zm17.367 0l-2.114-2.113 2.114-2.114a.435.435 0 00-.615-.615l-2.114 2.114-2.113-2.114a.435.435 0 00-.615.615l2.113 2.114-2.113 2.114a.435.435 0 00.614.615l2.114-2.114 2.114 2.114a.435.435 0 10.615-.615zm17.367 0l-2.114-2.113 2.114-2.114a.435.435 0 00-.615-.615l-2.114 2.114-2.114-2.114a.435.435 0 00-.615.615l2.114 2.114-2.114 2.114a.435.435 0 00.615.615l2.114-2.114 2.114 2.114a.435.435 0 10.615-.615zm17.366 0l-2.114-2.113 2.114-2.114a.435.435 0 00-.615-.615l-2.113 2.114-2.114-2.114a.435.435 0 00-.615.615l2.114 2.114-2.114 2.114a.435.435 0 00.615.615l2.114-2.114 2.113 2.114a.435.435 0 00.615-.615zm17.367 0l-2.114-2.113 2.114-2.114a.435.435 0 00-.615-.615l-2.114 2.114-2.114-2.114a.435.435 0 00-.615.615l2.114 2.114-2.114 2.114a.435.435 0 00.615.615l2.114-2.114 2.114 2.114a.435.435 0 10.615-.615zm-173.667 13.842l-2.113-2.113 2.113-2.114a.435.435 0 00-.615-.615l-2.113 2.114-2.114-2.114a.435.435 0 00-.615.615l2.114 2.114-2.114 2.113a.435.435 0 00.615.615l2.114-2.113 2.113 2.113a.435.435 0 00.615-.615zm17.367 0l-2.114-2.113 2.114-2.114a.435.435 0 00-.615-.615l-2.114 2.114-2.113-2.114a.435.435 0 10-.615.615l2.114 2.114-2.114 2.113a.435.435 0 00.615.615l2.113-2.113 2.114 2.113a.435.435 0 00.615-.615zm17.367 0l-2.114-2.113 2.114-2.114a.435.435 0 00-.615-.615l-2.114 2.114-2.114-2.114a.435.435 0 00-.615.615l2.114 2.114-2.114 2.113a.435.435 0 10.615.615l2.114-2.113 2.114 2.113a.435.435 0 00.615-.615zm17.366 0l-2.113-2.113 2.113-2.114a.435.435 0 00-.615-.615l-2.113 2.114-2.114-2.114a.435.435 0 00-.615.615l2.114 2.114-2.114 2.113a.435.435 0 00.615.615l2.114-2.113 2.113 2.113a.435.435 0 00.615-.615zm17.367 0l-2.114-2.113 2.114-2.114a.435.435 0 00-.615-.615l-2.114 2.114-2.113-2.114a.435.435 0 00-.615.615l2.113 2.114-2.114 2.113a.435.435 0 00.615.615l2.114-2.113 2.114 2.113a.435.435 0 00.615-.615zm17.367 0l-2.114-2.113 2.114-2.114a.435.435 0 00-.615-.615l-2.114 2.114-2.114-2.114a.435.435 0 10-.615.615l2.114 2.114-2.114 2.113a.435.435 0 00.615.615l2.114-2.113 2.114 2.113a.435.435 0 00.615-.615zm17.366 0l-2.114-2.113 2.114-2.114a.435.435 0 10-.615-.615l-2.113 2.114-2.114-2.114a.435.435 0 00-.615.615l2.114 2.114-2.114 2.113a.435.435 0 00.615.615l2.114-2.113 2.113 2.113a.435.435 0 10.615-.615zm17.367 0l-2.114-2.113 2.114-2.114a.435.435 0 00-.615-.615l-2.114 2.114-2.113-2.114a.435.435 0 00-.615.615l2.113 2.114-2.113 2.113a.435.435 0 00.614.615l2.114-2.113 2.114 2.113a.435.435 0 00.615-.615zm17.367 0l-2.114-2.113 2.114-2.114a.435.435 0 00-.615-.615l-2.114 2.114-2.114-2.114a.435.435 0 00-.615.615l2.114 2.114-2.114 2.113a.435.435 0 00.615.615l2.114-2.113 2.114 2.113a.435.435 0 00.615-.615zm17.366 0l-2.114-2.113 2.114-2.114a.435.435 0 00-.615-.615l-2.113 2.114-2.114-2.114a.435.435 0 00-.615.615l2.114 2.114-2.114 2.113a.435.435 0 00.615.615l2.114-2.113 2.113 2.113a.435.435 0 00.615-.615zm17.367 0l-2.114-2.113 2.114-2.114a.435.435 0 00-.615-.615l-2.114 2.114-2.114-2.114a.435.435 0 00-.615.615l2.114 2.114-2.114 2.113a.435.435 0 00.615.615l2.114-2.113 2.114 2.113a.435.435 0 00.615-.615zm-173.667 13.842l-2.113-2.114 2.113-2.114a.435.435 0 00-.615-.615l-2.113 2.114-2.114-2.114a.435.435 0 00-.615.615l2.114 2.114-2.114 2.114a.435.435 0 00.615.615l2.114-2.114 2.113 2.114a.435.435 0 00.615-.615zm17.367 0l-2.114-2.114 2.114-2.114a.435.435 0 00-.615-.615l-2.114 2.114-2.113-2.114a.435.435 0 10-.615.615l2.114 2.114-2.114 2.114a.435.435 0 00.615.615l2.113-2.114 2.114 2.114a.435.435 0 00.615-.615zm17.367 0l-2.114-2.114 2.114-2.114a.435.435 0 00-.615-.615l-2.114 2.114-2.114-2.114a.435.435 0 00-.615.615l2.114 2.114-2.114 2.114a.435.435 0 10.615.615l2.114-2.114 2.114 2.114a.435.435 0 00.615-.615zm17.366 0l-2.113-2.114 2.113-2.114a.435.435 0 00-.615-.615l-2.113 2.114-2.114-2.114a.435.435 0 00-.615.615l2.114 2.114-2.114 2.114a.435.435 0 00.615.615l2.114-2.114 2.113 2.114a.435.435 0 00.615-.615zm17.367 0l-2.114-2.114 2.114-2.114a.435.435 0 00-.615-.615l-2.114 2.114-2.113-2.114a.435.435 0 00-.615.615l2.113 2.114-2.114 2.114a.435.435 0 00.615.615l2.114-2.114 2.114 2.114a.435.435 0 00.615-.615zm17.367 0l-2.114-2.114 2.114-2.114a.435.435 0 00-.615-.615l-2.114 2.114-2.114-2.114a.435.435 0 10-.615.615l2.114 2.114-2.114 2.114a.435.435 0 00.615.615l2.114-2.114 2.114 2.114a.435.435 0 00.615-.615zm17.366 0l-2.114-2.114 2.114-2.114a.435.435 0 10-.615-.615l-2.113 2.114-2.114-2.114a.435.435 0 00-.615.615l2.114 2.114-2.114 2.114a.435.435 0 00.615.615l2.114-2.114 2.113 2.114a.435.435 0 10.615-.615zm17.367 0l-2.114-2.114 2.114-2.114a.435.435 0 00-.615-.615l-2.114 2.114-2.113-2.114a.435.435 0 00-.615.615l2.113 2.114-2.113 2.114a.435.435 0 00.614.615l2.114-2.114 2.114 2.114a.435.435 0 00.615-.615zm17.367 0l-2.114-2.114 2.114-2.114a.435.435 0 00-.615-.615l-2.114 2.114-2.114-2.114a.435.435 0 00-.615.615l2.114 2.114-2.114 2.114a.435.435 0 00.615.615l2.114-2.114 2.114 2.114a.435.435 0 00.615-.615zm17.366 0l-2.114-2.114 2.114-2.114a.435.435 0 00-.615-.615l-2.113 2.114-2.114-2.114a.435.435 0 00-.615.615l2.114 2.114-2.114 2.114a.435.435 0 00.615.615l2.114-2.114 2.113 2.114a.435.435 0 00.615-.615zm17.367 0l-2.114-2.114 2.114-2.114a.435.435 0 00-.615-.615l-2.114 2.114-2.114-2.114a.435.435 0 00-.615.615l2.114 2.114-2.114 2.114a.435.435 0 00.615.615l2.114-2.114 2.114 2.114a.435.435 0 00.615-.615zm-173.667 13.841l-2.113-2.113 2.113-2.114a.435.435 0 00-.615-.615l-2.113 2.114-2.114-2.114a.435.435 0 00-.615.615l2.114 2.114-2.114 2.114a.435.435 0 00.615.614l2.114-2.113 2.113 2.113a.435.435 0 00.615-.615zm17.367 0l-2.114-2.113 2.114-2.114a.435.435 0 00-.615-.615l-2.114 2.114-2.113-2.114a.435.435 0 10-.615.615l2.114 2.114-2.114 2.114a.435.435 0 00.615.614l2.113-2.113 2.114 2.113a.435.435 0 00.615-.615zm17.367 0l-2.114-2.113 2.114-2.114a.435.435 0 00-.615-.615l-2.114 2.114-2.114-2.114a.435.435 0 00-.615.615l2.114 2.114-2.114 2.114a.435.435 0 10.615.614l2.114-2.113 2.114 2.113a.435.435 0 00.615-.615zm17.366 0l-2.113-2.113 2.113-2.114a.435.435 0 00-.615-.615l-2.113 2.114-2.114-2.114a.435.435 0 00-.615.615l2.114 2.114-2.114 2.114a.435.435 0 00.615.614l2.114-2.113 2.113 2.113a.435.435 0 00.615-.615zm17.367 0l-2.114-2.113 2.114-2.114a.435.435 0 00-.615-.615l-2.114 2.114-2.113-2.114a.435.435 0 00-.615.615l2.113 2.114-2.114 2.114a.435.435 0 00.615.614l2.114-2.113 2.114 2.113a.435.435 0 00.615-.615zm17.367 0l-2.114-2.113 2.114-2.114a.435.435 0 00-.615-.615l-2.114 2.114-2.114-2.114a.435.435 0 10-.615.615l2.114 2.114-2.114 2.114a.435.435 0 00.615.614l2.114-2.113 2.114 2.113a.435.435 0 00.615-.615zm17.366 0l-2.114-2.113 2.114-2.114a.435.435 0 10-.615-.615l-2.113 2.114-2.114-2.114a.435.435 0 00-.615.615l2.114 2.114-2.114 2.114a.435.435 0 00.615.614l2.114-2.113 2.113 2.113a.435.435 0 10.615-.615zm17.367 0l-2.114-2.113 2.114-2.114a.435.435 0 00-.615-.615l-2.114 2.114-2.113-2.114a.435.435 0 00-.615.615l2.113 2.114-2.113 2.114a.435.435 0 00.614.614l2.114-2.113 2.114 2.113a.435.435 0 00.615-.615zm17.367 0l-2.114-2.113 2.114-2.114a.435.435 0 00-.615-.615l-2.114 2.114-2.114-2.114a.435.435 0 00-.615.615l2.114 2.114-2.114 2.114a.435.435 0 00.615.614l2.114-2.113 2.114 2.113a.435.435 0 00.615-.615zm17.366 0l-2.114-2.113 2.114-2.114a.435.435 0 00-.615-.615l-2.113 2.114-2.114-2.114a.435.435 0 00-.615.615l2.114 2.114-2.114 2.114a.435.435 0 00.615.614l2.114-2.113 2.113 2.113a.435.435 0 00.615-.615zm17.367 0l-2.114-2.113 2.114-2.114a.435.435 0 00-.615-.615l-2.114 2.114-2.114-2.114a.435.435 0 00-.615.615l2.114 2.114-2.114 2.114a.435.435 0 00.615.614l2.114-2.113 2.114 2.113a.435.435 0 00.615-.615zm-173.667 13.842l-2.113-2.114 2.113-2.113a.435.435 0 00-.615-.615l-2.113 2.113-2.114-2.113a.435.435 0 00-.615.615l2.114 2.113-2.114 2.114a.435.435 0 10.615.615l2.114-2.114 2.113 2.114a.435.435 0 00.615-.615zm17.367 0l-2.114-2.114 2.114-2.113a.435.435 0 00-.615-.615l-2.114 2.113-2.113-2.113a.435.435 0 10-.615.615l2.114 2.113-2.114 2.114a.435.435 0 10.615.615l2.113-2.114 2.114 2.114a.435.435 0 00.615-.615zm17.367 0l-2.114-2.114 2.114-2.113a.435.435 0 00-.615-.615l-2.114 2.113-2.114-2.113a.435.435 0 00-.615.615l2.114 2.113-2.114 2.114a.435.435 0 10.615.615l2.114-2.114 2.114 2.114a.435.435 0 00.615-.615zm17.366 0l-2.113-2.114 2.113-2.113a.435.435 0 00-.615-.615l-2.113 2.113-2.114-2.113a.435.435 0 00-.615.615l2.114 2.113-2.114 2.114a.435.435 0 10.615.615l2.114-2.114 2.113 2.114a.435.435 0 00.615-.615zm17.367 0l-2.114-2.114 2.114-2.113a.435.435 0 00-.615-.615l-2.114 2.113-2.113-2.113a.435.435 0 00-.615.615l2.113 2.113-2.114 2.114a.435.435 0 10.615.615l2.114-2.114 2.114 2.114a.435.435 0 00.615-.615zm17.367 0l-2.114-2.114 2.114-2.113a.435.435 0 00-.615-.615l-2.114 2.113-2.114-2.113a.435.435 0 10-.615.615l2.114 2.113-2.114 2.114a.435.435 0 10.615.615l2.114-2.114 2.114 2.114a.435.435 0 00.615-.615zm17.366 0l-2.114-2.114 2.114-2.113a.435.435 0 10-.615-.615l-2.113 2.113-2.114-2.113a.435.435 0 00-.615.615l2.114 2.113-2.114 2.114a.435.435 0 10.615.615l2.114-2.114 2.113 2.114a.435.435 0 00.615-.615zm17.367 0l-2.114-2.114 2.114-2.113a.435.435 0 00-.615-.615l-2.114 2.113-2.113-2.113a.435.435 0 00-.615.615l2.113 2.113-2.113 2.114a.435.435 0 10.614.615l2.114-2.114 2.114 2.114a.435.435 0 00.615-.615zm17.367 0l-2.114-2.114 2.114-2.113a.435.435 0 00-.615-.615l-2.114 2.113-2.114-2.113a.435.435 0 00-.615.615l2.114 2.113-2.114 2.114a.435.435 0 00.615.615l2.114-2.114 2.114 2.114a.435.435 0 00.615-.615zm17.366 0l-2.114-2.114 2.114-2.113a.435.435 0 00-.615-.615l-2.113 2.113-2.114-2.113a.435.435 0 00-.615.615l2.114 2.113-2.114 2.114a.435.435 0 10.615.615l2.114-2.114 2.113 2.114a.435.435 0 00.615-.615zm17.367 0l-2.114-2.114 2.114-2.113a.435.435 0 00-.615-.615l-2.114 2.113-2.114-2.113a.435.435 0 00-.615.615l2.114 2.113-2.114 2.114a.435.435 0 00.615.615l2.114-2.114 2.114 2.114a.435.435 0 00.615-.615zm100.85 254.539l24.8-33.38q-.535-.523-1.105-1.003l-24.973 33.615c.417.27.843.527 1.278.768zm7.463 2.435l21.823-29.374a20.432 20.432 0 00-.737-1.5l-22.733 30.602a20.41 20.41 0 001.647.272zm-3.965-.904l23.777-32.005a20.932 20.932 0 00-.934-1.23l-24.29 32.696c.474.198.958.375 1.448.539zm8.54.986l18.646-25.1a21.04 21.04 0 00-.467-1.859l-20.094 27.047c.634 0 1.273-.029 1.915-.088zm5.606-1.307l13.409-18.048a20.901 20.901 0 00.034-2.536l-15.86 21.35a20.87 20.87 0 002.417-.766zm-28.433-17.886l16.507-22.22a21.011 21.011 0 00-2.323.639l-14.243 19.172a20.986 20.986 0 00.059 2.409zm.995 4.9l20.491-27.582q-.93-.024-1.875.035l-19.124 25.742q.216.92.508 1.805zm-.373-11.978l9.289-12.502a21.003 21.003 0 00-5.561 4.996l-.55.74a21.002 21.002 0 00-3.178 6.766zm4.385 19.058l24.416-32.866a20.76 20.76 0 00-1.422-.575l-23.955 32.246c.305.412.627.809.96 1.195zm2.692 2.616l25.006-33.66c-.41-.278-.833-.54-1.262-.79l-24.866 33.47c.363.34.736.668 1.122.98zm-4.959-5.805l22.975-30.926a20.776 20.776 0 00-1.612-.318l-22.133 29.792c.237.497.497.98.77 1.452zm59.908-159.521l24.8-33.38q-.535-.522-1.105-1.003l-24.973 33.616c.417.27.843.527 1.278.767zm7.463 2.436l21.823-29.375a20.75 20.75 0 00-.737-1.499l-22.733 30.602c.542.113 1.092.201 1.647.272zm-3.964-.905l23.776-32.004a20.899 20.899 0 00-.934-1.231l-24.291 32.696c.475.199.959.376 1.449.54zm8.539.986l18.646-25.1a21.083 21.083 0 00-.467-1.858l-20.094 27.047c.634-.001 1.273-.03 1.915-.089zm5.606-1.306l13.409-18.049a20.902 20.902 0 00.034-2.535l-15.86 21.35a20.888 20.888 0 002.417-.766zm4.63-2.482a21.07 21.07 0 007.739-10.417zm-33.063-15.404l16.507-22.22a20.975 20.975 0 00-2.323.638l-14.243 19.172a20.989 20.989 0 00.059 2.41zm.995 4.9l20.491-27.582q-.93-.024-1.875.035l-19.124 25.741q.216.921.508 1.806zm-.373-11.978l9.289-12.503a21.004 21.004 0 00-5.561 4.996l-.55.74a21.003 21.003 0 00-3.178 6.767zm4.384 19.058l24.417-32.866c-.467-.208-.94-.402-1.422-.575l-23.955 32.245c.305.412.627.81.96 1.196zm2.693 2.615l25.006-33.659a21.16 21.16 0 00-1.262-.79l-24.866 33.47c.363.339.736.667 1.122.98zm-4.959-5.804l22.975-30.926a20.823 20.823 0 00-1.612-.318l-22.133 29.792c.237.497.497.98.77 1.452zm-145.215 67.272l52.77 50.568 8.414-8.781-52.77-50.568zm52.665 45.655l-47.752-45.76 3.606-3.763 47.752 45.76zm97.297-269.372l2.113 2.114-2.113 2.113a.435.435 0 00.614.615l2.114-2.113 2.114 2.113a.435.435 0 10.615-.615l-2.114-2.113 2.114-2.114a.435.435 0 00-.615-.615l-2.114 2.114-2.114-2.114a.435.435 0 00-.614.615zm-17.367 0l2.114 2.114-2.114 2.113a.435.435 0 00.615.615l2.114-2.113 2.113 2.113a.435.435 0 00.615-.615l-2.113-2.113 2.113-2.114a.435.435 0 00-.615-.615l-2.113 2.114-2.114-2.114a.435.435 0 00-.615.615zm17.367-13.841l2.113 2.113-2.113 2.114a.435.435 0 00.614.615l2.114-2.114 2.114 2.114a.435.435 0 10.615-.615l-2.114-2.114 2.114-2.114a.435.435 0 00-.615-.615l-2.114 2.114-2.114-2.114a.435.435 0 00-.614.615zm-17.367 0l2.114 2.113-2.114 2.114a.435.435 0 00.615.615l2.114-2.114 2.113 2.114a.435.435 0 00.615-.615l-2.113-2.114 2.113-2.114a.435.435 0 00-.615-.615l-2.113 2.114-2.114-2.114a.435.435 0 00-.615.615zm17.367-13.842l2.113 2.113-2.113 2.114a.435.435 0 00.614.615l2.114-2.114 2.114 2.114a.435.435 0 10.615-.615l-2.114-2.114 2.114-2.114a.435.435 0 00-.615-.614l-2.114 2.114-2.114-2.114a.435.435 0 00-.614.615zm-17.367 0l2.114 2.113-2.114 2.114a.435.435 0 00.615.615l2.114-2.114 2.113 2.114a.435.435 0 00.615-.615l-2.113-2.114 2.113-2.114a.435.435 0 00-.615-.614l-2.113 2.114-2.114-2.114a.435.435 0 00-.615.615zm120.404 201.066l2.113 2.113-2.113 2.114a.435.435 0 00.614.615l2.114-2.114 2.114 2.114a.435.435 0 10.615-.615l-2.114-2.114 2.114-2.114a.435.435 0 00-.615-.615l-2.114 2.114-2.114-2.113a.435.435 0 00-.614.615zm-17.367 0l2.113 2.113-2.113 2.114a.435.435 0 00.615.615l2.113-2.114 2.114 2.114a.435.435 0 00.615-.615l-2.114-2.114 2.114-2.114a.435.435 0 00-.615-.615l-2.114 2.114-2.113-2.113a.435.435 0 00-.615.615zm17.367-13.842l2.113 2.114-2.113 2.113a.435.435 0 00.614.615l2.114-2.114 2.114 2.114a.435.435 0 10.615-.615l-2.114-2.113 2.114-2.114a.435.435 0 00-.615-.615l-2.114 2.114-2.114-2.114a.435.435 0 00-.614.615zm-17.367 0l2.113 2.114-2.113 2.113a.435.435 0 00.615.615l2.113-2.114 2.114 2.114a.435.435 0 00.615-.615l-2.114-2.113 2.114-2.114a.435.435 0 00-.615-.615l-2.114 2.114-2.113-2.114a.435.435 0 00-.615.615zm17.367-13.842l2.113 2.114-2.113 2.114a.435.435 0 00.614.615l2.114-2.114 2.114 2.114a.435.435 0 10.615-.615l-2.114-2.114 2.114-2.114a.435.435 0 10-.615-.615l-2.114 2.114-2.114-2.114a.435.435 0 00-.614.615zm-17.367 0l2.113 2.114-2.113 2.114a.435.435 0 00.615.615l2.113-2.114 2.114 2.114a.435.435 0 00.615-.615l-2.114-2.114 2.114-2.114a.435.435 0 10-.615-.615l-2.114 2.114-2.113-2.114a.435.435 0 00-.615.615zM91.629 177.355a12.82 12.82 0 01-7.975-16.28 12.82 12.82 0 0116.28-7.976 12.82 12.82 0 017.976 16.28v.001a12.82 12.82 0 01-16.281 7.975zM198.54 486.188a12.82 12.82 0 01-7.975-16.28 12.82 12.82 0 0116.28-7.976 12.82 12.82 0 017.976 16.281 12.82 12.82 0 01-16.28 7.975zm543.384-199.57a12.82 12.82 0 01-7.975-16.281 12.82 12.82 0 0116.28-7.975 12.82 12.82 0 017.976 16.28 12.82 12.82 0 01-16.28 7.976zm-433.708 76.259a12.82 12.82 0 01-7.975-16.28 12.82 12.82 0 0116.28-7.976 12.82 12.82 0 017.975 16.28 12.82 12.82 0 01-16.28 7.976zm165.801-232.529a12.82 12.82 0 01-7.975-16.28 12.819 12.819 0 0116.28-7.976 12.819 12.819 0 017.975 16.28v.001a12.82 12.82 0 01-16.28 7.975zM209.185 36.833a.893.893 0 11.894.894.893.893 0 01-.894-.894zm-8.348 0a.893.893 0 11.893.894.893.893 0 01-.893-.894zm-8.349 0a.893.893 0 11.893.894.893.893 0 01-.893-.894zm-8.349 0a.893.893 0 11.893.894.893.893 0 01-.893-.894zm-8.349 0a.893.893 0 11.894.894.893.893 0 01-.894-.894z" fill="#eee"/><circle cx="168.334" cy="36.833" r=".893" fill="#eee"/><path d="M159.092 36.833a.893.893 0 11.894.894.893.893 0 01-.894-.894zm-8.348 0a.893.893 0 11.893.894.893.893 0 01-.893-.894zm-8.349 0a.893.893 0 11.893.894.893.893 0 01-.893-.894zm-8.349 0a.893.893 0 11.893.894.893.893 0 01-.893-.894zm-8.349 0a.893.893 0 11.893.894.893.893 0 01-.893-.894zm-8.349 0a.893.893 0 11.893.894.893.893 0 01-.893-.894zm-8.349 0a.893.893 0 11.893.894.893.893 0 01-.893-.894zm-8.349 0a.893.893 0 11.893.894.893.893 0 01-.893-.894zm108.535-6.849a.893.893 0 11.894.894.893.893 0 01-.894-.894zm-8.348 0a.893.893 0 11.893.894.893.893 0 01-.893-.894zm-8.349 0a.893.893 0 11.893.894.893.893 0 01-.893-.894zm-8.349 0a.893.893 0 11.893.894.893.893 0 01-.893-.894zm-8.349 0a.893.893 0 11.894.894.893.893 0 01-.894-.894zm-8.349 0a.893.893 0 11.894.894.894.894 0 01-.894-.894zm-8.349 0a.893.893 0 11.894.894.893.893 0 01-.894-.894zm-8.348 0a.893.893 0 11.893.894.893.893 0 01-.893-.894zm-8.349 0a.893.893 0 11.893.894.893.893 0 01-.893-.894zm-8.349 0a.893.893 0 11.893.894.893.893 0 01-.893-.894zm-8.349 0a.893.893 0 11.893.894.893.893 0 01-.893-.894zm-8.349 0a.893.893 0 11.893.894.894.894 0 01-.893-.894zm-8.349 0a.893.893 0 11.893.894.893.893 0 01-.893-.894zm-8.349 0a.893.893 0 11.893.894.893.893 0 01-.893-.894zm108.535-6.849a.893.893 0 11.894.893.893.893 0 01-.894-.893zm-8.348 0a.893.893 0 11.893.893.893.893 0 01-.893-.893zm-8.349 0a.893.893 0 11.893.893.893.893 0 01-.893-.893zm-8.349 0a.893.893 0 11.893.893.893.893 0 01-.893-.893zm-8.349 0a.893.893 0 11.894.893.893.893 0 01-.894-.893zm-8.349 0a.893.893 0 11.894.893.893.893 0 01-.894-.893zm-8.349 0a.893.893 0 11.894.893.893.893 0 01-.894-.893zm-8.348 0a.893.893 0 11.893.893.893.893 0 01-.893-.893zm-8.349 0a.893.893 0 11.893.893.893.893 0 01-.893-.893zm-8.349 0a.893.893 0 11.893.893.893.893 0 01-.893-.893zm-8.349 0a.893.893 0 11.893.893.893.893 0 01-.893-.893zm-8.349 0a.893.893 0 11.893.893.893.893 0 01-.893-.893zm-8.349 0a.893.893 0 11.893.893.893.893 0 01-.893-.893zm-8.349 0a.893.893 0 11.893.893.893.893 0 01-.893-.893zm108.535-6.849a.893.893 0 11.894.894.893.893 0 01-.894-.894zm-8.348 0a.893.893 0 11.893.894.893.893 0 01-.893-.894zm-8.349 0a.893.893 0 11.893.894.893.893 0 01-.893-.894zm-8.349 0a.893.893 0 11.893.894.893.893 0 01-.893-.894zm-8.349 0a.893.893 0 11.894.894.893.893 0 01-.894-.894zm-8.349 0a.893.893 0 11.894.894.893.893 0 01-.894-.894zm-8.349 0a.893.893 0 11.894.894.893.893 0 01-.894-.894zm-8.348 0a.893.893 0 11.893.894.893.893 0 01-.893-.894zm-8.349 0a.893.893 0 11.893.894.893.893 0 01-.893-.894zm-8.349 0a.893.893 0 11.893.894.893.893 0 01-.893-.894zm-8.349 0a.893.893 0 11.893.894.893.893 0 01-.893-.894zm-8.349 0a.893.893 0 11.893.894.893.893 0 01-.893-.894zm-8.349 0a.893.893 0 11.893.894.893.893 0 01-.893-.894zm-8.349 0a.893.893 0 11.893.894.893.893 0 01-.893-.894zm108.535-6.849a.893.893 0 11.894.894.893.893 0 01-.894-.894zm-8.348 0a.893.893 0 11.893.894.893.893 0 01-.893-.894zm-8.349 0a.893.893 0 11.893.894.893.893 0 01-.893-.894zm-8.349 0a.893.893 0 11.893.894.893.893 0 01-.893-.894zm-8.349 0a.893.893 0 11.894.894.893.893 0 01-.894-.894zm-8.349 0a.893.893 0 11.894.894.893.893 0 01-.894-.894zm-8.349 0a.893.893 0 11.894.894.893.893 0 01-.894-.894zm-8.348 0a.893.893 0 11.893.894.893.893 0 01-.893-.894zm-8.349 0a.893.893 0 11.893.894.893.893 0 01-.893-.894zm-8.349 0a.893.893 0 11.893.894.893.893 0 01-.893-.894zm-8.349 0a.893.893 0 11.893.894.893.893 0 01-.893-.894zm-8.349 0a.893.893 0 11.893.894.893.893 0 01-.893-.894zm-8.349 0a.893.893 0 11.893.894.893.893 0 01-.893-.894zm-8.349 0a.893.893 0 11.893.894.893.893 0 01-.893-.894zm108.535-6.849a.893.893 0 11.894.893.893.893 0 01-.894-.893zm-8.348 0a.893.893 0 11.893.893.893.893 0 01-.893-.893zm-8.349 0a.893.893 0 11.893.893.893.893 0 01-.893-.893zm-8.349 0a.893.893 0 11.893.893.893.893 0 01-.893-.893zm-8.349 0a.893.893 0 11.894.893.893.893 0 01-.894-.893zm-8.349 0a.893.893 0 11.894.893.893.893 0 01-.894-.893zm-8.349 0a.893.893 0 11.894.893.893.893 0 01-.894-.893zm-8.348 0a.893.893 0 11.893.893.893.893 0 01-.893-.893zm-8.349 0a.893.893 0 11.893.893.893.893 0 01-.893-.893zm-8.349 0a.893.893 0 11.893.893.893.893 0 01-.893-.893zm-8.349 0a.893.893 0 11.893.893.893.893 0 01-.893-.893zm-8.349 0a.893.893 0 11.893.893.894.894 0 01-.893-.893zm-8.349 0a.893.893 0 11.893.893.893.893 0 01-.893-.893zm-8.349 0a.893.893 0 11.893.893.893.893 0 01-.893-.893zm299.777 122.947l-15.39 20.716q.332.324.685.622l15.498-20.861q-.387-.252-.793-.477zm-4.631-1.511l-13.543 18.23c.141.317.292.628.457.93l14.108-18.991c-.336-.07-.678-.125-1.022-.169zm2.46.561l-14.755 19.862c.184.262.377.518.58.764l15.074-20.291a13.1 13.1 0 00-.899-.335zm-5.299-.612l-11.572 15.577c.08.392.177.777.29 1.154l12.47-16.786q-.59.001-1.188.055zm-3.479.811l-8.322 11.201a12.959 12.959 0 00-.021 1.574l9.843-13.25a12.957 12.957 0 00-1.5.475zm-2.874 1.541a13.075 13.075 0 00-4.802 6.464zm20.519 9.559l-10.244 13.79a13 13 0 001.442-.396l8.839-11.898a13.032 13.032 0 00-.037-1.496zm-.618-3.041l-12.716 17.118q.577.014 1.164-.022l11.868-15.975q-.134-.572-.316-1.12zm.232 7.434l-5.764 7.759a13.031 13.031 0 003.45-3.1l.342-.46a13.035 13.035 0 001.972-4.2zm-2.721-11.827l-15.153 20.396c.29.129.583.25.883.357l14.866-20.012c-.19-.255-.389-.502-.596-.742zm-1.671-1.624l-15.518 20.889c.254.173.516.336.783.49l15.431-20.77a13.08 13.08 0 00-.696-.609zm3.077 3.602l-14.258 19.193c.33.078.663.146 1.001.198l13.735-18.49a12.837 12.837 0 00-.478-.9zm11.408 116.511a.893.893 0 11.893-.894.893.893 0 01-.893.894zm0 8.349a.893.893 0 11.893-.894.893.893 0 01-.893.894zm0 8.349a.893.893 0 11.893-.894.893.893 0 01-.893.894zm0 8.348a.893.893 0 11.893-.893.893.893 0 01-.893.893zm0 8.349a.893.893 0 11.893-.893.893.893 0 01-.893.893zm0 8.349a.893.893 0 11.893-.893.893.893 0 01-.893.893zm0 8.349a.893.893 0 11.893-.893.893.893 0 01-.893.893zm0 8.348a.893.893 0 11.893-.892.893.893 0 01-.893.893zm0 8.35a.893.893 0 11.893-.894.893.893 0 01-.893.894zm0 8.349a.893.893 0 11.893-.894.893.893 0 01-.893.894zm0 8.349a.893.893 0 11.893-.894.893.893 0 01-.893.894zm0 8.348a.893.893 0 11.893-.893.893.893 0 01-.893.893zm0 8.349a.893.893 0 11.893-.893.893.893 0 01-.893.893zm0 8.349a.893.893 0 11.893-.893.893.893 0 01-.893.893z" fill="#eee"/><circle cx="409.981" cy="246.045" r=".893" transform="rotate(-89.695 409.978 246.044)" fill="#eee"/><path d="M409.98 255.288a.893.893 0 11.894-.894.893.893 0 01-.893.894zm0 8.349a.893.893 0 11.894-.894.893.893 0 01-.893.894zm0 8.348a.893.893 0 11.894-.893.893.893 0 01-.893.893zm0 8.349a.893.893 0 11.894-.893.893.893 0 01-.893.893zm0 8.349a.893.893 0 11.894-.893.893.893 0 01-.893.893z" fill="#eee"/><circle cx="409.981" cy="296.139" r=".893" fill="#eee"/><path d="M409.98 305.38a.893.893 0 11.894-.892.893.893 0 01-.893.893zm0 8.35a.893.893 0 11.894-.894.893.893 0 01-.893.894zm0 8.349a.893.893 0 11.894-.894.893.893 0 01-.893.894zm0 8.349a.893.893 0 11.894-.894.893.893 0 01-.893.894zm0 8.348a.893.893 0 11.894-.893.893.893 0 01-.893.893zm0 8.349a.893.893 0 11.894-.893.893.893 0 01-.893.893zm0 8.349a.893.893 0 11.894-.893.893.893 0 01-.893.893zm-6.848-108.535a.893.893 0 11.893-.894.893.893 0 01-.893.894zm0 8.349a.893.893 0 11.893-.894.893.893 0 01-.893.894zm0 8.349a.893.893 0 11.893-.894.893.893 0 01-.893.894zm0 8.348a.893.893 0 11.893-.893.893.893 0 01-.893.893zm0 8.349a.893.893 0 11.893-.893.893.893 0 01-.893.893zm0 8.349a.893.893 0 11.893-.893.893.893 0 01-.893.893zm0 8.349a.893.893 0 11.893-.893.893.893 0 01-.893.893zm0 8.348a.893.893 0 11.893-.892.893.893 0 01-.893.893zm0 8.35a.893.893 0 11.893-.894.893.893 0 01-.893.894zm0 8.349a.893.893 0 11.893-.894.893.893 0 01-.893.894zm0 8.349a.893.893 0 11.893-.894.893.893 0 01-.893.894zm0 8.348a.893.893 0 11.893-.893.893.893 0 01-.893.893zm0 8.349a.893.893 0 11.893-.893.893.893 0 01-.893.893zm0 8.349a.893.893 0 11.893-.893.893.893 0 01-.893.893zm-6.849-108.535a.893.893 0 11.893-.894.893.893 0 01-.893.894zm0 8.349a.893.893 0 11.893-.894.893.893 0 01-.893.894zm0 8.349a.893.893 0 11.893-.894.893.893 0 01-.893.894zm0 8.348a.893.893 0 11.893-.893.893.893 0 01-.893.893zm0 8.349a.893.893 0 11.893-.893.893.893 0 01-.893.893zm0 8.349a.893.893 0 11.893-.893.893.893 0 01-.893.893zm0 8.349a.893.893 0 11.893-.893.893.893 0 01-.893.893zm0 8.348a.893.893 0 11.893-.892.893.893 0 01-.893.893zm0 8.35a.893.893 0 11.893-.894.893.893 0 01-.893.894zm0 8.349a.893.893 0 11.893-.894.893.893 0 01-.893.894zm0 8.349a.893.893 0 11.893-.894.893.893 0 01-.893.894zm0 8.348a.893.893 0 11.893-.893.893.893 0 01-.893.893zm0 8.349a.893.893 0 11.893-.893.893.893 0 01-.893.893zm0 8.349a.893.893 0 11.893-.893.893.893 0 01-.893.893zm-6.849-108.535a.893.893 0 11.893-.894.893.893 0 01-.893.894zm0 8.349a.893.893 0 11.893-.894.893.893 0 01-.893.894zm0 8.349a.893.893 0 11.893-.894.893.893 0 01-.893.894zm0 8.348a.893.893 0 11.893-.893.893.893 0 01-.893.893zm0 8.349a.893.893 0 11.893-.893.893.893 0 01-.893.893zm0 8.349a.893.893 0 11.893-.893.893.893 0 01-.893.893zm0 8.349a.893.893 0 11.893-.893.893.893 0 01-.893.893zm0 8.348a.893.893 0 11.893-.892.893.893 0 01-.893.893zm0 8.35a.893.893 0 11.893-.894.893.893 0 01-.893.894zm0 8.349a.893.893 0 11.893-.894.893.893 0 01-.893.894zm0 8.349a.893.893 0 11.893-.894.893.893 0 01-.893.894zm0 8.348a.893.893 0 11.893-.893.893.893 0 01-.893.893zm0 8.349a.893.893 0 11.893-.893.893.893 0 01-.893.893zm0 8.349a.893.893 0 11.893-.893.893.893 0 01-.893.893zm-6.85-108.535a.893.893 0 11.894-.894.894.894 0 01-.894.894zm0 8.349a.893.893 0 11.894-.894.894.894 0 01-.894.894zm0 8.349a.893.893 0 11.894-.894.894.894 0 01-.894.894zm0 8.348a.893.893 0 11.894-.893.894.894 0 01-.894.893zm0 8.349a.893.893 0 11.894-.893.894.894 0 01-.894.893zm0 8.349a.893.893 0 11.894-.893.893.893 0 01-.894.893zm0 8.349a.893.893 0 11.894-.893.893.893 0 01-.894.893zm0 8.348a.893.893 0 11.894-.892.894.894 0 01-.894.893zm0 8.35a.893.893 0 11.894-.894.893.893 0 01-.894.894zm0 8.349a.893.893 0 11.894-.894.894.894 0 01-.894.894zm0 8.349a.893.893 0 11.894-.894.893.893 0 01-.894.894zm0 8.348a.893.893 0 11.894-.893.893.893 0 01-.894.893zm0 8.349a.893.893 0 11.894-.893.893.893 0 01-.894.893zm0 8.349a.893.893 0 11.894-.893.893.893 0 01-.894.893zm-6.849-108.535a.893.893 0 11.894-.894.893.893 0 01-.894.894zm0 8.349a.893.893 0 11.894-.894.893.893 0 01-.894.894zm0 8.349a.893.893 0 11.894-.894.894.894 0 01-.894.894zm0 8.348a.893.893 0 11.894-.893.893.893 0 01-.894.893zm0 8.349a.893.893 0 11.894-.893.893.893 0 01-.894.893zm0 8.349a.893.893 0 11.894-.893.893.893 0 01-.894.893zm0 8.349a.893.893 0 11.894-.893.893.893 0 01-.894.893zm0 8.348a.893.893 0 11.894-.892.893.893 0 01-.894.893zm0 8.35a.893.893 0 11.894-.894.893.893 0 01-.894.894zm0 8.349a.893.893 0 11.894-.894.893.893 0 01-.894.894zm0 8.349a.893.893 0 11.894-.894.893.893 0 01-.894.894zm0 8.348a.893.893 0 11.894-.893.893.893 0 01-.894.893zm0 8.349a.893.893 0 11.894-.893.893.893 0 01-.894.893zm0 8.349a.893.893 0 11.894-.893.893.893 0 01-.894.893zm-6.849-108.535a.893.893 0 11.894-.894.893.893 0 01-.894.894zm0 8.349a.893.893 0 11.894-.894.893.893 0 01-.894.894zm0 8.349a.893.893 0 11.894-.894.893.893 0 01-.894.894zm0 8.348a.893.893 0 11.894-.893.893.893 0 01-.894.893zm0 8.349a.893.893 0 11.894-.893.893.893 0 01-.894.893zm0 8.349a.893.893 0 11.894-.893.893.893 0 01-.894.893zm0 8.349a.893.893 0 11.894-.893.893.893 0 01-.894.893zm0 8.348a.893.893 0 11.894-.892.893.893 0 01-.894.893zm0 8.35a.893.893 0 11.894-.894.893.893 0 01-.894.894zm0 8.349a.893.893 0 11.894-.894.893.893 0 01-.894.894zm0 8.349a.893.893 0 11.894-.894.893.893 0 01-.894.894zm0 8.348a.893.893 0 11.894-.893.893.893 0 01-.894.893zm0 8.349a.893.893 0 11.894-.893.893.893 0 01-.894.893zm0 8.349a.893.893 0 11.894-.893.893.893 0 01-.894.893zm-6.849-108.535a.893.893 0 11.894-.894.893.893 0 01-.894.894zm0 8.349a.893.893 0 11.894-.894.893.893 0 01-.894.894zm0 8.349a.893.893 0 11.894-.894.893.893 0 01-.894.894zm0 8.348a.893.893 0 11.894-.893.893.893 0 01-.894.893zm0 8.349a.893.893 0 11.894-.893.893.893 0 01-.894.893zm0 8.349a.893.893 0 11.894-.893.893.893 0 01-.894.893zm0 8.349a.893.893 0 11.894-.893.893.893 0 01-.894.893zm0 8.348a.893.893 0 11.894-.892.893.893 0 01-.894.893zm0 8.35a.893.893 0 11.894-.894.893.893 0 01-.894.894zm0 8.349a.893.893 0 11.894-.894.893.893 0 01-.894.894zm0 8.349a.893.893 0 11.894-.894.893.893 0 01-.894.894zm0 8.348a.893.893 0 11.894-.893.893.893 0 01-.894.893zm0 8.349a.893.893 0 11.894-.893.893.893 0 01-.894.893zm0 8.349a.893.893 0 11.894-.893.893.893 0 01-.894.893zm45.716 35.621a.926.926 0 11-.926-.927.926.926 0 01.926.927zm8.659 0a.926.926 0 11-.926-.927.926.926 0 01.926.927zm8.66 0a.927.927 0 11-.927-.927.926.926 0 01.927.927zm8.658 0a.927.927 0 11-.926-.927.926.926 0 01.927.927zm8.66 0a.926.926 0 11-.927-.927.926.926 0 01.926.927zm8.659 0a.926.926 0 11-.927-.927.927.927 0 01.927.927zm8.659 0a.926.926 0 11-.927-.927.926.926 0 01.927.927zm8.659 0a.926.926 0 11-.927-.927.926.926 0 01.927.927zm8.659 0a.926.926 0 11-.927-.927.926.926 0 01.927.927zm8.659 0a.927.927 0 11-.927-.927.926.926 0 01.927.927zm8.659 0a.926.926 0 11-.927-.927.926.926 0 01.927.927zm8.659 0a.927.927 0 11-.927-.927.926.926 0 01.927.927zm8.659 0a.926.926 0 11-.927-.927.927.927 0 01.927.927zm8.659 0a.926.926 0 11-.927-.927.927.927 0 01.927.927zm-112.568 7.103a.926.926 0 11-.926-.926.926.926 0 01.926.926zm8.659 0a.926.926 0 11-.926-.926.926.926 0 01.926.926zm8.66 0a.927.927 0 11-.927-.926.927.927 0 01.927.926zm8.658 0a.927.927 0 11-.926-.926.927.927 0 01.927.926zm8.66 0a.926.926 0 11-.927-.926.926.926 0 01.926.926zm8.659 0a.926.926 0 11-.927-.926.927.927 0 01.927.926zm8.659 0a.926.926 0 11-.927-.926.927.927 0 01.927.926zm8.659 0a.926.926 0 11-.927-.926.926.926 0 01.927.926zm8.659 0a.926.926 0 11-.927-.926.926.926 0 01.927.926zm8.659 0a.927.927 0 11-.927-.926.927.927 0 01.927.926zm8.659 0a.926.926 0 11-.927-.926.926.926 0 01.927.926zm8.659 0a.927.927 0 11-.927-.926.927.927 0 01.927.926zm8.659 0a.926.926 0 11-.927-.926.927.927 0 01.927.926zm8.659 0a.926.926 0 11-.927-.926.927.927 0 01.927.926zm-112.568 7.104a.926.926 0 11-.926-.927.926.926 0 01.926.927zm8.659 0a.926.926 0 11-.926-.927.926.926 0 01.926.927zm8.66 0a.927.927 0 11-.927-.927.926.926 0 01.927.927zm8.658 0a.927.927 0 11-.926-.927.926.926 0 01.927.927zm8.66 0a.926.926 0 11-.927-.927.926.926 0 01.926.927zm8.659 0a.926.926 0 11-.927-.927.926.926 0 01.927.927zm8.659 0a.926.926 0 11-.927-.927.926.926 0 01.927.927zm8.659 0a.926.926 0 11-.927-.927.926.926 0 01.927.927zm8.659 0a.926.926 0 11-.927-.927.926.926 0 01.927.927zm8.659 0a.927.927 0 11-.927-.927.926.926 0 01.927.927zm8.659 0a.926.926 0 11-.927-.927.926.926 0 01.927.927zm8.659 0a.927.927 0 11-.927-.927.926.926 0 01.927.927zm8.659 0a.926.926 0 11-.927-.927.927.927 0 01.927.927zm8.659 0a.926.926 0 11-.927-.927.927.927 0 01.927.927zm-112.568 7.103a.926.926 0 11-.926-.926.926.926 0 01.926.926zm8.659 0a.926.926 0 11-.926-.926.926.926 0 01.926.926zm8.66 0a.927.927 0 11-.927-.926.927.927 0 01.927.926z" fill="#eee"/><circle cx="432.804" cy="412.405" r=".927" fill="#eee"/><path d="M442.39 412.405a.926.926 0 11-.927-.926.926.926 0 01.926.926zm8.659 0a.926.926 0 11-.927-.926.927.927 0 01.927.926zm8.659 0a.926.926 0 11-.927-.926.927.927 0 01.927.926zm8.659 0a.926.926 0 11-.927-.926.926.926 0 01.927.926zm8.659 0a.926.926 0 11-.927-.926.926.926 0 01.927.926zm8.659 0a.927.927 0 11-.927-.926.927.927 0 01.927.926zm8.659 0a.926.926 0 11-.927-.926.926.926 0 01.927.926z" fill="#eee"/><circle cx="502.076" cy="412.405" r=".927" fill="#eee"/><path d="M511.662 412.405a.926.926 0 11-.927-.926.927.927 0 01.927.926zm8.659 0a.926.926 0 11-.927-.926.927.927 0 01.927.926zm-112.568 7.104a.926.926 0 11-.926-.927.926.926 0 01.926.927zm8.659 0a.926.926 0 11-.926-.927.926.926 0 01.926.927zm8.66 0a.927.927 0 11-.927-.927.926.926 0 01.927.927zm8.658 0a.927.927 0 11-.926-.927.926.926 0 01.927.927zm8.66 0a.926.926 0 11-.927-.927.926.926 0 01.926.927zm8.659 0a.926.926 0 11-.927-.927.926.926 0 01.927.927zm8.659 0a.926.926 0 11-.927-.927.926.926 0 01.927.927zm8.659 0a.926.926 0 11-.927-.927.926.926 0 01.927.927zm8.659 0a.926.926 0 11-.927-.927.926.926 0 01.927.927zm8.659 0a.927.927 0 11-.927-.927.926.926 0 01.927.927zm8.659 0a.926.926 0 11-.927-.927.926.926 0 01.927.927zm8.659 0a.927.927 0 11-.927-.927.926.926 0 01.927.927zm8.659 0a.926.926 0 11-.927-.927.927.927 0 01.927.927zm8.659 0a.926.926 0 11-.927-.927.927.927 0 01.927.927zm-112.568 7.103a.926.926 0 11-.926-.926.926.926 0 01.926.926zm8.659 0a.926.926 0 11-.926-.926.926.926 0 01.926.926zm8.66 0a.927.927 0 11-.927-.926.926.926 0 01.927.926zm8.658 0a.927.927 0 11-.926-.926.926.926 0 01.927.926zm8.66 0a.926.926 0 11-.927-.926.926.926 0 01.926.926zm8.659 0a.926.926 0 11-.927-.926.926.926 0 01.927.926zm8.659 0a.926.926 0 11-.927-.926.926.926 0 01.927.926zm8.659 0a.926.926 0 11-.927-.926.926.926 0 01.927.926zm8.659 0a.926.926 0 11-.927-.926.926.926 0 01.927.926zm8.659 0a.927.927 0 11-.927-.926.926.926 0 01.927.926zm8.659 0a.926.926 0 11-.927-.926.926.926 0 01.927.926zm8.659 0a.927.927 0 11-.927-.926.926.926 0 01.927.926zm8.659 0a.926.926 0 11-.927-.926.927.927 0 01.927.926zm8.659 0a.926.926 0 11-.927-.926.927.927 0 01.927.926zm-112.568 7.104a.926.926 0 11-.926-.927.926.926 0 01.926.927zm8.659 0a.926.926 0 11-.926-.927.926.926 0 01.926.927zm8.66 0a.927.927 0 11-.927-.927.927.927 0 01.927.927zm8.658 0a.927.927 0 11-.926-.927.927.927 0 01.927.927zm8.66 0a.926.926 0 11-.927-.927.926.926 0 01.926.927zm8.659 0a.926.926 0 11-.927-.927.927.927 0 01.927.927zm8.659 0a.926.926 0 11-.927-.927.927.927 0 01.927.927zm8.659 0a.926.926 0 11-.927-.927.926.926 0 01.927.927zm8.659 0a.926.926 0 11-.927-.927.926.926 0 01.927.927zm8.659 0a.927.927 0 11-.927-.927.927.927 0 01.927.927zm8.659 0a.926.926 0 11-.927-.927.926.926 0 01.927.927zm8.659 0a.927.927 0 11-.927-.927.927.927 0 01.927.927zm8.659 0a.926.926 0 11-.927-.927.927.927 0 01.927.927zm8.659 0a.926.926 0 11-.927-.927.927.927 0 01.927.927zm-112.568 7.104a.926.926 0 11-.926-.927.926.926 0 01.926.926zm8.659 0a.926.926 0 11-.926-.927.926.926 0 01.926.926zm8.66 0a.927.927 0 11-.927-.927.926.926 0 01.927.926zm8.658 0a.927.927 0 11-.926-.927.926.926 0 01.927.926zm8.66 0a.926.926 0 11-.927-.927.926.926 0 01.926.926zm8.659 0a.926.926 0 11-.927-.927.927.927 0 01.927.926zm8.659 0a.926.926 0 11-.927-.927.926.926 0 01.927.926zm8.659 0a.926.926 0 11-.927-.927.926.926 0 01.927.926zm8.659 0a.926.926 0 11-.927-.927.926.926 0 01.927.926zm8.659 0a.927.927 0 11-.927-.927.926.926 0 01.927.926zm8.659 0a.926.926 0 11-.927-.927.926.926 0 01.927.926zm8.659 0a.927.927 0 11-.927-.927.926.926 0 01.927.926zm8.659 0a.926.926 0 11-.927-.927.927.927 0 01.927.926zm8.659 0a.926.926 0 11-.927-.927.927.927 0 01.927.926zm-112.568 7.103a.926.926 0 11-.926-.927.926.926 0 01.926.927zm8.659 0a.926.926 0 11-.926-.927.926.926 0 01.926.927zm8.66 0a.927.927 0 11-.927-.927.927.927 0 01.927.927zm8.658 0a.927.927 0 11-.926-.927.927.927 0 01.927.927zm8.66 0a.926.926 0 11-.927-.927.926.926 0 01.926.927zm8.659 0a.926.926 0 11-.927-.927.927.927 0 01.927.927zm8.659 0a.926.926 0 11-.927-.927.927.927 0 01.927.927zm8.659 0a.926.926 0 11-.927-.927.926.926 0 01.927.927zm8.659 0a.926.926 0 11-.927-.927.926.926 0 01.927.927zm8.659 0a.927.927 0 11-.927-.927.927.927 0 01.927.927zm8.659 0a.926.926 0 11-.927-.927.926.926 0 01.927.927zm8.659 0a.927.927 0 11-.927-.927.927.927 0 01.927.927zm8.659 0a.926.926 0 11-.927-.927.927.927 0 01.927.927zm8.659 0a.926.926 0 11-.927-.927.927.927 0 01.927.927zm2.811-242.92a.42.42 0 11-.419-.42.42.42 0 01.42.42zm3.922 0a.42.42 0 11-.419-.42.42.42 0 01.42.42zm3.922 0a.42.42 0 11-.42-.42.42.42 0 01.42.42zm3.922 0a.42.42 0 11-.42-.42.42.42 0 01.42.42zm3.922 0a.42.42 0 11-.42-.42.42.42 0 01.42.42zm3.922 0a.42.42 0 11-.42-.42.42.42 0 01.42.42zm3.922 0a.42.42 0 11-.42-.42.42.42 0 01.42.42zm3.922 0a.42.42 0 11-.42-.42.42.42 0 01.42.42zm3.922 0a.42.42 0 11-.42-.42.42.42 0 01.42.42zm3.922 0a.42.42 0 11-.42-.42.42.42 0 01.42.42zm3.922 0a.42.42 0 11-.42-.42.42.42 0 01.42.42zm3.922 0a.42.42 0 11-.42-.42.42.42 0 01.42.42zm3.922 0a.42.42 0 11-.42-.42.42.42 0 01.42.42zm3.922 0a.42.42 0 11-.42-.42.42.42 0 01.42.42zm-50.986 3.217a.42.42 0 11-.419-.419.42.42 0 01.42.42zm3.922 0a.42.42 0 11-.419-.419.42.42 0 01.42.42zm3.922 0a.42.42 0 11-.42-.419.42.42 0 01.42.42zm3.922 0a.42.42 0 11-.42-.419.42.42 0 01.42.42zm3.922 0a.42.42 0 11-.42-.419.42.42 0 01.42.42zm3.922 0a.42.42 0 11-.42-.419.42.42 0 01.42.42zm3.922 0a.42.42 0 11-.42-.419.42.42 0 01.42.42zm3.922 0a.42.42 0 11-.42-.419.42.42 0 01.42.42zm3.922 0a.42.42 0 11-.42-.419.42.42 0 01.42.42zm3.922 0a.42.42 0 11-.42-.419.42.42 0 01.42.42zm3.922 0a.42.42 0 11-.42-.419.42.42 0 01.42.42zm3.922 0a.42.42 0 11-.42-.419.42.42 0 01.42.42zm3.922 0a.42.42 0 11-.42-.419.42.42 0 01.42.42zm3.922 0a.42.42 0 11-.42-.419.42.42 0 01.42.42zm-50.986 3.218a.42.42 0 11-.419-.42.42.42 0 01.42.42zm3.922 0a.42.42 0 11-.419-.42.42.42 0 01.42.42zm3.922 0a.42.42 0 11-.42-.42.42.42 0 01.42.42zm3.922 0a.42.42 0 11-.42-.42.42.42 0 01.42.42zm3.922 0a.42.42 0 11-.42-.42.42.42 0 01.42.42zm3.922 0a.42.42 0 11-.42-.42.42.42 0 01.42.42zm3.922 0a.42.42 0 11-.42-.42.42.42 0 01.42.42zm3.922 0a.42.42 0 11-.42-.42.42.42 0 01.42.42zm3.922 0a.42.42 0 11-.42-.42.42.42 0 01.42.42zm3.922 0a.42.42 0 11-.42-.42.42.42 0 01.42.42zm3.922 0a.42.42 0 11-.42-.42.42.42 0 01.42.42zm3.922 0a.42.42 0 11-.42-.42.42.42 0 01.42.42zm3.922 0a.42.42 0 11-.42-.42.42.42 0 01.42.42zm3.922 0a.42.42 0 11-.42-.42.42.42 0 01.42.42zm-50.986 3.217a.42.42 0 11-.419-.42.42.42 0 01.42.42zm3.922 0a.42.42 0 11-.419-.42.42.42 0 01.42.42z" fill="#eee"/><circle cx="530.557" cy="214.655" r=".42" fill="#eee"/><circle cx="534.479" cy="214.655" r=".42" fill="#eee"/><path d="M538.82 214.655a.42.42 0 11-.42-.42.42.42 0 01.42.42zm3.922 0a.42.42 0 11-.42-.42.42.42 0 01.42.42zm3.922 0a.42.42 0 11-.42-.42.42.42 0 01.42.42zm3.922 0a.42.42 0 11-.42-.42.42.42 0 01.42.42zm3.922 0a.42.42 0 11-.42-.42.42.42 0 01.42.42zm3.922 0a.42.42 0 11-.42-.42.42.42 0 01.42.42zm3.922 0a.42.42 0 11-.42-.42.42.42 0 01.42.42zm3.922 0a.42.42 0 11-.42-.42.42.42 0 01.42.42zm3.922 0a.42.42 0 11-.42-.42.42.42 0 01.42.42zm3.922 0a.42.42 0 11-.42-.42.42.42 0 01.42.42zm-50.986 3.218a.42.42 0 11-.419-.42.42.42 0 01.42.42zm3.922 0a.42.42 0 11-.419-.42.42.42 0 01.42.42zm3.922 0a.42.42 0 11-.42-.42.42.42 0 01.42.42zm3.922 0a.42.42 0 11-.42-.42.42.42 0 01.42.42zm3.922 0a.42.42 0 11-.42-.42.42.42 0 01.42.42zm3.922 0a.42.42 0 11-.42-.42.42.42 0 01.42.42zm3.922 0a.42.42 0 11-.42-.42.42.42 0 01.42.42zm3.922 0a.42.42 0 11-.42-.42.42.42 0 01.42.42zm3.922 0a.42.42 0 11-.42-.42.42.42 0 01.42.42zm3.922 0a.42.42 0 11-.42-.42.42.42 0 01.42.42zm3.922 0a.42.42 0 11-.42-.42.42.42 0 01.42.42zm3.922 0a.42.42 0 11-.42-.42.42.42 0 01.42.42zm3.922 0a.42.42 0 11-.42-.42.42.42 0 01.42.42zm3.922 0a.42.42 0 11-.42-.42.42.42 0 01.42.42zm-50.986 3.217a.42.42 0 11-.419-.42.42.42 0 01.42.42zm3.922 0a.42.42 0 11-.419-.42.42.42 0 01.42.42zm3.922 0a.42.42 0 11-.42-.42.42.42 0 01.42.42zm3.922 0a.42.42 0 11-.42-.42.42.42 0 01.42.42zm3.922 0a.42.42 0 11-.42-.42.42.42 0 01.42.42zm3.922 0a.42.42 0 11-.42-.42.42.42 0 01.42.42zm3.922 0a.42.42 0 11-.42-.42.42.42 0 01.42.42zm3.922 0a.42.42 0 11-.42-.42.42.42 0 01.42.42zm3.922 0a.42.42 0 11-.42-.42.42.42 0 01.42.42zm3.922 0a.42.42 0 11-.42-.42.42.42 0 01.42.42zm3.922 0a.42.42 0 11-.42-.42.42.42 0 01.42.42zm3.922 0a.42.42 0 11-.42-.42.42.42 0 01.42.42zm3.922 0a.42.42 0 11-.42-.42.42.42 0 01.42.42zm3.922 0a.42.42 0 11-.42-.42.42.42 0 01.42.42zm-50.986 3.218a.42.42 0 11-.419-.42.42.42 0 01.42.42zm3.922 0a.42.42 0 11-.419-.42.42.42 0 01.42.42z" fill="#eee"/><circle cx="530.557" cy="224.308" r=".42" fill="#eee"/><circle cx="534.479" cy="224.308" r=".42" fill="#eee"/><path d="M538.82 224.308a.42.42 0 11-.42-.42.42.42 0 01.42.42zm3.922 0a.42.42 0 11-.42-.42.42.42 0 01.42.42zm3.922 0a.42.42 0 11-.42-.42.42.42 0 01.42.42zm3.922 0a.42.42 0 11-.42-.42.42.42 0 01.42.42zm3.922 0a.42.42 0 11-.42-.42.42.42 0 01.42.42zm3.922 0a.42.42 0 11-.42-.42.42.42 0 01.42.42zm3.922 0a.42.42 0 11-.42-.42.42.42 0 01.42.42zm3.922 0a.42.42 0 11-.42-.42.42.42 0 01.42.42zm3.922 0a.42.42 0 11-.42-.42.42.42 0 01.42.42zm3.922 0a.42.42 0 11-.42-.42.42.42 0 01.42.42zm-50.986 3.217a.42.42 0 11-.419-.42.42.42 0 01.42.42zm3.922 0a.42.42 0 11-.419-.42.42.42 0 01.42.42zm3.922 0a.42.42 0 11-.42-.42.42.42 0 01.42.42zm3.922 0a.42.42 0 11-.42-.42.42.42 0 01.42.42zm3.922 0a.42.42 0 11-.42-.42.42.42 0 01.42.42zm3.922 0a.42.42 0 11-.42-.42.42.42 0 01.42.42zm3.922 0a.42.42 0 11-.42-.42.42.42 0 01.42.42zm3.922 0a.42.42 0 11-.42-.42.42.42 0 01.42.42zm3.922 0a.42.42 0 11-.42-.42.42.42 0 01.42.42zm3.922 0a.42.42 0 11-.42-.42.42.42 0 01.42.42zm3.922 0a.42.42 0 11-.42-.42.42.42 0 01.42.42zm3.922 0a.42.42 0 11-.42-.42.42.42 0 01.42.42zm3.922 0a.42.42 0 11-.42-.42.42.42 0 01.42.42zm3.922 0a.42.42 0 11-.42-.42.42.42 0 01.42.42zm-50.986 3.217a.42.42 0 11-.419-.42.42.42 0 01.42.42zm3.922 0a.42.42 0 11-.419-.42.42.42 0 01.42.42z" fill="#eee"/><circle cx="530.557" cy="230.742" r=".42" fill="#eee"/><circle cx="534.479" cy="230.742" r=".42" fill="#eee"/><path d="M538.82 230.742a.42.42 0 11-.42-.42.42.42 0 01.42.42zm3.922 0a.42.42 0 11-.42-.42.42.42 0 01.42.42zm3.922 0a.42.42 0 11-.42-.42.42.42 0 01.42.42zm3.922 0a.42.42 0 11-.42-.42.42.42 0 01.42.42zm3.922 0a.42.42 0 11-.42-.42.42.42 0 01.42.42zm3.922 0a.42.42 0 11-.42-.42.42.42 0 01.42.42zm3.922 0a.42.42 0 11-.42-.42.42.42 0 01.42.42zm3.922 0a.42.42 0 11-.42-.42.42.42 0 01.42.42zm3.922 0a.42.42 0 11-.42-.42.42.42 0 01.42.42zm3.922 0a.42.42 0 11-.42-.42.42.42 0 01.42.42zm59.703-46.803a.782.782 0 11-.782-.782.782.782 0 01.782.782zm7.309 0a.782.782 0 11-.782-.782.782.782 0 01.782.782zm7.308 0a.782.782 0 11-.782-.782.782.782 0 01.782.782zm7.309 0a.782.782 0 11-.782-.782.782.782 0 01.782.782zm7.308 0a.782.782 0 11-.782-.782.782.782 0 01.782.782zm7.309 0a.782.782 0 11-.782-.782.782.782 0 01.782.782zm7.308 0a.782.782 0 11-.782-.782.782.782 0 01.782.782zm7.308 0a.782.782 0 11-.781-.782.782.782 0 01.782.782zm7.309 0a.782.782 0 11-.782-.782.782.782 0 01.782.782zm7.309 0a.782.782 0 11-.782-.782.782.782 0 01.782.782zm7.308 0a.782.782 0 11-.782-.782.782.782 0 01.782.782zm7.309 0a.782.782 0 11-.783-.782.782.782 0 01.783.782zm7.308 0a.782.782 0 11-.782-.782.782.782 0 01.782.782zm7.309 0a.782.782 0 11-.783-.782.782.782 0 01.783.782zm-95.011 5.995a.782.782 0 11-.782-.782.782.782 0 01.782.782zm7.309 0a.782.782 0 11-.782-.782.782.782 0 01.782.782zm7.308 0a.782.782 0 11-.782-.782.782.782 0 01.782.782zm7.309 0a.782.782 0 11-.782-.782.782.782 0 01.782.782zm7.308 0a.782.782 0 11-.782-.782.782.782 0 01.782.782zm7.309 0a.782.782 0 11-.782-.782.782.782 0 01.782.782zm7.308 0a.782.782 0 11-.782-.782.782.782 0 01.782.782zm7.308 0a.782.782 0 11-.781-.782.782.782 0 01.782.782zm7.309 0a.782.782 0 11-.782-.782.782.782 0 01.782.782zm7.309 0a.782.782 0 11-.782-.782.782.782 0 01.782.782zm7.308 0a.782.782 0 11-.782-.782.782.782 0 01.782.782zm7.309 0a.782.782 0 11-.783-.782.782.782 0 01.783.782zm7.308 0a.782.782 0 11-.782-.782.782.782 0 01.782.782zm7.309 0a.782.782 0 11-.783-.782.782.782 0 01.783.782zm-95.011 5.996a.782.782 0 11-.782-.782.782.782 0 01.782.782zm7.309 0a.782.782 0 11-.782-.782.782.782 0 01.782.782zm7.308 0a.782.782 0 11-.782-.782.782.782 0 01.782.782zm7.309 0a.782.782 0 11-.782-.782.782.782 0 01.782.782zm7.308 0a.782.782 0 11-.782-.782.782.782 0 01.782.782zm7.309 0a.782.782 0 11-.782-.782.782.782 0 01.782.782zm7.308 0a.782.782 0 11-.782-.782.782.782 0 01.782.782zm7.308 0a.782.782 0 11-.781-.782.782.782 0 01.782.782zm7.309 0a.782.782 0 11-.782-.782.782.782 0 01.782.782zm7.309 0a.782.782 0 11-.782-.782.782.782 0 01.782.782zm7.308 0a.782.782 0 11-.782-.782.782.782 0 01.782.782zm7.309 0a.782.782 0 11-.783-.782.782.782 0 01.783.782zm7.308 0a.782.782 0 11-.782-.782.782.782 0 01.782.782zm7.309 0a.782.782 0 11-.783-.782.782.782 0 01.783.782zm-95.011 5.995a.782.782 0 11-.782-.782.782.782 0 01.782.782zm7.309 0a.782.782 0 11-.782-.782.782.782 0 01.782.782zm7.308 0a.782.782 0 11-.782-.782.782.782 0 01.782.782zm7.309 0a.782.782 0 11-.782-.782.782.782 0 01.782.782zm7.308 0a.782.782 0 11-.782-.782.782.782 0 01.782.782zm7.309 0a.782.782 0 11-.782-.782.782.782 0 01.782.782zm7.308 0a.782.782 0 11-.782-.782.782.782 0 01.782.782zm7.308 0a.782.782 0 11-.781-.782.782.782 0 01.782.782zm7.309 0a.782.782 0 11-.782-.782.782.782 0 01.782.782zm7.309 0a.782.782 0 11-.782-.782.782.782 0 01.782.782zm7.308 0a.782.782 0 11-.782-.782.782.782 0 01.782.782zm7.309 0a.782.782 0 11-.783-.782.782.782 0 01.783.782zm7.308 0a.782.782 0 11-.782-.782.782.782 0 01.782.782zm7.309 0a.782.782 0 11-.783-.782.782.782 0 01.783.782zm-95.011 5.995a.782.782 0 11-.782-.781.782.782 0 01.782.782zm7.309 0a.782.782 0 11-.782-.781.782.782 0 01.782.782zm7.308 0a.782.782 0 11-.782-.781.782.782 0 01.782.782zm7.309 0a.782.782 0 11-.782-.781.782.782 0 01.782.782zm7.308 0a.782.782 0 11-.782-.781.782.782 0 01.782.782zm7.309 0a.782.782 0 11-.782-.781.782.782 0 01.782.782zm7.308 0a.782.782 0 11-.782-.781.782.782 0 01.782.782zm7.308 0a.782.782 0 11-.781-.781.782.782 0 01.782.782zm7.309 0a.782.782 0 11-.782-.781.782.782 0 01.782.782zm7.309 0a.782.782 0 11-.782-.781.782.782 0 01.782.782zm7.308 0a.782.782 0 11-.782-.781.782.782 0 01.782.782zm7.309 0a.782.782 0 11-.783-.781.782.782 0 01.783.782zm7.308 0a.782.782 0 11-.782-.781.782.782 0 01.782.782zm7.309 0a.782.782 0 11-.783-.781.782.782 0 01.783.782zm-95.011 5.997a.782.782 0 11-.782-.783.782.782 0 01.782.783zm7.309 0a.782.782 0 11-.782-.783.782.782 0 01.782.783zm7.308 0a.782.782 0 11-.782-.783.782.782 0 01.782.783zm7.309 0a.782.782 0 11-.782-.783.782.782 0 01.782.783zm7.308 0a.782.782 0 11-.782-.783.782.782 0 01.782.783zm7.309 0a.782.782 0 11-.782-.783.782.782 0 01.782.783zm7.308 0a.782.782 0 11-.782-.783.782.782 0 01.782.783zm7.308 0a.782.782 0 11-.781-.783.782.782 0 01.782.783zm7.309 0a.782.782 0 11-.782-.783.782.782 0 01.782.783zm7.309 0a.782.782 0 11-.782-.783.782.782 0 01.782.783zm7.308 0a.782.782 0 11-.782-.783.782.782 0 01.782.783zm7.309 0a.782.782 0 11-.783-.783.782.782 0 01.783.783zm7.308 0a.782.782 0 11-.782-.783.782.782 0 01.782.783zm7.309 0a.782.782 0 11-.783-.783.782.782 0 01.783.783zm-95.011 5.995a.782.782 0 11-.782-.782.782.782 0 01.782.782zm7.309 0a.782.782 0 11-.782-.782.782.782 0 01.782.782zm7.308 0a.782.782 0 11-.782-.782.782.782 0 01.782.782zm7.309 0a.782.782 0 11-.782-.782.782.782 0 01.782.782zm7.308 0a.782.782 0 11-.782-.782.782.782 0 01.782.782zm7.309 0a.782.782 0 11-.782-.782.782.782 0 01.782.782zm7.308 0a.782.782 0 11-.782-.782.782.782 0 01.782.782zm7.308 0a.782.782 0 11-.781-.782.782.782 0 01.782.782zm7.309 0a.782.782 0 11-.782-.782.782.782 0 01.782.782zm7.309 0a.782.782 0 11-.782-.782.782.782 0 01.782.782zm7.308 0a.782.782 0 11-.782-.782.782.782 0 01.782.782zm7.309 0a.782.782 0 11-.783-.782.782.782 0 01.783.782zm7.308 0a.782.782 0 11-.782-.782.782.782 0 01.782.782zm7.309 0a.782.782 0 11-.783-.782.782.782 0 01.783.782zm-95.011 5.996a.782.782 0 11-.782-.782.782.782 0 01.782.782zm7.309 0a.782.782 0 11-.782-.782.782.782 0 01.782.782zm7.308 0a.782.782 0 11-.782-.782.782.782 0 01.782.782zm7.309 0a.782.782 0 11-.782-.782.782.782 0 01.782.782zm7.308 0a.782.782 0 11-.782-.782.782.782 0 01.782.782zm7.309 0a.782.782 0 11-.782-.782.782.782 0 01.782.782zm7.308 0a.782.782 0 11-.782-.782.782.782 0 01.782.782zm7.308 0a.782.782 0 11-.781-.782.782.782 0 01.782.782zm7.309 0a.782.782 0 11-.782-.782.782.782 0 01.782.782zm7.309 0a.782.782 0 11-.782-.782.782.782 0 01.782.782zm7.308 0a.782.782 0 11-.782-.782.782.782 0 01.782.782zm7.309 0a.782.782 0 11-.783-.782.782.782 0 01.783.782zm7.308 0a.782.782 0 11-.782-.782.782.782 0 01.782.782zm7.309 0a.782.782 0 11-.783-.782.782.782 0 01.783.782zm-95.011 5.995a.782.782 0 11-.782-.782.782.782 0 01.782.782zm7.309 0a.782.782 0 11-.782-.782.782.782 0 01.782.782zm7.308 0a.782.782 0 11-.782-.782.782.782 0 01.782.782zm7.309 0a.782.782 0 11-.782-.782.782.782 0 01.782.782zm7.308 0a.782.782 0 11-.782-.782.782.782 0 01.782.782zm7.309 0a.782.782 0 11-.782-.782.782.782 0 01.782.782zm7.308 0a.782.782 0 11-.782-.782.782.782 0 01.782.782zm7.308 0a.782.782 0 11-.781-.782.782.782 0 01.782.782zm7.309 0a.782.782 0 11-.782-.782.782.782 0 01.782.782zm7.309 0a.782.782 0 11-.782-.782.782.782 0 01.782.782zm7.308 0a.782.782 0 11-.782-.782.782.782 0 01.782.782zm7.309 0a.782.782 0 11-.783-.782.782.782 0 01.783.782zm7.308 0a.782.782 0 11-.782-.782.782.782 0 01.782.782zm7.309 0a.782.782 0 11-.783-.782.782.782 0 01.783.782zm-97.175 173.835c2.95.865 4.298-3.718 1.343-4.584-2.95-.865-4.298 3.719-1.343 4.584zM605.9 429.51c2.95.865 4.298-3.719 1.343-4.584-2.95-.865-4.298 3.718-1.343 4.584zm29.549-1.085c2.95.864 4.298-3.719 1.343-4.585-2.95-.864-4.298 3.72-1.343 4.585zm17.723-29.605c2.95.864 4.298-3.72 1.343-4.585-2.95-.865-4.298 3.718-1.343 4.584zm-51.562.202c2.95.864 4.298-3.719 1.343-4.585-2.95-.864-4.298 3.719-1.343 4.585zm67.577 33.025c2.95.865 4.298-3.719 1.343-4.584-2.95-.865-4.298 3.718-1.343 4.584zm-21.227 32.059c2.95.865 4.299-3.718 1.344-4.584-2.95-.865-4.298 3.718-1.343 4.584zm34.567 3.169c2.95.865 4.298-3.718 1.344-4.584-2.95-.865-4.299 3.719-1.344 4.584zm25.006-21.208c2.95.865 4.298-3.718 1.343-4.584-2.95-.864-4.298 3.719-1.343 4.584zm15.624-17.693c2.95.865 4.298-3.718 1.344-4.584-2.95-.865-4.299 3.718-1.344 4.584zm-48.333 24.813c2.95.864 4.298-3.72 1.343-4.585-2.95-.864-4.298 3.719-1.343 4.585zm37.33 15.113c2.95.865 4.298-3.718 1.343-4.584-2.95-.864-4.298 3.719-1.343 4.585zm-58.261-26.815c2.95.865 4.298-3.718 1.344-4.584-2.95-.865-4.299 3.718-1.344 4.584zm37.78-24.425c2.95.865 4.299-3.718 1.344-4.584-2.95-.864-4.299 3.72-1.344 4.585zm-24.815 60.935c2.95.865 4.298-3.718 1.344-4.584-2.95-.865-4.299 3.719-1.344 4.584zm5.796-83.907c2.95.864 4.298-3.719 1.343-4.584-2.95-.865-4.298 3.718-1.343 4.584zm-14.832-18.265c2.95.864 4.299-3.719 1.344-4.585-2.95-.864-4.298 3.719-1.344 4.585zm41.253 18.352c2.95.864 4.299-3.72 1.344-4.585-2.95-.864-4.298 3.719-1.344 4.585zm-9.975 50.667c2.95.865 4.299-3.719 1.344-4.584-2.95-.865-4.298 3.718-1.343 4.584zm-38.17-26.496c2.95.864 4.298-3.719 1.343-4.585-2.95-.864-4.298 3.719-1.343 4.585zm19.482-4.731c2.95.864 4.298-3.719 1.343-4.585-2.95-.864-4.298 3.719-1.343 4.585zM17.581 207.7c2.34 1.994 5.442-1.638 3.1-3.636-2.34-1.994-5.443 1.638-3.1 3.636zm-5.807 22.256c2.34 1.994 5.442-1.638 3.099-3.635-2.34-1.995-5.442 1.638-3.1 3.635zm28.271-19.782c2.34 1.994 5.443-1.638 3.1-3.635-2.34-1.994-5.443 1.638-3.1 3.635zm1.043 36.871c2.339 1.995 5.442-1.638 3.099-3.635-2.34-1.994-5.443 1.638-3.1 3.635zm-32.471 20.59c2.339 1.995 5.442-1.638 3.098-3.635-2.339-1.994-5.442 1.638-3.098 3.635zm30.255 17.015c2.34 1.994 5.442-1.638 3.099-3.636-2.34-1.994-5.442 1.638-3.1 3.636zm31.488-9.141c2.34 1.994 5.442-1.639 3.1-3.636-2.34-1.994-5.443 1.638-3.1 3.636zm21.49-9.766c2.339 1.994 5.442-1.639 3.098-3.636-2.339-1.994-5.442 1.638-3.099 3.635zm-54.253 2.9c2.339 1.994 5.442-1.638 3.099-3.635-2.34-1.995-5.443 1.638-3.1 3.635zm27.897 29.047c2.34 1.994 5.443-1.639 3.1-3.636-2.34-1.994-5.443 1.638-3.1 3.636zm-42.221-48.278c2.34 1.994 5.442-1.638 3.1-3.635-2.34-1.995-5.443 1.638-3.1 3.635zm44.462-6.858c2.34 1.994 5.442-1.638 3.099-3.636-2.34-1.994-5.443 1.638-3.1 3.636zM20.19 288.033c2.34 1.994 5.443-1.638 3.1-3.636-2.34-1.994-5.443 1.639-3.1 3.636zm39.57-74.218c2.34 1.994 5.442-1.638 3.1-3.635-2.34-1.995-5.443 1.638-3.1 3.635zm-6.075-22.73c2.34 1.994 5.443-1.639 3.1-3.636-2.34-1.994-5.443 1.638-3.1 3.636zm30.156 33.604c2.34 1.994 5.442-1.638 3.1-3.636-2.34-1.994-5.443 1.638-3.1 3.636zM54.036 266.86c2.34 1.994 5.443-1.639 3.1-3.636-2.34-1.994-5.443 1.638-3.1 3.636zm-24.014-39.779c2.34 1.994 5.442-1.638 3.099-3.636-2.34-1.994-5.442 1.639-3.1 3.636zm19.714 3.641c2.34 1.994 5.443-1.638 3.1-3.636-2.34-1.994-5.443 1.639-3.1 3.636z" fill="#eee"/><circle cx="154.948" cy="311.943" r="28.403" transform="rotate(-6.957 154.948 311.943)" fill="#eee"/><path d="M709.128 122.419l2.842 42.526c.51.035 1.019.05 1.528.048l-2.862-42.825c-.505.066-1.008.148-1.508.25zm-7.441 3.061l2.501 37.422c.518.247 1.04.477 1.571.68l-2.606-38.986c-.498.272-.986.57-1.466.883zm3.694-1.93l2.725 40.773a21.45 21.45 0 001.548.34l-2.784-41.656c-.502.16-.998.344-1.489.542zm-7.317 4.907l2.137 31.976q.78.612 1.6 1.14l-2.302-34.458q-.741.633-1.435 1.342zm-3.505 4.745l1.537 22.994a21.432 21.432 0 001.658 2.001l-1.818-27.199a21.387 21.387 0 00-1.377 2.204zm-1.963 5.015a21.595 21.595 0 00.887 13.27zm36.034-9.961l1.893 28.308a21.526 21.526 0 001.388-2.043l-1.633-24.425a21.52 21.52 0 00-1.647-1.84zm-4.033-3.161l2.348 35.14q.743-.6 1.44-1.275l-2.192-32.794q-.78-.576-1.596-1.07zm8.253 9.097l1.065 15.928a21.53 21.53 0 001.017-7.594l-.063-.943a21.53 21.53 0 00-2.019-7.391zm-16.089-11.955l2.799 41.872c.502-.148 1-.312 1.491-.497l-2.746-41.08a21.557 21.557 0 00-1.544-.295zm-3.84-.25l2.867 42.882a21.67 21.67 0 001.51-.223l-2.85-42.64a21.713 21.713 0 00-1.527-.02zm7.728 1.233l2.633 39.399c.498-.256.99-.528 1.47-.824l-2.537-37.955a21.255 21.255 0 00-1.566-.62zM261.07 149.998l-28.65 17.854c.165.368.345.73.536 1.085l28.852-17.98q-.352-.491-.738-.959zm-4.915-4.056l-25.211 15.71c.02.454.054.905.11 1.352l26.265-16.368a16.848 16.848 0 00-1.164-.694zm2.727 1.86l-27.47 17.118c.1.407.212.81.34 1.208l28.064-17.488c-.3-.29-.613-.569-.934-.838zm-6.159-3.281l-21.543 13.425q-.135.773-.198 1.543l23.214-14.466a17.12 17.12 0 00-1.473-.502zm-4.623-.678l-15.491 9.653a16.998 16.998 0 00-.78 1.906l18.324-11.419a16.959 16.959 0 00-2.053-.14zm-4.236.5a17.104 17.104 0 00-8.94 5.571zm20.405 21.459l-19.072 11.884a17.03 17.03 0 001.945.207l16.456-10.254a17.042 17.042 0 00.67-1.837zm.703-3.998l-23.673 14.752q.696.295 1.427.53l22.093-13.767q.111-.76.153-1.515zm-3.276 9.16l-10.73 6.687a17.051 17.051 0 005.684-2.123l.636-.396a17.054 17.054 0 004.41-4.168zm2.349-15.701l-28.21 17.579c.292.295.592.582.904.856l27.676-17.246a17.057 17.057 0 00-.37-1.189zm-1.258-2.776l-28.89 18.003c.228.333.469.656.72.972l28.726-17.901a17.08 17.08 0 00-.556-1.074zm2.023 5.858l-26.544 16.541c.364.253.737.495 1.124.72l25.57-15.935a16.807 16.807 0 00-.15-1.326zM150.941 68.134l21.433 22.854c.305-.218.602-.447.89-.685L151.683 67.29q-.385.41-.74.845zm-2.804 5.207l18.86 20.111c.41-.1.814-.213 1.21-.345l-19.648-20.95c-.157.386-.295.783-.422 1.184zm1.201-2.818l20.549 21.912c.352-.165.7-.34 1.038-.528L149.93 69.52c-.21.325-.406.66-.593 1.002zm-1.874 6.2l16.116 17.184c.486-.011.966-.045 1.44-.099l-17.365-18.517c-.084.47-.149.948-.19 1.432zm.219 4.331L159.27 93.41a15.758 15.758 0 001.876.365l-13.708-14.617a15.722 15.722 0 00.244 1.895zm1.221 3.766a15.875 15.875 0 006.688 7.131zm15.846-22.455l14.266 15.213a15.798 15.798 0 00-.163-1.808l-12.31-13.126a15.835 15.835 0 00-1.793-.28zm-3.767.083l17.71 18.884q.142-.688.224-1.396L162.39 62.312q-.712.037-1.407.136zm8.931 1.326l8.028 8.56a15.828 15.828 0 00-2.96-4.792l-.476-.507a15.827 15.827 0 00-4.592-3.261zm-14.718.7L176.3 86.976c.216-.318.423-.643.616-.978l-20.703-22.076a15.78 15.78 0 00-1.016.552zm-2.299 1.646l21.611 23.045c.262-.267.513-.544.756-.83l-21.49-22.915c-.3.224-.594.456-.877.7zm4.967-2.9l19.857 21.174c.164-.377.317-.76.451-1.153l-19.128-20.397c-.4.11-.793.237-1.18.377zm585.484-21.025l2.114 2.114-2.114 2.114a.435.435 0 00.615.615l2.114-2.114 2.113 2.114a.435.435 0 00.615-.615l-2.113-2.114 2.114-2.114a.435.435 0 10-.615-.615l-2.114 2.114-2.114-2.114a.435.435 0 00-.615.615zm-17.367 0l2.114 2.114-2.114 2.114a.435.435 0 00.615.615l2.114-2.114 2.114 2.114a.435.435 0 10.615-.615l-2.114-2.114 2.114-2.114a.435.435 0 10-.615-.615l-2.114 2.114-2.114-2.114a.435.435 0 00-.615.615zm-17.366 0l2.114 2.114-2.114 2.114a.435.435 0 00.615.615l2.114-2.114 2.113 2.114a.435.435 0 00.615-.615l-2.114-2.114 2.114-2.114a.435.435 0 10-.615-.615l-2.113 2.114-2.114-2.114a.435.435 0 00-.615.615zm-17.367 0l2.114 2.114-2.114 2.114a.435.435 0 00.615.615l2.114-2.114 2.114 2.114a.435.435 0 00.615-.615l-2.114-2.114 2.114-2.114a.435.435 0 10-.615-.615l-2.114 2.114-2.114-2.114a.435.435 0 00-.615.615zm-17.366 0l2.113 2.114-2.113 2.114a.435.435 0 00.615.615l2.113-2.114 2.114 2.114a.435.435 0 00.615-.615l-2.114-2.114 2.114-2.114a.435.435 0 00-.615-.615l-2.114 2.114-2.113-2.114a.435.435 0 00-.615.615zm-17.367 0l2.114 2.114-2.114 2.114a.435.435 0 00.615.615l2.114-2.114 2.113 2.114a.435.435 0 00.615-.615l-2.114-2.114 2.114-2.114a.435.435 0 10-.615-.615l-2.113 2.114-2.114-2.114a.435.435 0 00-.615.615zm-17.367 0l2.114 2.114-2.114 2.114a.435.435 0 00.615.615l2.114-2.114 2.114 2.114a.435.435 0 00.615-.615l-2.114-2.114 2.114-2.114a.435.435 0 10-.615-.615l-2.114 2.114-2.114-2.114a.435.435 0 00-.615.615zm-17.366 0l2.113 2.114-2.113 2.114a.435.435 0 00.615.615l2.113-2.114 2.114 2.114a.435.435 0 00.615-.615l-2.114-2.114 2.114-2.114a.435.435 0 10-.615-.615l-2.114 2.114-2.113-2.114a.435.435 0 00-.615.615zm-17.367 0l2.114 2.114-2.114 2.114a.435.435 0 00.615.615l2.114-2.114 2.113 2.114a.435.435 0 00.615-.615l-2.113-2.114 2.113-2.114a.435.435 0 10-.615-.615l-2.113 2.114-2.114-2.114a.435.435 0 00-.615.615zm138.933-13.841l2.114 2.114-2.114 2.113a.435.435 0 00.615.615l2.114-2.114 2.113 2.114a.435.435 0 00.615-.615l-2.113-2.114 2.114-2.113a.435.435 0 00-.615-.615l-2.114 2.114-2.114-2.114a.435.435 0 00-.615.615zm-17.367 0l2.114 2.114-2.114 2.113a.435.435 0 00.615.615l2.114-2.114 2.114 2.114a.435.435 0 10.615-.615l-2.114-2.114 2.114-2.113a.435.435 0 00-.615-.615l-2.114 2.114-2.114-2.114a.435.435 0 00-.615.615zm-17.366 0l2.114 2.114-2.114 2.113a.435.435 0 00.615.615l2.114-2.114 2.113 2.114a.435.435 0 00.615-.615l-2.114-2.114 2.114-2.113a.435.435 0 00-.615-.615l-2.113 2.114-2.114-2.114a.435.435 0 00-.615.615zm-17.367 0l2.114 2.114-2.114 2.113a.435.435 0 00.615.615l2.114-2.114 2.114 2.114a.435.435 0 00.615-.615l-2.114-2.114 2.114-2.113a.435.435 0 00-.615-.615l-2.114 2.114-2.114-2.114a.435.435 0 00-.615.615zm-17.366 0l2.113 2.114-2.113 2.113a.435.435 0 00.615.615l2.113-2.114 2.114 2.114a.435.435 0 00.615-.615l-2.114-2.114 2.114-2.113a.435.435 0 00-.615-.615l-2.114 2.114-2.113-2.114a.435.435 0 00-.615.615zm-17.367 0l2.114 2.114-2.114 2.113a.435.435 0 00.615.615l2.114-2.114 2.113 2.114a.435.435 0 00.615-.615l-2.114-2.114 2.114-2.113a.435.435 0 00-.615-.615l-2.113 2.114-2.114-2.114a.435.435 0 00-.615.615zm-17.367 0l2.114 2.114-2.114 2.113a.435.435 0 00.615.615l2.114-2.114 2.114 2.114a.435.435 0 00.615-.615l-2.114-2.114 2.114-2.113a.435.435 0 00-.615-.615l-2.114 2.113-2.114-2.113a.435.435 0 00-.615.615zm-17.366 0l2.113 2.114-2.113 2.113a.435.435 0 00.615.615l2.113-2.114 2.114 2.114a.435.435 0 00.615-.615l-2.114-2.114 2.114-2.113a.435.435 0 00-.615-.615l-2.114 2.114-2.113-2.114a.435.435 0 00-.615.615zm-17.367 0l2.114 2.114-2.114 2.113a.435.435 0 00.615.615l2.114-2.114 2.113 2.114a.435.435 0 00.615-.615l-2.113-2.114 2.113-2.113a.435.435 0 00-.615-.615l-2.113 2.114-2.114-2.114a.435.435 0 00-.615.615zm138.933-13.842l2.114 2.114-2.114 2.114a.435.435 0 00.615.615l2.114-2.114 2.113 2.113a.435.435 0 00.615-.615l-2.113-2.113 2.114-2.114a.435.435 0 00-.615-.615l-2.114 2.114-2.114-2.114a.435.435 0 10-.615.615zm-17.367 0l2.114 2.114-2.114 2.114a.435.435 0 00.615.615l2.114-2.114 2.114 2.113a.435.435 0 10.615-.615l-2.114-2.113 2.114-2.114a.435.435 0 00-.615-.615l-2.114 2.114-2.114-2.114a.435.435 0 10-.615.615zm-17.366 0l2.114 2.114-2.114 2.113a.435.435 0 00.615.615l2.114-2.113 2.113 2.113a.435.435 0 00.615-.615l-2.114-2.113 2.114-2.114a.435.435 0 00-.615-.615l-2.113 2.114-2.114-2.114a.435.435 0 10-.615.615zm-17.367 0l2.114 2.114-2.114 2.114a.435.435 0 00.615.615l2.114-2.114 2.114 2.113a.435.435 0 00.615-.615l-2.114-2.113 2.114-2.114a.435.435 0 00-.615-.615l-2.114 2.114-2.114-2.114a.435.435 0 10-.615.615zm-17.366 0l2.113 2.114-2.113 2.114a.435.435 0 00.615.615l2.113-2.114 2.114 2.113a.435.435 0 00.615-.615l-2.114-2.113 2.114-2.114a.435.435 0 00-.615-.615l-2.114 2.114-2.113-2.114a.435.435 0 10-.615.615zm-17.367 0l2.114 2.114-2.114 2.113a.435.435 0 00.615.615l2.114-2.113 2.113 2.113a.435.435 0 00.615-.615l-2.114-2.113 2.114-2.114a.435.435 0 00-.615-.615l-2.113 2.114-2.114-2.114a.435.435 0 10-.615.615zm-17.367 0l2.114 2.114-2.114 2.114a.435.435 0 00.615.615l2.114-2.114 2.114 2.113a.435.435 0 00.615-.615l-2.114-2.113 2.114-2.114a.435.435 0 00-.615-.615l-2.114 2.114-2.114-2.114a.435.435 0 10-.615.615zm-17.366 0l2.113 2.114-2.113 2.114a.435.435 0 00.615.615l2.113-2.114 2.114 2.113a.435.435 0 00.615-.615l-2.114-2.113 2.114-2.114a.435.435 0 00-.615-.615l-2.114 2.114-2.113-2.114a.435.435 0 10-.615.615zm-17.367 0l2.114 2.114-2.114 2.114a.435.435 0 00.615.615l2.114-2.114 2.113 2.113a.435.435 0 00.615-.615l-2.113-2.113 2.113-2.114a.435.435 0 00-.615-.615l-2.113 2.114-2.114-2.114a.435.435 0 10-.615.615zM743.348.67l2.114 2.114-2.114 2.114a.435.435 0 00.615.615l2.114-2.114 2.113 2.114a.435.435 0 00.615-.615l-2.113-2.114L748.806.67a.435.435 0 00-.615-.615l-2.114 2.114-2.114-2.113a.435.435 0 10-.615.615zm-17.367 0l2.114 2.114-2.114 2.114a.435.435 0 00.615.615l2.114-2.114 2.114 2.114a.435.435 0 10.615-.615l-2.114-2.114L731.44.67a.435.435 0 10-.615-.615L728.71 2.17 726.596.056a.435.435 0 10-.615.615zm-17.366 0l2.114 2.114-2.114 2.114a.435.435 0 00.615.615l2.114-2.114 2.113 2.114a.435.435 0 00.615-.615l-2.114-2.114L714.072.67a.435.435 0 00-.615-.615l-2.113 2.114L709.23.056a.435.435 0 10-.615.615zm-17.367 0l2.114 2.114-2.114 2.114a.435.435 0 00.615.615l2.114-2.114 2.114 2.114a.435.435 0 00.615-.615l-2.114-2.114L696.706.67a.435.435 0 00-.615-.615l-2.114 2.114-2.114-2.113a.435.435 0 10-.615.615zm-17.366 0l2.113 2.114-2.113 2.114a.435.435 0 00.615.615l2.113-2.114 2.114 2.114a.435.435 0 00.615-.615l-2.114-2.114L679.34.67a.435.435 0 00-.615-.615L676.61 2.17 674.497.056a.435.435 0 10-.615.615zm-17.367 0l2.114 2.114-2.114 2.114a.435.435 0 00.615.615l2.114-2.114 2.113 2.114a.435.435 0 00.615-.615l-2.114-2.114L661.972.67a.435.435 0 10-.615-.615l-2.113 2.114L657.13.056a.435.435 0 10-.615.615zm-17.367 0l2.114 2.114-2.114 2.114a.435.435 0 00.615.615l2.114-2.114 2.114 2.114a.435.435 0 00.615-.615l-2.114-2.114L644.606.67a.435.435 0 10-.615-.615l-2.114 2.114-2.114-2.113a.435.435 0 10-.615.615zm-17.366 0l2.113 2.114-2.113 2.114a.435.435 0 00.615.615l2.113-2.114 2.114 2.114a.435.435 0 00.615-.615l-2.114-2.114L627.24.67a.435.435 0 00-.615-.615L624.51 2.17 622.397.056a.435.435 0 10-.615.615zm-17.367 0l2.114 2.114-2.114 2.114a.435.435 0 00.615.615l2.114-2.114 2.113 2.114a.435.435 0 00.615-.615l-2.113-2.114L609.872.67a.435.435 0 00-.615-.615l-2.113 2.114L605.03.056a.435.435 0 10-.615.615zM71.786 455.047l-44.89 17.194 31.897-52.723 12.993 35.529zM361.114 65.514l-44.89 17.193 31.898-52.723 12.992 35.53zM620.72 517.01l-52.013-32.47 54.126-28.81-2.113 61.28zM286.923 117.52l2.114 2.115-2.114 2.113a.435.435 0 00.615.615l2.114-2.114 2.113 2.114a.435.435 0 10.615-.615l-2.113-2.113 2.113-2.114a.435.435 0 00-.615-.615l-2.113 2.114-2.114-2.114a.435.435 0 00-.615.615zm-17.367 0l2.114 2.115-2.114 2.113a.435.435 0 00.615.615l2.114-2.114 2.114 2.114a.435.435 0 00.615-.615l-2.114-2.113 2.114-2.114a.435.435 0 10-.615-.615l-2.114 2.114-2.114-2.114a.435.435 0 00-.615.615zm-17.366 0l2.113 2.115-2.113 2.113a.435.435 0 00.615.615l2.113-2.114 2.114 2.114a.435.435 0 10.615-.615l-2.114-2.113 2.114-2.114a.435.435 0 00-.615-.615l-2.114 2.114-2.113-2.114a.435.435 0 00-.615.615zm-17.367 0l2.114 2.115-2.114 2.113a.435.435 0 10.615.615l2.114-2.114 2.113 2.114a.435.435 0 00.615-.615l-2.113-2.113 2.114-2.114a.435.435 0 00-.615-.615l-2.114 2.114-2.114-2.114a.435.435 0 10-.615.615zm52.1-13.84l2.114 2.113-2.114 2.113a.435.435 0 00.615.615l2.114-2.113 2.113 2.113a.435.435 0 10.615-.614l-2.113-2.114 2.113-2.114a.435.435 0 00-.615-.615l-2.113 2.114-2.114-2.114a.435.435 0 00-.615.615zm-17.367 0l2.114 2.113-2.114 2.113a.435.435 0 00.615.615l2.114-2.113 2.114 2.113a.435.435 0 00.615-.614l-2.114-2.114 2.114-2.114a.435.435 0 10-.615-.615l-2.114 2.114-2.114-2.114a.435.435 0 00-.615.615zm-17.366 0l2.113 2.113-2.113 2.113a.435.435 0 00.615.615l2.113-2.113 2.114 2.113a.435.435 0 10.615-.614l-2.114-2.114 2.114-2.114a.435.435 0 00-.615-.615l-2.114 2.114-2.113-2.114a.435.435 0 00-.615.615zm-17.367 0l2.114 2.113-2.114 2.113a.435.435 0 10.615.615l2.114-2.113 2.113 2.113a.435.435 0 00.615-.614l-2.113-2.114 2.114-2.114a.435.435 0 00-.615-.615l-2.114 2.114-2.114-2.114a.435.435 0 10-.615.615zm52.1-13.842l2.114 2.113-2.114 2.114a.435.435 0 00.615.615l2.114-2.114 2.113 2.114a.435.435 0 10.615-.615l-2.113-2.114 2.113-2.114a.435.435 0 00-.615-.615l-2.113 2.114-2.114-2.113a.435.435 0 00-.615.615zm-17.367 0l2.114 2.113-2.114 2.114a.435.435 0 00.615.615l2.114-2.114 2.114 2.114a.435.435 0 00.615-.615L272.9 91.95l2.114-2.114a.435.435 0 10-.615-.615l-2.114 2.114-2.114-2.113a.435.435 0 00-.615.615zm-17.366 0l2.113 2.113-2.113 2.114a.435.435 0 10.615.615l2.113-2.114 2.114 2.114a.435.435 0 10.615-.615l-2.114-2.114 2.114-2.114a.435.435 0 00-.615-.615l-2.114 2.114-2.113-2.113a.435.435 0 00-.615.615zm-17.367 0l2.114 2.113-2.114 2.114a.435.435 0 10.615.615l2.114-2.114 2.113 2.114a.435.435 0 00.615-.615l-2.113-2.114 2.114-2.114a.435.435 0 00-.615-.615l-2.114 2.114-2.114-2.113a.435.435 0 10-.615.615zm52.1-13.842l2.114 2.114-2.114 2.113a.435.435 0 00.615.615l2.114-2.113 2.113 2.113a.435.435 0 10.615-.615l-2.113-2.113 2.113-2.114a.435.435 0 00-.615-.615l-2.113 2.114-2.114-2.114a.435.435 0 00-.615.615zm-17.367 0l2.114 2.114-2.114 2.113a.435.435 0 00.615.615l2.114-2.113 2.114 2.113a.435.435 0 00.615-.615L272.9 78.11l2.114-2.114a.435.435 0 10-.615-.615l-2.114 2.114-2.114-2.114a.435.435 0 00-.615.615zm-17.366 0l2.113 2.114-2.113 2.113a.435.435 0 10.615.615l2.113-2.113 2.114 2.113a.435.435 0 10.615-.615l-2.114-2.113 2.114-2.114a.435.435 0 00-.615-.615l-2.114 2.114-2.113-2.114a.435.435 0 00-.615.615zm-17.367 0l2.114 2.114-2.114 2.113a.435.435 0 10.615.615l2.114-2.113 2.113 2.113a.435.435 0 00.615-.615l-2.113-2.113 2.114-2.114a.435.435 0 00-.615-.615l-2.114 2.114-2.114-2.114a.435.435 0 10-.615.615zm52.1-13.842l2.114 2.114-2.114 2.114a.435.435 0 00.615.615l2.114-2.114 2.113 2.114a.435.435 0 10.615-.615l-2.113-2.114 2.113-2.114a.435.435 0 00-.615-.615l-2.113 2.114-2.114-2.113a.435.435 0 10-.615.615zm-17.367 0l2.114 2.114-2.114 2.114a.435.435 0 00.615.615l2.114-2.114 2.114 2.114a.435.435 0 00.615-.615l-2.114-2.114 2.114-2.114a.435.435 0 10-.615-.615l-2.114 2.114-2.114-2.113a.435.435 0 10-.615.615zm-17.366 0l2.113 2.114-2.113 2.114a.435.435 0 10.615.615l2.113-2.114 2.114 2.114a.435.435 0 10.615-.615l-2.114-2.114 2.114-2.114a.435.435 0 00-.615-.615l-2.114 2.114-2.113-2.113a.435.435 0 10-.615.615zm-17.367 0l2.114 2.114-2.114 2.114a.435.435 0 10.615.615l2.114-2.114 2.113 2.114a.435.435 0 00.615-.615l-2.113-2.114 2.114-2.114a.435.435 0 00-.615-.615l-2.114 2.114-2.114-2.113a.435.435 0 10-.615.615zm-25.331 337.918a1.54 1.54 0 00-1.574-2.644 1.54 1.54 0 001.574 2.644zm-4.382-12.41a1.54 1.54 0 00-1.573-2.644 1.54 1.54 0 001.574 2.644zm30.085 3.872a1.54 1.54 0 00-1.574-2.644 1.54 1.54 0 001.574 2.644zm-2.405 22.454a1.54 1.54 0 00-1.574-2.644 1.54 1.54 0 001.573 2.644zm-8.882-22.495a1.54 1.54 0 00-1.573-2.644 1.54 1.54 0 001.573 2.644zm19.266-7.999a1.54 1.54 0 00-1.573-2.644 1.54 1.54 0 001.573 2.644zm23.938 25.086a1.54 1.54 0 00-1.574-2.643 1.54 1.54 0 001.574 2.643zm9.059-26.413a1.54 1.54 0 00-1.573-2.644 1.54 1.54 0 001.573 2.644zm-15.434 14.44a1.54 1.54 0 00-1.573-2.645 1.54 1.54 0 001.573 2.645zm-15.09 11.231a1.54 1.54 0 00-1.573-2.644 1.54 1.54 0 001.573 2.644zm5.151-16.579a1.54 1.54 0 00-1.573-2.644 1.54 1.54 0 001.573 2.644zm-25.717 12.3a1.54 1.54 0 00-1.573-2.644 1.54 1.54 0 001.573 2.644zm-6.993-24.369a1.54 1.54 0 00-1.573-2.645 1.54 1.54 0 001.573 2.644zm21.07-12.539a1.54 1.54 0 00-1.573-2.644 1.54 1.54 0 001.573 2.644zm23.155-7.771a1.54 1.54 0 00-1.573-2.645 1.54 1.54 0 001.573 2.644zm-4.953 23.219a1.54 1.54 0 00-1.573-2.645 1.54 1.54 0 001.573 2.645zm-26.56.788a1.54 1.54 0 00-1.573-2.644 1.54 1.54 0 001.573 2.644zm-38.016-13.417a1.54 1.54 0 00-1.574-2.644 1.54 1.54 0 001.574 2.644zm25.836-14.623a1.54 1.54 0 00-1.574-2.644 1.54 1.54 0 001.573 2.644zm36.885 15.303a1.54 1.54 0 00-1.573-2.644 1.54 1.54 0 001.573 2.644zm-38.26-2.472a1.54 1.54 0 00-1.574-2.644 1.54 1.54 0 001.574 2.644zm-10.481-8.78a1.54 1.54 0 00-1.573-2.644 1.54 1.54 0 001.574 2.644zm.387 10.744a1.54 1.54 0 00-1.573-2.644 1.54 1.54 0 001.573 2.644zm-6.945 32.49a1.54 1.54 0 00-1.573-2.645 1.54 1.54 0 001.573 2.645zm8.924 36.446a1.54 1.54 0 00-1.573-2.644 1.54 1.54 0 001.573 2.644zm-28.448 2.662a1.54 1.54 0 00-1.573-2.643 1.54 1.54 0 001.573 2.644zm16.992-16.867a1.54 1.54 0 00-1.574-2.644 1.54 1.54 0 001.574 2.644zm13.294-4.157a1.54 1.54 0 00-1.574-2.644 1.54 1.54 0 001.574 2.644zm22.426 9.93a1.54 1.54 0 00-1.573-2.644 1.54 1.54 0 001.573 2.644zm-14.874-17.427a1.54 1.54 0 00-1.574-2.644 1.54 1.54 0 001.573 2.644zm-21.914 1.027a1.54 1.54 0 00-1.573-2.644 1.54 1.54 0 001.573 2.644zm-20.8-31.17a1.54 1.54 0 00-1.574-2.644 1.54 1.54 0 001.574 2.644zm-7.249 15.576a1.54 1.54 0 00-1.574-2.644 1.54 1.54 0 001.574 2.644zm15.729-.062a1.54 1.54 0 00-1.573-2.644 1.54 1.54 0 001.574 2.644zm-5.388 21.226a1.54 1.54 0 00-1.574-2.644 1.54 1.54 0 001.574 2.644zm14.834-36.896a1.54 1.54 0 00-1.573-2.644 1.54 1.54 0 001.573 2.644zm-20.286-20.213a1.54 1.54 0 00-1.574-2.644 1.54 1.54 0 001.574 2.644zm18.944-6.017a1.54 1.54 0 00-1.574-2.644 1.54 1.54 0 001.573 2.644zM455.236 42.947a1.54 1.54 0 00-1.573-2.643 1.54 1.54 0 001.573 2.643zm-4.381-12.409a1.54 1.54 0 00-1.573-2.644 1.54 1.54 0 001.573 2.644zm30.085 3.872a1.54 1.54 0 00-1.574-2.644 1.54 1.54 0 001.573 2.644zm-2.406 22.454a1.54 1.54 0 00-1.574-2.644 1.54 1.54 0 001.574 2.644zm-8.881-22.495a1.54 1.54 0 00-1.574-2.644 1.54 1.54 0 001.574 2.644zm19.266-7.999a1.54 1.54 0 00-1.574-2.644 1.54 1.54 0 001.574 2.644zm23.937 25.086a1.54 1.54 0 00-1.573-2.644 1.54 1.54 0 001.573 2.644zm9.06-26.413a1.54 1.54 0 00-1.574-2.644 1.54 1.54 0 001.574 2.644zm-15.434 14.44a1.54 1.54 0 00-1.573-2.644 1.54 1.54 0 001.573 2.644zm-15.09 11.231a1.54 1.54 0 00-1.573-2.644 1.54 1.54 0 001.573 2.644zm5.151-16.579a1.54 1.54 0 00-1.574-2.644 1.54 1.54 0 001.574 2.644zm-25.717 12.3a1.54 1.54 0 00-1.573-2.644 1.54 1.54 0 001.573 2.644zm-6.993-24.37a1.54 1.54 0 00-1.574-2.644 1.54 1.54 0 001.574 2.644zm21.07-12.538a1.54 1.54 0 00-1.574-2.644 1.54 1.54 0 001.574 2.644zm23.155-7.772a1.54 1.54 0 00-1.573-2.644 1.54 1.54 0 001.573 2.644zm-4.953 23.219a1.54 1.54 0 00-1.574-2.644 1.54 1.54 0 001.574 2.645zm-26.56.789a1.54 1.54 0 00-1.574-2.644 1.54 1.54 0 001.574 2.644zm-38.017-13.417a1.54 1.54 0 00-1.573-2.644 1.54 1.54 0 001.573 2.644zm62.722.68a1.54 1.54 0 00-1.573-2.644 1.54 1.54 0 001.573 2.644zm-38.26-2.472a1.54 1.54 0 00-1.574-2.644 1.54 1.54 0 001.573 2.644zm-10.48-8.78a1.54 1.54 0 00-1.574-2.644 1.54 1.54 0 001.573 2.644zm.386 10.744a1.54 1.54 0 00-1.573-2.644 1.54 1.54 0 001.573 2.644zm-6.946 32.49a1.54 1.54 0 00-1.573-2.645 1.54 1.54 0 001.574 2.645zm8.925 36.446a1.54 1.54 0 00-1.573-2.644 1.54 1.54 0 001.573 2.644zm-28.448 2.663a1.54 1.54 0 00-1.573-2.644 1.54 1.54 0 001.573 2.644zm16.992-16.868a1.54 1.54 0 00-1.574-2.644 1.54 1.54 0 001.574 2.644zm13.293-4.157a1.54 1.54 0 00-1.573-2.644 1.54 1.54 0 001.573 2.644zm22.427 9.93a1.54 1.54 0 00-1.573-2.644 1.54 1.54 0 001.573 2.644zm-14.875-17.427a1.54 1.54 0 00-1.573-2.644 1.54 1.54 0 001.573 2.644zm-21.914 1.027a1.54 1.54 0 00-1.573-2.644 1.54 1.54 0 001.574 2.644zm-20.8-31.17a1.54 1.54 0 00-1.573-2.644 1.54 1.54 0 001.573 2.644zm-7.249 15.576a1.54 1.54 0 00-1.573-2.644 1.54 1.54 0 001.573 2.644zm15.73-.062a1.54 1.54 0 00-1.573-2.644 1.54 1.54 0 001.573 2.644zm-5.388 21.226a1.54 1.54 0 00-1.574-2.644 1.54 1.54 0 001.574 2.644zm14.834-36.896a1.54 1.54 0 00-1.573-2.644 1.54 1.54 0 001.573 2.644zM419.19 5.083a1.54 1.54 0 00-1.573-2.644 1.54 1.54 0 001.573 2.644zm291.462 362.379l-4.926-33.396c-.404.005-.808.025-1.21.058l4.961 33.631c.395-.084.787-.18 1.175-.293zm5.682-2.885l-4.335-29.389a16.967 16.967 0 00-1.283-.438l4.516 30.616a16.8 16.8 0 001.102-.79zm-2.795 1.756l-4.723-32.02a17.03 17.03 0 00-1.243-.17l4.825 32.712c.386-.159.766-.334 1.141-.522zm5.468-4.336l-3.704-25.111q-.655-.434-1.336-.799l3.991 27.06q.545-.546 1.049-1.15zm2.468-3.967l-2.664-18.058a17.005 17.005 0 00-1.436-1.475l3.151 21.36a16.953 16.953 0 00.949-1.828zm1.233-4.084a17.104 17.104 0 00-1.537-10.42zm-27.822 10.137l-3.279-22.23a17.022 17.022 0 00-.967 1.7l2.83 19.181a17.019 17.019 0 001.416 1.35zm3.384 2.242l-4.07-27.595q-.548.52-1.057 1.096l3.8 25.754q.652.405 1.328.745zm-7.09-6.662l-1.845-12.508a17.051 17.051 0 00-.324 6.06l.11.74a17.052 17.052 0 002.06 5.708zm13.457 8.424l-4.85-32.882c-.387.148-.77.309-1.147.486l4.76 32.26c.411.062.824.105 1.237.136zm3.047-.044l-4.967-33.676c-.396.076-.789.167-1.179.27l4.94 33.487c.403-.014.806-.04 1.206-.082zm-6.178-.486l-4.564-30.94c-.377.232-.748.478-1.109.742l4.397 29.806c.421.15.847.277 1.276.392z" fill="#eee"/><path fill="#666bff" d="M296.446 279.472l-30.409 53.245-30.907-52.957 61.316-.288z"/><path fill="none" stroke="#fff" stroke-miterlimit="10" d="M296.145 292.926l-30.409 53.245-30.907-52.957 61.316-.288z"/><path fill="#666bff" d="M607.473 72.276l59.344 15.428-43.033 43.679-16.311-59.107z"/><path fill="none" stroke="#fff" stroke-miterlimit="10" d="M620.537 69.048l59.344 15.428-43.032 43.679-16.312-59.107z"/><path fill="#666bff" d="M655.552 272.57l53.541 29.885-52.652 31.425-.889-61.31z"/><path fill="#fff" opacity=".3" d="M655.552 272.57l53.541 29.885-52.652 31.425-.889-61.31z"/><path fill="none" stroke="#fff" stroke-miterlimit="10" d="M669.009 272.738l53.54 29.886-52.652 31.424-.888-61.31z"/><path fill="#666bff" d="M88.218 451.241l53.541 29.886-52.652 31.424-.889-61.31z"/><path fill="none" stroke="#0ff" stroke-miterlimit="10" d="M101.675 451.41l53.54 29.886-52.652 31.424-.888-61.31z"/><path fill="#666bff" d="M320.134 476.144l-59.003 31.477 2.242-66.838 56.761 35.361z"/><path fill="#fff" opacity=".3" d="M320.134 476.144l-59.003 31.477 2.242-66.838 56.761 35.361z"/><path fill="none" stroke="#fff" stroke-miterlimit="10" d="M314.444 463.57l-59.004 31.477 2.242-66.837 56.762 35.36z"/></g></svg>