<svg id="OBJECTS" xmlns="http://www.w3.org/2000/svg" xmlns:xlink="http://www.w3.org/1999/xlink" viewBox="0 0 500 500"><defs><style>.cls-1{fill:#414042;}.cls-2{fill:#999eff;}.cls-3{clip-path:url(#clip-path);}.cls-4,.cls-6{fill:#d1d3d4;}.cls-5{fill:#333aff;}.cls-6{stroke:#333aff;stroke-linecap:round;stroke-linejoin:round;stroke-width:3.3px;}.cls-7{fill:#666bff;}.cls-8{fill:#e6e7e8;}.cls-9{mask:url(#mask);}.cls-10{clip-path:url(#clip-path-2);}.cls-11{filter:url(#luminosity-noclip);}</style><clipPath id="clip-path"><circle class="cls-1" cx="240.96" cy="266.78" r="211.24"/></clipPath><filter id="luminosity-noclip" x="317.29" y="-8442" width="54.08" height="32766" filterUnits="userSpaceOnUse" color-interpolation-filters="sRGB"><feFlood flood-color="#fff" result="bg"/><feBlend in="SourceGraphic" in2="bg"/></filter><mask id="mask" x="317.29" y="-8442" width="54.08" height="32766" maskUnits="userSpaceOnUse"><g class="cls-11"/></mask><clipPath id="clip-path-2"><circle class="cls-2" cx="446.37" cy="265.02" r="38.48" transform="translate(-71.35 226.91) rotate(-26.49)"/></clipPath></defs><circle class="cls-1" cx="240.96" cy="266.78" r="211.24"/><g class="cls-3"><path class="cls-4" d="M227.47,513.62c-13.81,0-31.11-1.36-35.07-7.83a6.18,6.18,0,0,1,0-6.34c12.22-24,7.68-57,3.28-88.83-4.07-29.5-8.28-60,1.33-82.59,6.84-16.06,22.89-24.91,45.2-24.91,33.16,0,72.36,19,82.23,39.91,11.7,24.76-5,55.22-17.26,77.47-4.11,7.48-7.66,13.94-9.79,19.35-8.56,21.71-4.7,61-4.66,61.43a1.66,1.66,0,0,1-.93,1.66L287.42,505c-10.3,4.84-36.63,8.62-59.94,8.62Z"/><path class="cls-5" d="M242.2,304.77c32.48,0,71.3,19,80.73,39,15.05,31.83-18.28,73.15-27.09,95.5s-4.77,62.21-4.77,62.21l-4.35,2.06c-10.25,4.81-37,8.46-59.25,8.46-20.95,0-37.95-3.23-33.61-11.77,24-47.06-15-125.39,4.66-171.52,7.33-17.2,24.38-23.91,43.68-23.91m0-3.3c-23,0-39.6,9.2-46.72,25.91-9.79,23-5.55,53.74-1.45,83.46,4.36,31.63,8.88,64.33-3.11,87.86a7.91,7.91,0,0,0,.07,8c3.5,5.71,15.78,8.61,36.48,8.61,23.53,0,50.17-3.85,60.65-8.77l4.38-2.07a3.3,3.3,0,0,0,1.86-3.31c0-.39-3.85-39.33,4.56-60.67,2.09-5.3,5.61-11.72,9.7-19.15,12.39-22.56,29.36-53.46,17.3-79-10.1-21.38-50-40.85-83.72-40.85Z"/><path class="cls-4" d="M268.06,235l-.26,0a1.67,1.67,0,0,1-1.17-.79l-21.35-36.11a1.65,1.65,0,0,1,.25-2c.16-.17,17.06-17.26,32.08-28.4A19.19,19.19,0,0,1,289,163.63a16.83,16.83,0,0,1,14,7.84c3.9,6,4.27,13.64,1,21.05-8,18.28-33.82,41.11-34.91,42.07A1.66,1.66,0,0,1,268.06,235Z"/><path class="cls-5" d="M289,165.28c11.13,0,19.67,12.63,13.55,26.58-8,18.15-34.49,41.49-34.49,41.49L246.7,197.24s16.8-17,31.89-28.23A17.44,17.44,0,0,1,289,165.28m0-3.3a20.86,20.86,0,0,0-12.38,4.37c-15.12,11.22-31.58,27.87-32.27,28.57a3.3,3.3,0,0,0-.49,4L265.21,235a3.29,3.29,0,0,0,2.33,1.58,3,3,0,0,0,.52,0,3.34,3.34,0,0,0,2.18-.82c1.1-1,27.17-24,35.34-42.64,3.48-7.93,3.06-16.18-1.15-22.62A18.5,18.5,0,0,0,289,162Z"/><path class="cls-4" d="M305.69,254.52c-3.75,0-7.56-1.87-11.34-5.57-5.45-5.34-7.14-13.25-4.89-22.87a51.34,51.34,0,0,1,4.9-12.66c2.91-6.81,7.69-10.4,13.83-10.4a22.13,22.13,0,0,1,10.54,3.1c13.71,7.53,9.75,20.75,5.58,30-5.47,12.19-11.74,18.37-18.62,18.37Z"/><path class="cls-5" d="M308.19,204.67a20.53,20.53,0,0,1,9.74,2.89c10.19,5.61,10.73,14.89,4.88,27.91-4.1,9.13-9.83,17.4-17.12,17.4-3.11,0-6.51-1.51-10.18-5.1-12.28-12,.33-33.61.33-33.61,2.62-6.19,6.88-9.49,12.35-9.49m0-3.3c-6.73,0-12.16,4-15.31,11.32a53.09,53.09,0,0,0-5,13c-2.39,10.22-.55,18.67,5.35,24.43,4.09,4,8.3,6,12.49,6,7.59,0,14.36-6.51,20.13-19.34,2.56-5.7,10.34-23-6.3-32.16a23.72,23.72,0,0,0-11.33-3.3Z"/><path class="cls-4" d="M327.81,287.68a14.43,14.43,0,0,1-5.58-1.14c-11.54-4.8-10.56-21.14-10.52-21.83,0-.06,0-.11,0-.17,4.78-27.92,15-33.79,22.81-33.79,4,0,8.13,1.58,12.26,4.7,11.2,8.45,4.56,24.17,1,32.62-.78,1.86-1.46,3.48-1.78,4.56a23.51,23.51,0,0,1-6.18,9.65c-2.56,2.47-6.72,5.4-12,5.4Z"/><path class="cls-5" d="M334.54,232.41c3.74,0,7.58,1.58,11.27,4.36,12.48,9.41.43,29.06-1.39,35.4-1.54,5.32-8.24,13.86-16.61,13.86a12.76,12.76,0,0,1-4.95-1c-10.57-4.39-9.5-20.19-9.5-20.19,4-23.39,12.28-32.41,21.18-32.41m0-3.31c-4,0-9.94,1.53-15.12,8.83-4.2,5.91-7.34,14.77-9.32,26.33,0,.11,0,.22,0,.34-.05.74-1.09,18.22,11.53,23.46a16,16,0,0,0,6.22,1.27c9.85,0,17.82-9.43,19.78-16.25.29-1,1-2.55,1.72-4.37,3.74-8.86,10.71-25.36-1.51-34.58-4.43-3.34-8.89-5-13.26-5Z"/><path class="cls-4" d="M353.18,306.22a15.09,15.09,0,0,1-12.5-7.07c-3.32-5-3.68-11.5-1-17.68,5.19-12,11.8-14.51,16.43-14.51a11.22,11.22,0,0,1,4.95,1.07c11.66,5.79,13.47,13.24,6.63,27.47-3.27,6.81-8.56,10.72-14.51,10.72Z"/><path class="cls-5" d="M356.11,268.61a9.72,9.72,0,0,1,4.18.88c10.64,5.29,12.48,11.61,5.91,25.3-3.33,6.93-8.28,9.78-13,9.78-9,0-17.24-10.32-12-22.45,4.91-11.31,11-13.51,14.92-13.51m0-3.3c-5.12,0-12.4,2.69-17.95,15.5-2.9,6.71-2.49,13.72,1.14,19.25a16.73,16.73,0,0,0,13.88,7.81c6.61,0,12.44-4.25,16-11.65,7.25-15.11,5.18-23.43-7.41-29.68a13.07,13.07,0,0,0-5.66-1.23Z"/><path class="cls-6" d="M192.94,503.51s9.05-42.86,3-67.73-25.15-41.33-29.34-67.61-7.29-71.71-20.77-89.87-19.26-19.38-13-30.75,30.22-1.71,46.43,20,20.53,45.81,28.36,61.84,34.83,52.86,43.63,60.48,23.54,11.92,29.1,19.42"/><path class="cls-7" d="M260.17,400.15a13.58,13.58,0,0,1-10.85-5.45L102.58,196.89a13.51,13.51,0,0,1,2.8-18.88L202,106.33a13.5,13.5,0,0,1,18.87,2.8L367.62,307a13.49,13.49,0,0,1-2.8,18.87L268.2,397.5A13.43,13.43,0,0,1,260.17,400.15Z"/><path class="cls-5" d="M210,105.16a12,12,0,0,1,9.65,4.86L366.42,307.83a12,12,0,0,1-2.49,16.8L267.32,396.3a12,12,0,0,1-16.81-2.49L103.77,196a12,12,0,0,1,2.49-16.8l96.62-71.67a11.93,11.93,0,0,1,7.15-2.37m0-3h0a14.87,14.87,0,0,0-8.92,3L104.5,176.82a15,15,0,0,0-3.11,21L248.13,395.58a15.05,15.05,0,0,0,12,6.06,14.84,14.84,0,0,0,8.91-2.95L365.7,327a15,15,0,0,0,3.11-20.95L222.07,108.25a15.08,15.08,0,0,0-12-6.06Z"/><path class="cls-2" d="M178.48,145.75,149.22,167.6a2.54,2.54,0,0,1-3.54-.52h0a2.52,2.52,0,0,1,.51-3.54l29.26-21.85a2.53,2.53,0,0,1,3.54.52h0A2.52,2.52,0,0,1,178.48,145.75Z"/><rect class="cls-2" x="176.82" y="142.75" width="116.56" height="218.32" rx="6.38" transform="translate(-103.81 189.66) rotate(-36.57)"/><path class="cls-8" d="M196.63,233.73c.33-.92.66-1.84,1-2.77a17.39,17.39,0,0,1,7.43-9.19,6.67,6.67,0,0,1,7-.26,21.47,21.47,0,0,1,11.71,14.65c1,4.13-.06,5.82-3.89,7.64-.62.3-1.2.66-1.7.93L234.68,265c.43-.54,1-1.25,1.56-2,1.91-2.52,4-3.37,6.89-2.14,7.12,3,11.61,8.37,13.09,16.05a6.18,6.18,0,0,1-1.82,5.6c-5.15,5.37-11.49,6.58-18.47,5-10.28-2.31-18.12-8.53-24.93-16.19-6.68-7.5-11.8-15.91-13.89-25.88-.5-2.38-.64-4.82-1-7.23C196.32,236.75,196.48,235.24,196.63,233.73Zm43.72,49.73a13,13,0,0,0,9.69-3.24,3.53,3.53,0,0,0,1.16-4.48,19.75,19.75,0,0,0-6.78-8.91c-2.86-2.08-3.31-2-5.57.64-2.8,3.25-6.25,3.31-8.91.06q-7.63-9.34-15.15-18.77a7.23,7.23,0,0,1-1.44-3.1c-.48-2.6,1-4.69,4.24-6,1.65-.66,2-1.56,1.47-3.07A17.92,17.92,0,0,0,210.3,226a3.51,3.51,0,0,0-2.89,0,11.78,11.78,0,0,0-5.44,6.79,22.77,22.77,0,0,0,.14,13.43c3.55,12.44,11,22.24,21.09,30.08A33,33,0,0,0,240.35,283.46Z"/><path class="cls-8" d="M271.55,250.38c-.06.59-.08.82-.11,1.05-.2,1.68-1.12,2.62-2.5,2.55-1.54-.08-2.27-1.11-2.3-2.89a57.87,57.87,0,0,0-.42-8.85,31.87,31.87,0,0,0-27.37-26c-2.15-.28-3-1.15-2.82-2.76s1.37-2.29,3.44-2a36.87,36.87,0,0,1,32.06,36.24C271.53,248.76,271.55,249.75,271.55,250.38Z"/><path class="cls-8" d="M237.87,223.77a24.64,24.64,0,0,1,21.36,26.14c-.13,1.9-1.07,2.9-2.63,2.78s-2.24-1.1-2.14-3a19.84,19.84,0,0,0-17.24-21.28c-1.88-.28-2.68-1.16-2.46-2.69S236.09,223.53,237.87,223.77Z"/><path class="cls-8" d="M246.87,248.83c-.14,1.79-1,2.65-2.41,2.58s-2.25-.94-2.23-2.69q.06-6.51-6.66-8.09c-1.87-.45-2.83-2.11-1.78-3.47a3.33,3.33,0,0,1,2.49-1C242.51,236.55,247.39,242.5,246.87,248.83Z"/></g><circle class="cls-7" cx="48.94" cy="175.45" r="42.43" transform="translate(-56.76 27.11) rotate(-19.89)"/><path class="cls-4" d="M62.2,172.36c.95,3,2.39,4.12,4.35,3.51,3.41-1.07,3.31-5.19,2-9.49-3.55-11.45-14.79-17.24-26.8-13.51s-18.87,16-15.24,27.69a22,22,0,0,0,27.81,14.3A22.9,22.9,0,0,0,66.39,186l5.37,4.36a29.83,29.83,0,0,1-15.42,10.82c-15.61,4.86-31.85-3-36.68-18.54s4.17-31.17,20-36.09c15.61-4.85,30.79,2.49,35.47,17.53,2.6,8.35,1.3,15.76-6.92,18.31-4.74,1.47-8.1.72-10.51-1.24a13,13,0,0,1-8.05,6.87c-7.08,2.21-14.5-1.8-16.86-9.38s1.48-15.09,8.56-17.29a13.14,13.14,0,0,1,7.87-.09l-.47-1.52,8.73-2.72Zm-8.35,3.23a31.57,31.57,0,0,1-1.25-3.36l-1-3.1A7.2,7.2,0,0,0,45.39,168a6.22,6.22,0,0,0-4,8,6.11,6.11,0,0,0,7.83,4.22A7.31,7.31,0,0,0,53.85,175.59Z"/><path class="cls-4" d="M134.75,109.15a9.83,9.83,0,1,1,12.91,4.22A9.57,9.57,0,0,1,134.75,109.15Zm-5.7-15.83L105.17,47.75l17.17-8.34L143.4,86.35Z"/><g class="cls-9"><path class="cls-7" d="M331.43,136.59l37.64,13.87a3.52,3.52,0,0,1,2.09,4.51l-9.41,25.54a3.51,3.51,0,0,1-4.51,2.08l-21.49-7.92-15.47,4.85a.85.85,0,0,1-1.27-.47l6-8.33-5.42-2a3.51,3.51,0,0,1-2.08-4.51l9.4-25.54A3.53,3.53,0,0,1,331.43,136.59Z"/></g><path class="cls-5" d="M243,29.11H358.51a10.12,10.12,0,0,1,10.11,10.12v78.34a10.11,10.11,0,0,1-10.11,10.11H292.6L223.15,182a2.45,2.45,0,0,1-3.91,0l40.4-54.33H243a10.11,10.11,0,0,1-10.12-10.11V39.23A10.12,10.12,0,0,1,243,29.11Z"/><path class="cls-2" d="M346.93,62.18H253.22a3.88,3.88,0,0,1-3.88-3.88h0a3.88,3.88,0,0,1,3.88-3.88h93.71a3.88,3.88,0,0,1,3.88,3.88h0A3.88,3.88,0,0,1,346.93,62.18Z"/><path class="cls-2" d="M346.93,81.16H253.22a3.88,3.88,0,0,1-3.88-3.88h0a3.88,3.88,0,0,1,3.88-3.88h93.71a3.88,3.88,0,0,1,3.88,3.88h0A3.88,3.88,0,0,1,346.93,81.16Z"/><path class="cls-2" d="M346.93,100.13H253.22a3.88,3.88,0,0,1-3.88-3.88h0a3.88,3.88,0,0,1,3.88-3.87h93.71a3.88,3.88,0,0,1,3.88,3.87h0A3.88,3.88,0,0,1,346.93,100.13Z"/><path class="cls-4" d="M428.27,114.75l10.4,3.17c7.1,2.17,13.8-.22,15.93-7.19,2-6.47-1.15-12.14-7.87-14.19S434.5,97.1,432,103l-19.91-6.08c6-16,20-23.58,39.24-17.69,17.75,5.42,27.41,20.58,22.29,37.32-4.11,13.44-16.2,19.45-31.91,16.87l-2.89,7.16-15.6-4.76Zm-14.51,38.41a11.3,11.3,0,0,1,14.29-7.28c6.09,1.86,9.77,8,7.91,14.06s-8.33,9.11-14.42,7.25A11.3,11.3,0,0,1,413.76,153.16Z"/><path class="cls-4" d="M22.06,329.28h68a6,6,0,0,1,6,6v46.14a6,6,0,0,1-6,6H51.27l-8.56,11.45a1.43,1.43,0,0,1-2.3,0l-8.56-11.45H22.06a6,6,0,0,1-5.95-6V335.24A6,6,0,0,1,22.06,329.28Z"/><path class="cls-7" d="M139,312.15H71a6,6,0,0,0-6,6v46.14a6,6,0,0,0,6,5.95h38.82l8.55,11.46a1.43,1.43,0,0,0,2.3,0l8.56-11.46H139a6,6,0,0,0,6-5.95V318.11A6,6,0,0,0,139,312.15Z"/><rect class="cls-2" x="354.74" y="353.49" width="116.55" height="60.92" rx="3.13" transform="translate(98.6 -84.18) rotate(13.2)"/><polygon class="cls-7" points="411.76 389.31 471.46 366.37 368.5 342.22 411.76 389.31"/><circle class="cls-7" cx="446.37" cy="265.02" r="47.13" transform="translate(34.36 580.83) rotate(-68.17)"/><circle class="cls-2" cx="446.37" cy="265.02" r="38.48" transform="translate(-71.35 226.91) rotate(-26.49)"/><g class="cls-10"><path class="cls-4" d="M465.2,256.79a13.13,13.13,0,1,1-6.94-17.22A13.13,13.13,0,0,1,465.2,256.79Z"/><path class="cls-4" d="M440.06,322.49,409.31,309.4l14.06-33a16.71,16.71,0,0,1,21.92-8.83h0a16.71,16.71,0,0,1,8.83,21.93Z"/></g></svg>