<svg xmlns="http://www.w3.org/2000/svg" viewBox="0 0 500 500"><defs><style>.cls-1{isolation:isolate;}.cls-2{fill:#e00e05;}.cls-3,.cls-8{fill:#1a1a1a;}.cls-3{opacity:0.16;mix-blend-mode:darken;}.cls-4{fill:#a80a03;}.cls-5{fill:#4d4e4e;}.cls-6{fill:gray;}.cls-7{fill:#ff3e36;}.cls-8{opacity:0.29;mix-blend-mode:multiply;}</style></defs><g class="cls-1"><g id="OBJECTS"><path class="cls-2" d="M355.45,398.23V274.69A104.58,104.58,0,0,0,250.87,170.11h0A104.58,104.58,0,0,0,146.3,274.69V398.23Z"/><path class="cls-3" d="M275.28,374.34V345.51a24.41,24.41,0,0,0-24.41-24.41h0a24.41,24.41,0,0,0-24.41,24.41v28.83Z"/><path class="cls-4" d="M381.32,411.1V384.63a10.93,10.93,0,0,0-10.93-10.93H134.59a10.93,10.93,0,0,0-10.93,10.93V411.1Z"/><path class="cls-5" d="M397.48,438.12V408.34a12.3,12.3,0,0,0-12.3-12.3H119.8a12.3,12.3,0,0,0-12.3,12.3v29.78Z"/><path class="cls-6" d="M164.35,409.11H146.4a4.36,4.36,0,1,1,0-8.71h17.95a4.36,4.36,0,1,1,0,8.71Z"/><path class="cls-6" d="M254.38,409.11H193.07a4.36,4.36,0,1,1,0-8.71h61.31a4.36,4.36,0,1,1,0,8.71Z"/><path class="cls-2" d="M196,386.06H134.68a4.36,4.36,0,1,1,0-8.71H196a4.36,4.36,0,0,1,0,8.71Z"/><path class="cls-7" d="M154.66,360.66V272.52a6.44,6.44,0,0,1,5.89-6.51,6.28,6.28,0,0,1,6.67,6.27v88.13a6.46,6.46,0,0,1-5.89,6.52A6.29,6.29,0,0,1,154.66,360.66Z"/><path class="cls-7" d="M196.54,198.94a6.44,6.44,0,0,0-8.77.44L184.2,203l-4,4-3.74,3.74a6.28,6.28,0,0,0,.28,9.15,6.45,6.45,0,0,0,8.78-.44l3.56-3.56,4-4,3.73-3.74A6.28,6.28,0,0,0,196.54,198.94Z"/><path class="cls-6" d="M116.21,421a4.35,4.35,0,0,1-4.35-4.35v-4.57a11.7,11.7,0,0,1,11.69-11.69h2.1a4.36,4.36,0,1,1,0,8.71h-2.1a3,3,0,0,0-3,3v4.57A4.36,4.36,0,0,1,116.21,421Z"/><path class="cls-8" d="M385.18,396h-3.86V384.63a10.93,10.93,0,0,0-10.93-10.93H355.45v-99A104.58,104.58,0,0,0,250.87,170.11h0a104.74,104.74,0,0,0-25.28,3.09,104.61,104.61,0,0,1,79.28,101.49v99h14.94a10.94,10.94,0,0,1,10.94,10.93V396h3.85a12.31,12.31,0,0,1,12.31,12.3v29.78h50.57V408.34A12.3,12.3,0,0,0,385.18,396Z"/><path class="cls-7" d="M362.18,189h0a7.75,7.75,0,0,1,0-11l21.11-21.12a7.78,7.78,0,0,1,11,0h0a7.79,7.79,0,0,1,0,11L373.16,189A7.75,7.75,0,0,1,362.18,189Z"/><path class="cls-7" d="M139.58,189h0a7.77,7.77,0,0,0,0-11l-21.12-21.12a7.77,7.77,0,0,0-11,0h0a7.76,7.76,0,0,0,0,11L128.59,189A7.76,7.76,0,0,0,139.58,189Z"/><path class="cls-7" d="M164,169h0a7.76,7.76,0,0,1-10.76-2.19L116,110.7a7.76,7.76,0,0,1,2.19-10.76h0A7.76,7.76,0,0,1,129,102.13l37.17,56.12A7.77,7.77,0,0,1,164,169Z"/><path class="cls-7" d="M382.11,213.35h0a7.77,7.77,0,0,1,2.19-10.77l56.12-37.17a7.78,7.78,0,0,1,10.77,2.19h0A7.78,7.78,0,0,1,449,178.37l-56.12,37.16A7.78,7.78,0,0,1,382.11,213.35Z"/><path class="cls-7" d="M120,212.89h0A7.77,7.77,0,0,1,109.18,215l-56-37.37A7.76,7.76,0,0,1,51,166.9h0a7.76,7.76,0,0,1,10.77-2.15l56,37.37A7.76,7.76,0,0,1,120,212.89Z"/><path class="cls-7" d="M338.24,169.32h0a7.76,7.76,0,0,1-2.15-10.77l37.36-56a7.78,7.78,0,0,1,10.78-2.15h0a7.8,7.8,0,0,1,2.15,10.78l-37.37,56A7.76,7.76,0,0,1,338.24,169.32Z"/><path class="cls-7" d="M250.88,142.85h0a7.77,7.77,0,0,1-7.77-7.77V67.77A7.77,7.77,0,0,1,250.88,60h0a7.77,7.77,0,0,1,7.76,7.77v67.31A7.76,7.76,0,0,1,250.88,142.85Z"/><path class="cls-7" d="M408.28,300.25h0a7.76,7.76,0,0,1,7.76-7.77h67.32a7.77,7.77,0,0,1,7.77,7.77h0a7.77,7.77,0,0,1-7.77,7.77H416A7.76,7.76,0,0,1,408.28,300.25Z"/><path class="cls-7" d="M93.48,300.25h0a7.77,7.77,0,0,0-7.77-7.77H18.39a7.76,7.76,0,0,0-7.76,7.77h0A7.77,7.77,0,0,0,18.39,308H85.71A7.77,7.77,0,0,0,93.48,300.25Z"/><path class="cls-7" d="M282.22,146h0a7.76,7.76,0,0,1-6.06-9.16l5.94-29.26a7.77,7.77,0,0,1,9.16-6.06h0a7.75,7.75,0,0,1,6.07,9.15l-5.95,29.27A7.76,7.76,0,0,1,282.22,146Z"/><path class="cls-7" d="M405.12,331.6h0a7.78,7.78,0,0,1,9.16-6.07l29.27,6a7.76,7.76,0,0,1,6.06,9.16h0a7.76,7.76,0,0,1-9.16,6.06l-29.26-5.95A7.77,7.77,0,0,1,405.12,331.6Z"/><path class="cls-7" d="M96.63,268.91h0a7.77,7.77,0,0,0-6.07-9.16L61.3,253.8a7.78,7.78,0,0,0-9.16,6.07h0A7.76,7.76,0,0,0,58.21,269l29.26,6A7.78,7.78,0,0,0,96.63,268.91Z"/><path class="cls-7" d="M220.07,145.89h0a7.77,7.77,0,0,1-9.14-6.09l-5.84-29.29a7.76,7.76,0,0,1,6.1-9.13h0a7.74,7.74,0,0,1,7.53,2.7,7.62,7.62,0,0,1,1.6,3.39l5.85,29.29A7.76,7.76,0,0,1,220.07,145.89Z"/><path class="cls-7" d="M405.23,269.45h0a7.76,7.76,0,0,1,6.1-9.13l29.28-5.85a7.77,7.77,0,0,1,9.14,6.1h0a7.76,7.76,0,0,1-6.09,9.14l-29.29,5.84A7.77,7.77,0,0,1,405.23,269.45Z"/><path class="cls-7" d="M96.52,331.06h0a7.77,7.77,0,0,0-9.14-6.1L58.1,330.8a7.77,7.77,0,0,0-6.1,9.14h0a7.76,7.76,0,0,0,5.39,5.92,7.64,7.64,0,0,0,3.75.18l29.28-5.85A7.76,7.76,0,0,0,96.52,331.06Z"/></g></g></svg>