<svg xmlns="http://www.w3.org/2000/svg" xmlns:xlink="http://www.w3.org/1999/xlink" viewBox="0 0 251.94 194.35"><defs><linearGradient id="_ÂÁ_Ï_ÌÌ_È_ËÂÌÚ_377" x1="69.37" y1="96.69" x2="123.85" y2="96.69" gradientUnits="userSpaceOnUse"><stop offset="0" stop-color="#a31fa9"/><stop offset=".07" stop-color="#8b17a0"/><stop offset=".15" stop-color="#740f98"/><stop offset=".24" stop-color="#640a92"/><stop offset=".34" stop-color="#5b078f"/><stop offset=".48" stop-color="#58068e"/><stop offset=".63" stop-color="#4d22a3"/><stop offset=".94" stop-color="#3168da"/><stop offset="1" stop-color="#2c75e4"/></linearGradient><linearGradient id="_ÂÁ_Ï_ÌÌ_È_ËÂÌÚ_388" x1="69.37" y1="102.92" x2="123.85" y2="102.92" gradientUnits="userSpaceOnUse"><stop offset="0" stop-color="#d4088c"/><stop offset=".23" stop-color="#d4088c"/><stop offset=".51" stop-color="#6ee1f8"/><stop offset=".78" stop-color="#6ee8fc"/><stop offset="1" stop-color="#6ee8fc"/></linearGradient><linearGradient id="_ÂÁ_Ï_ÌÌ_È_ËÂÌÚ_300" x1="327.26" y1="714.28" x2="352.95" y2="692.03" gradientTransform="matrix(.87 .5 -1 .58 504.11 -485.69)" gradientUnits="userSpaceOnUse"><stop offset="0" stop-color="#8d139b"/><stop offset=".17" stop-color="#851ba1"/><stop offset=".43" stop-color="#6e33b2"/><stop offset=".76" stop-color="#4958cd"/><stop offset="1" stop-color="#2979e4"/></linearGradient><linearGradient id="_ÂÁ_Ï_ÌÌ_È_ËÂÌÚ_302" x1="330.61" y1="711.38" x2="349.74" y2="694.81" gradientTransform="matrix(.87 .5 -1 .58 504.11 -485.69)" gradientUnits="userSpaceOnUse"><stop offset="0" stop-color="#630692"/><stop offset=".23" stop-color="#5b0e94"/><stop offset=".59" stop-color="#432399"/><stop offset="1" stop-color="#2142a1"/></linearGradient><linearGradient id="_ÂÁ_Ï_ÌÌ_È_ËÂÌÚ_377-2" x1="69.37" y1="82.88" x2="123.85" y2="82.88" xlink:href="#_ÂÁ_Ï_ÌÌ_È_ËÂÌÚ_377"/><linearGradient id="_ÂÁ_Ï_ÌÌ_È_ËÂÌÚ_388-2" x1="69.37" y1="89.12" x2="123.85" y2="89.12" xlink:href="#_ÂÁ_Ï_ÌÌ_È_ËÂÌÚ_388"/><linearGradient id="_ÂÁ_Ï_ÌÌ_È_ËÂÌÚ_300-2" x1="313.45" y1="702.33" x2="339.15" y2="680.07" xlink:href="#_ÂÁ_Ï_ÌÌ_È_ËÂÌÚ_300"/><linearGradient id="_ÂÁ_Ï_ÌÌ_È_ËÂÌÚ_302-2" x1="316.8" y1="699.42" x2="335.94" y2="682.86" xlink:href="#_ÂÁ_Ï_ÌÌ_È_ËÂÌÚ_302"/><linearGradient id="_ÂÁ_Ï_ÌÌ_È_ËÂÌÚ_377-3" x1="69.37" y1="59.21" x2="123.85" y2="59.21" xlink:href="#_ÂÁ_Ï_ÌÌ_È_ËÂÌÚ_377"/><linearGradient id="_ÂÁ_Ï_ÌÌ_È_ËÂÌÚ_337" x1="69.37" y1="65.45" x2="123.85" y2="65.45" gradientUnits="userSpaceOnUse"><stop offset="0" stop-color="#d4088c"/><stop offset=".23" stop-color="#d4088c"/><stop offset=".51" stop-color="#231f20"/><stop offset=".78" stop-color="#6ee8fc"/><stop offset="1" stop-color="#6ee8fc"/></linearGradient><linearGradient id="_ÂÁ_Ï_ÌÌ_È_ËÂÌÚ_300-3" x1="289.78" y1="681.83" x2="315.48" y2="659.57" xlink:href="#_ÂÁ_Ï_ÌÌ_È_ËÂÌÚ_300"/><linearGradient id="_ÂÁ_Ï_ÌÌ_È_ËÂÌÚ_302-3" x1="293.13" y1="678.93" x2="312.27" y2="662.36" xlink:href="#_ÂÁ_Ï_ÌÌ_È_ËÂÌÚ_302"/><linearGradient id="_ÂÁ_Ï_ÌÌ_È_ËÂÌÚ_377-4" x1="69.37" y1="35.29" x2="123.85" y2="35.29" xlink:href="#_ÂÁ_Ï_ÌÌ_È_ËÂÌÚ_377"/><linearGradient id="_ÂÁ_Ï_ÌÌ_È_ËÂÌÚ_337-2" x1="69.37" y1="41.52" x2="123.85" y2="41.52" xlink:href="#_ÂÁ_Ï_ÌÌ_È_ËÂÌÚ_337"/><linearGradient id="_ÂÁ_Ï_ÌÌ_È_ËÂÌÚ_300-4" x1="265.86" y1="661.11" x2="291.56" y2="638.86" xlink:href="#_ÂÁ_Ï_ÌÌ_È_ËÂÌÚ_300"/><linearGradient id="_ÂÁ_Ï_ÌÌ_È_ËÂÌÚ_302-4" x1="269.21" y1="658.21" x2="288.34" y2="641.64" xlink:href="#_ÂÁ_Ï_ÌÌ_È_ËÂÌÚ_302"/><linearGradient id="_ÂÁ_Ï_ÌÌ_È_ËÂÌÚ_370" x1="95.96" y1="35.92" x2="95.96" y2="1.86" xlink:href="#_ÂÁ_Ï_ÌÌ_È_ËÂÌÚ_371"/><linearGradient id="_ÂÁ_Ï_ÌÌ_È_ËÂÌÚ_384" x1="95.96" y1="35.29" x2="95.96" y2="6.76" gradientUnits="userSpaceOnUse"><stop offset=".01" stop-color="#70e8fc"/><stop offset=".15" stop-color="#5ab5cf"/><stop offset=".3" stop-color="#4584a3"/><stop offset=".46" stop-color="#335a7e"/><stop offset=".6" stop-color="#253a62"/><stop offset=".75" stop-color="#1b244d"/><stop offset=".88" stop-color="#151641"/><stop offset="1" stop-color="#13113d"/></linearGradient><linearGradient id="_ÂÁ_Ï_ÌÌ_È_ËÂÌÚ_377-5" x1="48.71" y1="131.3" x2="103.19" y2="131.3" xlink:href="#_ÂÁ_Ï_ÌÌ_È_ËÂÌÚ_377"/><linearGradient id="_ÂÁ_Ï_ÌÌ_È_ËÂÌÚ_388-3" x1="48.71" y1="137.54" x2="103.19" y2="137.54" xlink:href="#_ÂÁ_Ï_ÌÌ_È_ËÂÌÚ_388"/><linearGradient id="_ÂÁ_Ï_ÌÌ_È_ËÂÌÚ_300-5" x1="349.94" y1="754.58" x2="375.64" y2="732.33" xlink:href="#_ÂÁ_Ï_ÌÌ_È_ËÂÌÚ_300"/><linearGradient id="_ÂÁ_Ï_ÌÌ_È_ËÂÌÚ_302-5" x1="353.29" y1="751.68" x2="372.43" y2="735.11" xlink:href="#_ÂÁ_Ï_ÌÌ_È_ËÂÌÚ_302"/><linearGradient id="_ÂÁ_Ï_ÌÌ_È_ËÂÌÚ_377-6" x1="48.71" y1="117.5" x2="103.19" y2="117.5" xlink:href="#_ÂÁ_Ï_ÌÌ_È_ËÂÌÚ_377"/><linearGradient id="_ÂÁ_Ï_ÌÌ_È_ËÂÌÚ_388-4" x1="48.71" y1="123.73" x2="103.19" y2="123.73" xlink:href="#_ÂÁ_Ï_ÌÌ_È_ËÂÌÚ_388"/><linearGradient id="_ÂÁ_Ï_ÌÌ_È_ËÂÌÚ_300-6" x1="336.14" y1="742.63" x2="361.84" y2="720.38" xlink:href="#_ÂÁ_Ï_ÌÌ_È_ËÂÌÚ_300"/><linearGradient id="_ÂÁ_Ï_ÌÌ_È_ËÂÌÚ_302-6" x1="339.49" y1="739.73" x2="358.62" y2="723.16" xlink:href="#_ÂÁ_Ï_ÌÌ_È_ËÂÌÚ_302"/><linearGradient id="_ÂÁ_Ï_ÌÌ_È_ËÂÌÚ_377-7" x1="48.71" y1="93.83" x2="103.19" y2="93.83" xlink:href="#_ÂÁ_Ï_ÌÌ_È_ËÂÌÚ_377"/><linearGradient id="_ÂÁ_Ï_ÌÌ_È_ËÂÌÚ_337-3" x1="48.71" y1="100.06" x2="103.19" y2="100.06" xlink:href="#_ÂÁ_Ï_ÌÌ_È_ËÂÌÚ_337"/><linearGradient id="_ÂÁ_Ï_ÌÌ_È_ËÂÌÚ_300-7" x1="312.47" y1="722.13" x2="338.17" y2="699.88" xlink:href="#_ÂÁ_Ï_ÌÌ_È_ËÂÌÚ_300"/><linearGradient id="_ÂÁ_Ï_ÌÌ_È_ËÂÌÚ_302-7" x1="315.82" y1="719.23" x2="334.95" y2="702.66" xlink:href="#_ÂÁ_Ï_ÌÌ_È_ËÂÌÚ_302"/><linearGradient id="_ÂÁ_Ï_ÌÌ_È_ËÂÌÚ_370-2" x1="75.3" y1="94.46" x2="75.3" y2="36.13" xlink:href="#_ÂÁ_Ï_ÌÌ_È_ËÂÌÚ_371"/><linearGradient id="_ÂÁ_Ï_ÌÌ_È_ËÂÌÚ_384-2" x1="75.3" y1="93.83" x2="75.3" y2="41.04" xlink:href="#_ÂÁ_Ï_ÌÌ_È_ËÂÌÚ_384"/><linearGradient id="_ÂÁ_Ï_ÌÌ_È_ËÂÌÚ_422" x1="168.89" y1="106.82" x2="173.92" y2="138.61" gradientUnits="userSpaceOnUse"><stop offset="0" stop-color="#6ee8fc"/><stop offset=".22" stop-color="#6ee8fc"/><stop offset=".49" stop-color="#6ee1f8"/><stop offset=".77" stop-color="#d4088c"/><stop offset="1" stop-color="#d4088c"/></linearGradient><linearGradient id="_ÂÁ_Ï_ÌÌ_È_ËÂÌÚ_377-8" x1="143.45" y1="117.67" x2="200.72" y2="117.67" xlink:href="#_ÂÁ_Ï_ÌÌ_È_ËÂÌÚ_377"/><linearGradient id="_ÂÁ_Ï_ÌÌ_È_ËÂÌÚ_388-5" x1="143.45" y1="124.22" x2="200.72" y2="124.22" xlink:href="#_ÂÁ_Ï_ÌÌ_È_ËÂÌÚ_388"/><linearGradient id="_ÂÁ_Ï_ÌÌ_È_ËÂÌÚ_300-8" x1="390.8" y1="695.03" x2="417.81" y2="671.63" xlink:href="#_ÂÁ_Ï_ÌÌ_È_ËÂÌÚ_300"/><linearGradient id="_ÂÁ_Ï_ÌÌ_È_ËÂÌÚ_422-2" x1="120.93" y1="135.5" x2="125.96" y2="167.28" xlink:href="#_ÂÁ_Ï_ÌÌ_È_ËÂÌÚ_422"/><linearGradient id="_ÂÁ_Ï_ÌÌ_È_ËÂÌÚ_377-9" x1="95.5" y1="146.34" x2="152.77" y2="146.34" xlink:href="#_ÂÁ_Ï_ÌÌ_È_ËÂÌÚ_377"/><linearGradient id="_ÂÁ_Ï_ÌÌ_È_ËÂÌÚ_388-6" x1="95.5" y1="152.9" x2="152.77" y2="152.9" xlink:href="#_ÂÁ_Ï_ÌÌ_È_ËÂÌÚ_388"/><linearGradient id="_ÂÁ_Ï_ÌÌ_È_ËÂÌÚ_300-9" x1="391.79" y1="743.84" x2="418.8" y2="720.44" xlink:href="#_ÂÁ_Ï_ÌÌ_È_ËÂÌÚ_300"/><linearGradient id="_ÂÁ_Ï_ÌÌ_È_ËÂÌÚ_302-8" x1="395.31" y1="740.79" x2="415.42" y2="723.37" xlink:href="#_ÂÁ_Ï_ÌÌ_È_ËÂÌÚ_302"/><linearGradient id="_ÂÁ_Ï_ÌÌ_È_ËÂÌÚ_370-3" x1="123.45" y1="147.01" x2="123.45" y2="121.67" xlink:href="#_ÂÁ_Ï_ÌÌ_È_ËÂÌÚ_371"/><linearGradient id="_ÂÁ_Ï_ÌÌ_È_ËÂÌÚ_370-4" x1="123.45" y1="147.01" x2="123.45" y2="86.12" xlink:href="#_ÂÁ_Ï_ÌÌ_È_ËÂÌÚ_371"/><linearGradient id="_ÂÁ_Ï_ÌÌ_È_ËÂÌÚ_384-3" x1="123.45" y1="146.35" x2="123.45" y2="91.23" xlink:href="#_ÂÁ_Ï_ÌÌ_È_ËÂÌÚ_384"/><clipPath id="clip-path" transform="translate(0 -1.86)"><path class="cls-1" d="M94.48 106.3L66.19 90c-.82-.47-.88-88.32.06-88.86L93.84.45A3.53 3.53 0 0197 .32l27.69.78c.82.47 1.73 88.45.8 89l-27.84 16.07a3.52 3.52 0 01-3.17.13z"/></clipPath><clipPath id="clip-path-2" transform="translate(0 -1.86)"><path class="cls-1" d="M94.64 97l-10.25-5.88c-.73-.42-.64-1.15.2-1.64l9.84-5.68a3.14 3.14 0 012.84-.12l10.25 5.92c.73.42.64 1.16-.2 1.64l-9.84 5.68a3.14 3.14 0 01-2.84.08z"/></clipPath><clipPath id="clip-path-3" transform="translate(0 -1.86)"><path class="cls-1" d="M94.64 83.24l-10.25-5.92c-.73-.42-.64-1.16.2-1.64L94.43 70a3.14 3.14 0 012.84-.12l10.25 5.92c.73.42.64 1.15-.2 1.64l-9.84 5.68a3.18 3.18 0 01-2.84.12z"/></clipPath><clipPath id="clip-path-4" transform="translate(0 -1.86)"><path class="cls-1" d="M94.64 59.56l-10.25-5.91c-.73-.42-.64-1.16.2-1.64l9.84-5.68a3.14 3.14 0 012.84-.12l10.25 5.91c.73.42.64 1.16-.2 1.65l-9.84 5.68a3.14 3.14 0 01-2.84.11z"/></clipPath><clipPath id="clip-path-5" transform="translate(0 -1.86)"><path class="cls-1" d="M94.64 35.64l-10.25-5.92c-.73-.42-.64-1.15.2-1.64l9.84-5.68a3.14 3.14 0 012.84-.12l10.25 5.92c.73.42.64 1.16-.2 1.64l-9.84 5.68a3.14 3.14 0 01-2.84.12z"/></clipPath><clipPath id="clip-path-6" transform="translate(0 -1.86)"><path class="cls-1" d="M73.83 140.91l-28.3-16.33c-.81-.47-.88-90.76.06-91.31l27.59.23a3.53 3.53 0 013.17-.13l27.7-.1c.81.47 1.73 90.9.79 91.44L77 140.78a3.53 3.53 0 01-3.17.13z"/></clipPath><clipPath id="clip-path-7" transform="translate(0 -1.86)"><path class="cls-1" d="M74 131.65l-10.25-5.91c-.73-.42-.64-1.16.2-1.64l9.84-5.68a3.16 3.16 0 012.85-.12l10.24 5.91c.73.43.64 1.16-.2 1.65l-9.84 5.68a3.14 3.14 0 01-2.84.11z"/></clipPath><clipPath id="clip-path-8" transform="translate(0 -1.86)"><path class="cls-1" d="M74 117.85l-10.25-5.92c-.73-.42-.64-1.15.2-1.64l9.84-5.68a3.2 3.2 0 012.85-.12l10.24 5.92c.73.42.64 1.16-.2 1.64l-9.84 5.68a3.14 3.14 0 01-2.84.12z"/></clipPath><clipPath id="clip-path-9" transform="translate(0 -1.86)"><path class="cls-1" d="M74 94.18l-10.27-5.92c-.73-.42-.64-1.15.2-1.64l9.84-5.68a3.16 3.16 0 012.85-.12l10.24 5.92c.73.42.64 1.15-.2 1.64l-9.84 5.68a3.14 3.14 0 01-2.82.12z"/></clipPath><clipPath id="clip-path-10" transform="translate(0 -1.86)"><path class="cls-1" d="M122.06 146.71l-10.77-6.22c-.77-.44-.67-1.21.21-1.72l10.35-6a3.28 3.28 0 013-.13l10.78 6.22c.76.44.67 1.22-.22 1.73l-10.34 6a3.3 3.3 0 01-3.01.12z"/></clipPath><radialGradient id="_ÂÁ_Ï_ÌÌ_È_ËÂÌÚ_371" cx="-2915.55" cy="141.12" r="46.38" gradientTransform="matrix(.87 .5 -.87 .5 2786.95 1539.82)" gradientUnits="userSpaceOnUse"><stop offset=".01" stop-color="#25bfec"/><stop offset=".05" stop-color="#24b4e1"/><stop offset=".22" stop-color="#1f83b0"/><stop offset=".39" stop-color="#1b5a86"/><stop offset=".56" stop-color="#173a66"/><stop offset=".72" stop-color="#152350"/><stop offset=".87" stop-color="#131642"/><stop offset="1" stop-color="#13113d"/></radialGradient><radialGradient id="_ÂÁ_Ï_ÌÌ_È_ËÂÌÚ_371-2" cx="-2919.06" cy="87.95" r="46.38" xlink:href="#_ÂÁ_Ï_ÌÌ_È_ËÂÌÚ_371"/><radialGradient id="_ÂÁ_Ï_ÌÌ_È_ËÂÌÚ_374" cx="81.98" cy="73.58" r="32.24" gradientTransform="rotate(45 81.98283 73.5784)" gradientUnits="userSpaceOnUse"><stop offset=".01" stop-color="#d4088c"/><stop offset=".1" stop-color="#b70980"/><stop offset=".26" stop-color="#860c6c"/><stop offset=".42" stop-color="#5c0e5b"/><stop offset=".58" stop-color="#3c0f4e"/><stop offset=".73" stop-color="#261045"/><stop offset=".87" stop-color="#18113f"/><stop offset="1" stop-color="#13113d"/></radialGradient><radialGradient id="_ÂÁ_Ï_ÌÌ_È_ËÂÌÚ_371-3" cx="673.91" cy="286.2" r="23.95" gradientTransform="matrix(1.01 0 0 2.19 -562.35 -554.34)" xlink:href="#_ÂÁ_Ï_ÌÌ_È_ËÂÌÚ_371"/><radialGradient id="_ÂÁ_Ï_ÌÌ_È_ËÂÌÚ_374-2" cx="61.32" cy="106.34" r="32.24" xlink:href="#_ÂÁ_Ï_ÌÌ_È_ËÂÌÚ_374"/><radialGradient id="_ÂÁ_Ï_ÌÌ_È_ËÂÌÚ_371-4" cx="653.39" cy="301.97" r="23.95" gradientTransform="matrix(1.01 0 0 2.19 -562.35 -554.34)" xlink:href="#_ÂÁ_Ï_ÌÌ_È_ËÂÌÚ_371"/><style>.cls-1{fill:none}.cls-2{isolation:isolate}.cls-3{opacity:.1}.cls-4{fill:#2c75e4}.cls-12,.cls-44,.cls-5,.cls-6,.cls-76{opacity:.4}.cls-12,.cls-13,.cls-32,.cls-38,.cls-42,.cls-43,.cls-44,.cls-45,.cls-5,.cls-58,.cls-6,.cls-61,.cls-62,.cls-76,.cls-77,.cls-78{mix-blend-mode:lighten}.cls-5{fill:url(#_ÂÁ_Ï_ÌÌ_È_ËÂÌÚ_371)}.cls-6{fill:url(#_ÂÁ_Ï_ÌÌ_È_ËÂÌÚ_371-2)}.cls-7,.cls-8{fill:#6ee8fc}.cls-13,.cls-45,.cls-7{opacity:.3}.cls-9{fill:#fff}.cls-10{fill:#071033}.cls-11{fill:#0d143a}.cls-12{fill:url(#_ÂÁ_Ï_ÌÌ_È_ËÂÌÚ_374)}.cls-13{fill:url(#_ÂÁ_Ï_ÌÌ_È_ËÂÌÚ_371-3)}.cls-14{clip-path:url(#clip-path)}.cls-15{fill:url(#_ÂÁ_Ï_ÌÌ_È_ËÂÌÚ_377)}.cls-16{fill:url(#_ÂÁ_Ï_ÌÌ_È_ËÂÌÚ_388)}.cls-17{fill:#d4088c}.cls-18{fill:url(#_ÂÁ_Ï_ÌÌ_È_ËÂÌÚ_300)}.cls-19{fill:url(#_ÂÁ_Ï_ÌÌ_È_ËÂÌÚ_302)}.cls-20,.cls-30,.cls-36{fill:#6de0f6}.cls-21{clip-path:url(#clip-path-2)}.cls-22{fill:#267fe5}.cls-23{fill:#25bfec}.cls-24{fill:#18d0f7}.cls-25{fill:url(#_ÂÁ_Ï_ÌÌ_È_ËÂÌÚ_377-2)}.cls-26{fill:url(#_ÂÁ_Ï_ÌÌ_È_ËÂÌÚ_388-2)}.cls-27{fill:url(#_ÂÁ_Ï_ÌÌ_È_ËÂÌÚ_300-2)}.cls-28{fill:url(#_ÂÁ_Ï_ÌÌ_È_ËÂÌÚ_302-2)}.cls-29{clip-path:url(#clip-path-3)}.cls-30{opacity:.5}.cls-31{fill:url(#_ÂÁ_Ï_ÌÌ_È_ËÂÌÚ_377-3)}.cls-32{fill:url(#_ÂÁ_Ï_ÌÌ_È_ËÂÌÚ_337)}.cls-33{fill:url(#_ÂÁ_Ï_ÌÌ_È_ËÂÌÚ_300-3)}.cls-34{fill:url(#_ÂÁ_Ï_ÌÌ_È_ËÂÌÚ_302-3)}.cls-35{clip-path:url(#clip-path-4)}.cls-36{opacity:.15}.cls-37{fill:url(#_ÂÁ_Ï_ÌÌ_È_ËÂÌÚ_377-4)}.cls-38{fill:url(#_ÂÁ_Ï_ÌÌ_È_ËÂÌÚ_337-2)}.cls-39{fill:url(#_ÂÁ_Ï_ÌÌ_È_ËÂÌÚ_300-4)}.cls-40{fill:url(#_ÂÁ_Ï_ÌÌ_È_ËÂÌÚ_302-4)}.cls-41{clip-path:url(#clip-path-5)}.cls-42,.cls-61,.cls-77{opacity:.2}.cls-42{fill:url(#_ÂÁ_Ï_ÌÌ_È_ËÂÌÚ_370)}.cls-43,.cls-62,.cls-78{opacity:.25}.cls-43{fill:url(#_ÂÁ_Ï_ÌÌ_È_ËÂÌÚ_384)}.cls-44{fill:url(#_ÂÁ_Ï_ÌÌ_È_ËÂÌÚ_374-2)}.cls-45{fill:url(#_ÂÁ_Ï_ÌÌ_È_ËÂÌÚ_371-4)}.cls-46{clip-path:url(#clip-path-6)}.cls-47{fill:url(#_ÂÁ_Ï_ÌÌ_È_ËÂÌÚ_377-5)}.cls-48{fill:url(#_ÂÁ_Ï_ÌÌ_È_ËÂÌÚ_388-3)}.cls-49{fill:url(#_ÂÁ_Ï_ÌÌ_È_ËÂÌÚ_300-5)}.cls-50{fill:url(#_ÂÁ_Ï_ÌÌ_È_ËÂÌÚ_302-5)}.cls-51{clip-path:url(#clip-path-7)}.cls-52{fill:url(#_ÂÁ_Ï_ÌÌ_È_ËÂÌÚ_377-6)}.cls-53{fill:url(#_ÂÁ_Ï_ÌÌ_È_ËÂÌÚ_388-4)}.cls-54{fill:url(#_ÂÁ_Ï_ÌÌ_È_ËÂÌÚ_300-6)}.cls-55{fill:url(#_ÂÁ_Ï_ÌÌ_È_ËÂÌÚ_302-6)}.cls-56{clip-path:url(#clip-path-8)}.cls-57{fill:url(#_ÂÁ_Ï_ÌÌ_È_ËÂÌÚ_377-7)}.cls-58{fill:url(#_ÂÁ_Ï_ÌÌ_È_ËÂÌÚ_337-3)}.cls-59{fill:url(#_ÂÁ_Ï_ÌÌ_È_ËÂÌÚ_300-7)}.cls-60{fill:url(#_ÂÁ_Ï_ÌÌ_È_ËÂÌÚ_302-7)}.cls-61{fill:url(#_ÂÁ_Ï_ÌÌ_È_ËÂÌÚ_370-2)}.cls-62{fill:url(#_ÂÁ_Ï_ÌÌ_È_ËÂÌÚ_384-2)}.cls-63{clip-path:url(#clip-path-9)}.cls-64{fill:#0c0f38;opacity:.6}.cls-65{fill:url(#_ÂÁ_Ï_ÌÌ_È_ËÂÌÚ_422)}.cls-66{fill:url(#_ÂÁ_Ï_ÌÌ_È_ËÂÌÚ_377-8)}.cls-67{fill:url(#_ÂÁ_Ï_ÌÌ_È_ËÂÌÚ_388-5)}.cls-68{fill:url(#_ÂÁ_Ï_ÌÌ_È_ËÂÌÚ_300-8)}.cls-69{fill:#480689}.cls-70{fill:url(#_ÂÁ_Ï_ÌÌ_È_ËÂÌÚ_422-2)}.cls-71{fill:url(#_ÂÁ_Ï_ÌÌ_È_ËÂÌÚ_377-9)}.cls-72{fill:url(#_ÂÁ_Ï_ÌÌ_È_ËÂÌÚ_388-6)}.cls-73{fill:url(#_ÂÁ_Ï_ÌÌ_È_ËÂÌÚ_300-9)}.cls-74{fill:url(#_ÂÁ_Ï_ÌÌ_È_ËÂÌÚ_302-8)}.cls-75{clip-path:url(#clip-path-10)}.cls-76{fill:url(#_ÂÁ_Ï_ÌÌ_È_ËÂÌÚ_370-3)}.cls-77{fill:url(#_ÂÁ_Ï_ÌÌ_È_ËÂÌÚ_370-4)}.cls-78{fill:url(#_ÂÁ_Ï_ÌÌ_È_ËÂÌÚ_384-3)}</style></defs><g class="cls-2"><g id="Layer_2" data-name="Layer 2"><g id="_ÎÓÈ_1" data-name="—ÎÓÈ_1"><g class="cls-3"><path class="cls-4" d="M137.06 117.59a3.74 3.74 0 01-1.82-.42l-5.8-3.35a1.42 1.42 0 01-.81-1.22 1.86 1.86 0 011.08-1.51l24.85-14.34a4.54 4.54 0 014.14-.16l5.8 3.35a1.42 1.42 0 01.81 1.22 1.85 1.85 0 01-1.09 1.5L139.38 117a4.73 4.73 0 01-2.32.59zm-1.53-.92a4 4 0 003.56-.16l24.84-14.35c.51-.29.8-.66.8-1a.89.89 0 00-.52-.72l-5.8-3.35a4.06 4.06 0 00-3.57.16L130 111.59c-.51.3-.8.66-.8 1a.9.9 0 00.52.72zM71.7 112.13a3.76 3.76 0 01-1.82-.42l-3.81-2.2a1.42 1.42 0 01-.81-1.22 1.87 1.87 0 011.09-1.5l12.35-7.13a4.51 4.51 0 014.14-.16l3.8 2.2a1.42 1.42 0 01.81 1.21 1.86 1.86 0 01-1.08 1.51L74 111.55a4.73 4.73 0 01-2.3.58zM81 99.66a4.25 4.25 0 00-2 .5l-12.34 7.13c-.51.29-.8.66-.8 1a.89.89 0 00.52.72l3.81 2.2a4 4 0 003.56-.16l12.35-7.13c.51-.29.8-.66.8-1a.88.88 0 00-.53-.71l-3.8-2.2a3.15 3.15 0 00-1.57-.35z" transform="translate(0 -1.86)"/><path class="cls-4" d="M180.7 164.5a4.28 4.28 0 01-2.07-.5l-17-9.83.29-.5 17 9.83a3.92 3.92 0 003.56 0l68.24-39.4a.89.89 0 000-1.72L128.93 52.07a3.9 3.9 0 00-3.55 0L97.81 68a.89.89 0 000 1.72l24.57 14.19a4 4 0 003.56 0l12.57-7.26a4.49 4.49 0 014.13 0l41.28 23.83a1.45 1.45 0 010 2.72l-66.41 38.34a4.49 4.49 0 01-4.13 0l-69.69-40.26a1.45 1.45 0 010-2.71l34.65-20a4.49 4.49 0 014.13 0l40.17 23.19a1.45 1.45 0 010 2.72l-17.58 10.15-.28-.5L122.35 104a.89.89 0 000-1.72L82.18 79.06a3.9 3.9 0 00-3.55 0L44 99.06a1.09 1.09 0 00-.65.86 1.07 1.07 0 00.65.86L113.67 141a3.9 3.9 0 003.55 0l66.41-38.34a1.1 1.1 0 00.66-.86c0-.31-.24-.61-.66-.86l-41.28-23.81a3.9 3.9 0 00-3.55 0l-12.58 7.26a4.53 4.53 0 01-4.12 0L97.52 70.2a1.45 1.45 0 010-2.72l27.57-15.91a4.49 4.49 0 014.13 0L251 121.88a1.45 1.45 0 010 2.72L182.76 164a4.24 4.24 0 01-2.06.5z" transform="translate(0 -1.86)"/><path class="cls-4" d="M170.8 144.21l-7.7-4.44a1.45 1.45 0 010-2.72l39.75-23a4.49 4.49 0 014.13 0l5.63 3.25a1.45 1.45 0 010 2.72zm32.2-29.86l.14.25-39.75 23a.89.89 0 000 1.72l7.41 4.27 41.53-24a.89.89 0 000-1.72l-5.63-3.25a3.92 3.92 0 00-3.56 0zM96.94 180.7a4.15 4.15 0 01-2.07-.51L.94 126a1.45 1.45 0 010-2.71l11-6.36a4.49 4.49 0 014.13 0l14.73 8.5a1.45 1.45 0 010 2.72l-5.26 3a1.09 1.09 0 00-.65.86 1.08 1.08 0 00.65.86l66.54 38.42a4 4 0 003.56 0l4.51-2.61a1.08 1.08 0 00.65-.86 1.09 1.09 0 00-.65-.86l-59.28-34.24a1.45 1.45 0 010-2.72l11.75-6.79a1.08 1.08 0 00.65-.86 1.09 1.09 0 00-.65-.86L28.73 107.7l.29-.5L52.91 121a1.45 1.45 0 010 2.72l-11.76 6.78a.89.89 0 000 1.72l59.3 34.23a1.45 1.45 0 010 2.72l-4.51 2.61a4.49 4.49 0 01-4.13 0l-66.54-38.42a1.45 1.45 0 010-2.72l5.25-3a.89.89 0 000-1.72l-14.72-8.5a3.92 3.92 0 00-3.56 0l-11 6.35a1.09 1.09 0 00-.65.86 1.07 1.07 0 00.65.86l93.93 54.23a3.93 3.93 0 003.55 0l54-31.17.29.49L99 180.19a4.14 4.14 0 01-2.06.51z" transform="translate(0 -1.86)"/><path class="cls-4" d="M104 161.25a3.68 3.68 0 01-1.82-.43l-46.75-27a1.42 1.42 0 01-.81-1.21 1.87 1.87 0 011.09-1.51l10.38-6a4.49 4.49 0 014.13-.16l46.76 27a1.42 1.42 0 01.81 1.21 1.87 1.87 0 01-1.09 1.51l-10.38 6a4.71 4.71 0 01-2.32.59zm-1.53-.92a4 4 0 003.56-.16l10.38-6c.51-.29.8-.66.8-1a.89.89 0 00-.52-.71l-46.75-27a4 4 0 00-3.57.16l-10.37 6c-.51.29-.8.66-.8 1a.87.87 0 00.52.71zM125.78 196.21a4.25 4.25 0 01-2.07-.5l-18.35-10.6a1.45 1.45 0 010-2.71L147.7 158a4.49 4.49 0 014.13 0l7.26 4.19a1.45 1.45 0 010 2.72L129.44 182l-.29-.5 29.65-17.11a1.09 1.09 0 00.65-.86 1.08 1.08 0 00-.65-.86l-7.26-4.19a3.9 3.9 0 00-3.55 0l-42.34 24.44a1.09 1.09 0 00-.65.86 1.07 1.07 0 00.65.86L124 195.21a4 4 0 003.55 0l45.56-26.31.29.5-45.56 26.31a4.24 4.24 0 01-2.06.5zM80.85 93.1a3.79 3.79 0 01-1.85-.42l-3.8-2.2a1.42 1.42 0 01-.82-1.22 1.87 1.87 0 011.09-1.5l3.25-1.88a4.51 4.51 0 014.14-.16l3.81 2.2a1.42 1.42 0 01.81 1.21 1.85 1.85 0 01-1.09 1.51l-3.25 1.88a4.81 4.81 0 01-2.29.58zm-1.53-.92a4 4 0 003.56-.18l3.26-1.88c.5-.29.8-.66.8-1a.91.91 0 00-.53-.72l-3.8-2.19a4 4 0 00-3.57.16l-3.25 1.88c-.51.29-.8.66-.8 1a.89.89 0 00.52.72zM92.76 100a3.63 3.63 0 01-1.82-.43l-3.81-2.2a1.42 1.42 0 01-.81-1.21 1.87 1.87 0 011.09-1.51l3.25-1.88a4.57 4.57 0 014.14-.16l3.81 2.2a1.42 1.42 0 01.81 1.19 1.87 1.87 0 01-1.09 1.51l-3.25 1.88a4.76 4.76 0 01-2.32.61zm-1.53-.93a4 4 0 003.56-.16L98 97c.51-.29.8-.66.8-1a.89.89 0 00-.52-.71l-3.81-2.2a4 4 0 00-3.56.16l-3.21 1.88c-.51.29-.8.66-.8 1a.87.87 0 00.52.71zM104.66 106.85a3.68 3.68 0 01-1.82-.43L99 104.23a1.43 1.43 0 01-.81-1.22 1.86 1.86 0 011.08-1.51l3.26-1.87a4.51 4.51 0 014.14-.16l3.8 2.19a1.43 1.43 0 01.81 1.22 1.86 1.86 0 01-1.08 1.51l-3.2 1.87a4.71 4.71 0 01-2.34.59zm.24-7.23a4.19 4.19 0 00-2 .5L99.6 102c-.51.3-.8.66-.8 1a.91.91 0 00.53.72l3.8 2.2a4.06 4.06 0 003.57-.16l3.25-1.88c.51-.3.8-.66.8-1a.92.92 0 00-.52-.72l-3.81-2.2a3.13 3.13 0 00-1.52-.34zM68.89 100a3.63 3.63 0 01-1.82-.43l-3.81-2.19a1.45 1.45 0 01-.81-1.22 1.87 1.87 0 011.09-1.51l3.25-1.87a4.51 4.51 0 014.14-.16l3.81 2.19a1.45 1.45 0 01.81 1.19 1.87 1.87 0 01-1.09 1.51l-3.25 1.87a4.76 4.76 0 01-2.32.62zm.23-7.23a4.22 4.22 0 00-2 .5l-3.26 1.88c-.5.3-.79.66-.79 1a.9.9 0 00.52.72l3.81 2.2a4 4 0 003.56-.16l3.25-1.88c.51-.3.8-.66.8-1a.9.9 0 00-.52-.72l-3.81-2.2a3.13 3.13 0 00-1.56-.33zM92.7 113.76a3.63 3.63 0 01-1.82-.43l-3.81-2.2a1.42 1.42 0 01-.81-1.21 1.87 1.87 0 011.09-1.51l3.25-1.88a4.57 4.57 0 014.14-.16l3.81 2.2a1.44 1.44 0 01.81 1.22 1.85 1.85 0 01-1.09 1.5L95 113.17a4.74 4.74 0 01-2.3.59zm.23-7.23a4.22 4.22 0 00-2 .5l-3.25 1.88c-.51.29-.8.66-.8 1a.9.9 0 00.52.72l3.81 2.19a4 4 0 003.56-.16L98 110.8c.51-.3.8-.67.8-1a.89.89 0 00-.52-.72l-3.81-2.2a3.1 3.1 0 00-1.54-.35z" transform="translate(0 -1.86)"/></g><ellipse class="cls-5" cx="139.87" cy="152.61" rx="56.8" ry="32.79"/><ellipse class="cls-6" cx="182.88" cy="124.27" rx="56.8" ry="32.79"/><path class="cls-7" d="M75.8 146.1a13 13 0 01-6.39-1.55l-28.36-16.37c-2-1.14-3.07-2.75-3.07-4.52s1.09-3.37 3.07-4.51l28.36-16.38c1-.59 1.63-1.34 1.63-2s-.6-1.43-1.63-2l-8.51-4.98c-2-1.14-3.07-2.74-3.07-4.51s1.09-3.38 3.07-4.52l28.36-16.37a13.91 13.91 0 0112.77 0l28.37 16.37c2 1.15 3.06 2.75 3.06 4.52s-1.09 3.37-3.06 4.51L102 110.17c-1 .6-1.64 1.34-1.64 2s.6 1.44 1.64 2l8.5 4.91c2 1.14 3.07 2.74 3.07 4.51s-1.09 3.38-3.07 4.52l-28.32 16.44a12.93 12.93 0 01-6.38 1.55zm19.85-76.39a10.13 10.13 0 00-5 1.16L62.33 87.24c-1 .6-1.63 1.34-1.63 2s.59 1.43 1.63 2l8.51 4.92c2 1.14 3.06 2.74 3.06 4.51s-1.09 3.37-3.06 4.52l-28.36 16.44c-1 .6-1.64 1.34-1.64 2s.6 1.44 1.64 2L70.84 142a11.14 11.14 0 009.91 0l28.36-16.37c1-.6 1.64-1.34 1.64-2s-.6-1.43-1.64-2l-8.51-4.91c-2-1.14-3.06-2.75-3.06-4.52s1.09-3.37 3.06-4.51L129 91.31c1-.6 1.64-1.34 1.64-2s-.6-1.44-1.64-2l-28.4-16.44a10.11 10.11 0 00-4.95-1.16zm5.67 39.22z" transform="translate(0 -1.86)"/><path class="cls-8" d="M75.8 145a11.84 11.84 0 01-5.8-1.44l-28.38-16.37a4.25 4.25 0 01-2.49-3.53c0-1.34.88-2.59 2.49-3.52L70 103.77a3.18 3.18 0 000-6.06l-8.53-4.91c-1.61-.93-2.47-2.18-2.47-3.52a4.24 4.24 0 012.49-3.52l28.34-16.38a12.88 12.88 0 0111.63 0l28.36 16.38a4.24 4.24 0 012.49 3.52c0 1.34-.88 2.59-2.49 3.52l-28.36 16.38a3.18 3.18 0 000 6l8.51 4.91c1.61.93 2.49 2.18 2.49 3.52a4.25 4.25 0 01-2.49 3.53l-28.36 16.42A11.83 11.83 0 0175.8 145zm19.85-76.44a11.28 11.28 0 00-5.53 1.32L61.76 86.25a3.71 3.71 0 00-2.21 3c0 1.13.78 2.2 2.21 3l8.51 4.91c1.6.93 2.49 2.18 2.49 3.52s-.89 2.59-2.49 3.52L41.9 120.64a3.18 3.18 0 000 6l28.37 16.38a12.22 12.22 0 0011 0l28.36-16.38a3.18 3.18 0 000-6l-8.5-4.91c-1.61-.93-2.5-2.18-2.5-3.53s.89-2.59 2.5-3.52l28.36-16.37a3.19 3.19 0 000-6.06l-28.31-16.37a11.33 11.33 0 00-5.53-1.32z" transform="translate(0 -1.86)"/><path class="cls-9" d="M107.94 105.11a1.27 1.27 0 11-1.75-.48 1.28 1.28 0 011.75.48zM114.55 101.29a1.27 1.27 0 11-1.74-.48 1.28 1.28 0 011.74.48zM121.17 97.47a1.28 1.28 0 01-.46 1.75 1.29 1.29 0 11.46-1.75zM127.79 93.65a1.27 1.27 0 11-1.75-.48 1.29 1.29 0 011.75.48zM131.75 88.08a1 1 0 011 .07 1.44 1.44 0 01.4.47 1.8 1.8 0 01.15.71 1.45 1.45 0 01-.58 1.17 1 1 0 01-1 0 2 2 0 01-.71-.64 1 1 0 01-.27-.6.52.52 0 01.08-.28 1.06 1.06 0 01.21-.31 2 2 0 01.72-.59zM125.65 83.67a1.27 1.27 0 11.46 1.76 1.28 1.28 0 01-.46-1.76zM119 79.85a1.27 1.27 0 11.46 1.75 1.28 1.28 0 01-.46-1.75zM112.41 76a1.28 1.28 0 11.46 1.75 1.29 1.29 0 01-.46-1.75zM105.79 72.21a1.28 1.28 0 11.46 1.75 1.29 1.29 0 01-.46-1.75zM99 68.71a1.27 1.27 0 112.35 1 1.27 1.27 0 01-2.35-1zM91.5 68.94a1.27 1.27 0 112.5-.56 1.27 1.27 0 01-2.48.56zM84.81 72.61A1.27 1.27 0 1187 71.34a1.27 1.27 0 11-2.21 1.27zM78.19 76.43a1.27 1.27 0 111.75.48 1.28 1.28 0 01-1.75-.48zM71.58 80.25a1.27 1.27 0 111.74.48 1.28 1.28 0 01-1.74-.48zM65 84.07a1.27 1.27 0 111.74.48 1.28 1.28 0 01-1.74-.48zM59.3 88.84a1 1 0 01-.78-.63 1.41 1.41 0 01.17-1.21 1.18 1.18 0 011.92-.26 1.54 1.54 0 01.24 1.65 1 1 0 01-.59.38 2.26 2.26 0 01-.96.07zM64.2 94a1.27 1.27 0 11-.46-1.75A1.28 1.28 0 0164.2 94zM70.79 97.91a1.6 1.6 0 01-.81.54 1.13 1.13 0 01-.44 0 1.25 1.25 0 01-.47-.16 1.29 1.29 0 011.28-2.23 1.14 1.14 0 01.38.34 1.27 1.27 0 01.25.49 1.1 1.1 0 01-.19 1.02zM70.12 104a1.43 1.43 0 01.19-1.71 1.52 1.52 0 011.68 0 1 1 0 01.5.86 1.38 1.38 0 01-.48 1.06 1.21 1.21 0 01-1.89-.21zM63.51 107.84a1.27 1.27 0 111.74.47 1.27 1.27 0 01-1.74-.47zM56.89 111.66a1.27 1.27 0 111.74.47 1.27 1.27 0 01-1.74-.47zM50.27 115.48A1.28 1.28 0 1152 116a1.28 1.28 0 01-1.73-.52zM43.65 119.3a1.28 1.28 0 111.75.47 1.28 1.28 0 01-1.75-.47zM39.69 124.86a1 1 0 01-1-.07 1.73 1.73 0 01-.4-.47 1.76 1.76 0 01-.15-.71 1.4 1.4 0 01.59-1.16 1 1 0 011 0 1.94 1.94 0 01.71.64 1.07 1.07 0 01.27.6.43.43 0 01-.08.28 1.49 1.49 0 01-.2.32 2.16 2.16 0 01-.74.57zM45.8 129.27a1.28 1.28 0 11-.46-1.75 1.28 1.28 0 01.46 1.75zM52.41 133.09a1.27 1.27 0 11-.46-1.75 1.27 1.27 0 01.46 1.75zM59 136.91a1.27 1.27 0 11-.46-1.75 1.27 1.27 0 01.46 1.75zM65.65 140.73a1.27 1.27 0 11-.46-1.75 1.29 1.29 0 01.46 1.75zM72.41 144.23a1.22 1.22 0 01-1.69.79 1.21 1.21 0 01-.66-1.74 1.39 1.39 0 011.63-.64 1.36 1.36 0 01.72 1.59zM79.94 144a1.27 1.27 0 11-2.48.57 1.27 1.27 0 012.48-.57zM86.63 140.33a1.27 1.27 0 11-1.74-.48 1.27 1.27 0 011.74.48zM93.25 136.51a1.27 1.27 0 11-1.75-.51 1.28 1.28 0 011.75.51zM99.87 132.69a1.27 1.27 0 11-1.75-.48 1.28 1.28 0 011.75.48zM106.48 128.87a1.27 1.27 0 11-1.74-.48 1.27 1.27 0 011.74.48zM112.14 124.1a1 1 0 01.78.63 1.41 1.41 0 01-.17 1.24 1.18 1.18 0 01-1.92.26 1.54 1.54 0 01-.24-1.65 1 1 0 01.59-.38 2.26 2.26 0 01.96-.1zM107.25 118.9a1.27 1.27 0 11.46 1.75 1.27 1.27 0 01-.46-1.75zM100.66 115a1.5 1.5 0 01.8-.55 1.35 1.35 0 01.44 0 1.2 1.2 0 01.47.16 1.29 1.29 0 01-1.28 2.23 1.24 1.24 0 01-.38-.34 1.47 1.47 0 01-.25-.48 1.1 1.1 0 01.2-1.02zM101.32 108.93a1.42 1.42 0 01-.19 1.7 1.52 1.52 0 01-1.67 0 1 1 0 01-.51-.86 1.4 1.4 0 01.48-1.07 1.21 1.21 0 011.89.23z" transform="translate(0 -1.86)"/><path class="cls-7" d="M123.44 174.08a9.89 9.89 0 01-4.88-1.15L87.2 154.82a4.21 4.21 0 01-2.37-3.63c0-1.65 1.11-3.24 3-4.37l29.46-17c3.28-1.9 8.1-2.07 11-.4l31.37 18.11a4.21 4.21 0 012.37 3.64c0 1.65-1.12 3.24-3.06 4.36l-29.46 17a12.49 12.49 0 01-6.07 1.55zm0-43a9.73 9.73 0 00-4.71 1.17l-29.45 17c-1.2.7-1.63 1.43-1.63 1.89s.59.95.94 1.15L120 170.45c2 1.17 5.74 1 8.13-.4l29.46-17c1.2-.69 1.62-1.43 1.62-1.88s-.59-1-.94-1.16L126.9 131.9a7.06 7.06 0 00-3.42-.77z" transform="translate(0 -1.86)"/><path class="cls-8" d="M123.43 172.93a8.81 8.81 0 01-4.3-1l-31.36-18.1a3.13 3.13 0 01-1.8-2.64c0-1.23.91-2.46 2.49-3.37l29.45-17c2.91-1.68 7.32-1.85 9.85-.4l31.36 18.11a3.13 3.13 0 011.8 2.65c0 1.23-.9 2.45-2.48 3.37l-29.46 17a11.34 11.34 0 01-5.55 1.38zm0-42.94a10.85 10.85 0 00-5.27 1.32l-29.46 17c-1.39.81-2.2 1.86-2.2 2.88a2.6 2.6 0 001.52 2.15l31.36 18.1c2.37 1.37 6.53 1.19 9.27-.39l29.46-17c1.4-.81 2.2-1.85 2.2-2.87a2.58 2.58 0 00-1.51-2.15l-31.36-18.11a8.17 8.17 0 00-3.97-.92z" transform="translate(0 -1.86)"/><path class="cls-9" d="M112.7 167.9a1.26 1.26 0 112.19 1.26 1.26 1.26 0 11-2.19-1.26zM106.13 164.1a1.27 1.27 0 11.45 1.75 1.28 1.28 0 01-.45-1.75zM99.55 160.3a1.28 1.28 0 011.74-.48 1.29 1.29 0 11-1.74.48zM93 156.51a1.26 1.26 0 11.45 1.74 1.27 1.27 0 01-.45-1.74zM86.64 152.42a2.12 2.12 0 01.91-.28 1 1 0 01.71.14.74.74 0 01.26.29 1.19 1.19 0 01.21.44 1.33 1.33 0 01-.13 1 1.32 1.32 0 01-.78.6 1.34 1.34 0 01-.49 0 1.77 1.77 0 01-.57-.25 1.43 1.43 0 01-.6-1.06 1 1 0 01.48-.88zM90.51 147a1.26 1.26 0 01-1.42 1.87 1.46 1.46 0 01-.77-.59 1.21 1.21 0 01-.14-1 1.26 1.26 0 012.33-.3zM97.08 143.17a1.26 1.26 0 11-1.74-.48 1.27 1.27 0 011.74.48zM103.66 139.37a1.27 1.27 0 11-1.74-.48 1.28 1.28 0 011.74.48zM110.23 135.58a1.26 1.26 0 11-1.74-.49 1.27 1.27 0 011.74.49zM116.81 131.78a1.27 1.27 0 11-1.74-.48 1.28 1.28 0 011.74.48zM124 129.72a1.36 1.36 0 01-1.19 1.3 1.34 1.34 0 01-1.33-1.14 1.22 1.22 0 011.17-1.43 1.23 1.23 0 011.35 1.27zM130.91 132.56a1.27 1.27 0 11-.46-1.75 1.28 1.28 0 01.46 1.75zM137.48 136.35a1.26 1.26 0 11-2.19-1.26 1.26 1.26 0 112.19 1.26zM144.05 140.15a1.26 1.26 0 11-2.19-1.26 1.26 1.26 0 112.19 1.26zM150.63 144a1.27 1.27 0 11-.45-1.75 1.28 1.28 0 01.45 1.75zM157.2 147.74a1.26 1.26 0 11-.45-1.74 1.27 1.27 0 01.45 1.74zM159.57 153.34a1.6 1.6 0 01-.39-1.59 1 1 0 01.53-.39 2.58 2.58 0 01.92-.24 1 1 0 01.88.5 1.43 1.43 0 010 1.3 1.16 1.16 0 01-1.94.42zM153.1 157.29a1.27 1.27 0 111.74.48 1.28 1.28 0 01-1.74-.48zM146.52 161.08a1.27 1.27 0 111.74.48 1.27 1.27 0 01-1.74-.48zM140 164.88a1.27 1.27 0 111.74.48 1.29 1.29 0 01-1.74-.48zM133.38 168.68a1.27 1.27 0 112.19-1.27 1.28 1.28 0 01-.46 1.75 1.27 1.27 0 01-1.73-.48zM126.67 172.19a1.26 1.26 0 012.32-1 1.21 1.21 0 01-.62 1.75 1.23 1.23 0 01-1.7-.75zM119.28 171.69a1.42 1.42 0 011.56-.71 1.37 1.37 0 01.82 1.52 1.26 1.26 0 11-2.38-.81z" transform="translate(0 -1.86)"/><path class="cls-7" d="M172.15 146a9.89 9.89 0 01-4.88-1.14l-31.36-18.16a4.21 4.21 0 01-2.37-3.64c0-1.65 1.11-3.24 3.05-4.36l29.46-17c3.27-1.89 8.1-2.06 11-.39l31.37 18.11a4.23 4.23 0 012.37 3.63c0 1.65-1.12 3.24-3.06 4.37l-29.46 17a12.52 12.52 0 01-6.12 1.58zm-3.45-3.62c2 1.16 5.74 1 8.13-.4l29.46-17c1.19-.7 1.62-1.43 1.62-1.89s-.59-1-.94-1.15l-31.36-18.11c-2-1.16-5.74-1-8.13.4l-29.45 17c-1.2.69-1.63 1.43-1.63 1.88s.59 1 .94 1.16z" transform="translate(0 -1.86)"/><path class="cls-8" d="M172.14 144.8a8.81 8.81 0 01-4.3-1l-31.36-18.11a3.13 3.13 0 01-1.8-2.65c0-1.23.91-2.45 2.49-3.37l29.45-17c2.91-1.68 7.32-1.86 9.85-.4l31.36 18.11a3.13 3.13 0 011.8 2.64c0 1.23-.91 2.46-2.48 3.37l-29.46 17a11.45 11.45 0 01-5.55 1.41zm-4-1.48c2.36 1.37 6.53 1.19 9.27-.39l29.46-17c1.4-.81 2.2-1.86 2.2-2.88a2.61 2.61 0 00-1.51-2.15l-31.37-18.1c-2.36-1.37-6.53-1.19-9.27.39l-29.46 17c-1.39.81-2.2 1.85-2.2 2.87a2.58 2.58 0 001.52 2.15z" transform="translate(0 -1.86)"/><path class="cls-10" d="M94.48 106.3L66.19 90c-.82-.47-.71-1.29.22-1.83l27.84-16.11a3.55 3.55 0 013.18-.14l28.29 16.34c.82.47.71 1.29-.22 1.83l-27.85 16.08a3.52 3.52 0 01-3.17.13z" transform="translate(0 -1.86)"/><path class="cls-11" d="M66.19 90l1.37.8 26.69-15.46a3.55 3.55 0 013.18-.13l26.92 15.55 1.15-.67c.93-.54 1-1.36.22-1.83L97.43 71.92a3.55 3.55 0 00-3.18.14L66.41 88.13c-.93.54-1.04 1.36-.22 1.87z" transform="translate(0 -1.86)"/><circle class="cls-12" cx="81.98" cy="73.58" r="32.24" transform="rotate(-45 79.73391 72.65313)"/><path class="cls-13" d="M144.1 73.29c0 23.84-24.76 43.46-35.7 43.46S88.58 97.42 88.58 73.58s8.88-43.17 19.82-43.17 35.7 19.04 35.7 42.88z" transform="translate(0 -1.86)"/><g class="cls-14"><path class="cls-15" d="M118.31 90.36h-9.42l-10.49-6a5.86 5.86 0 00-5.27.21L83 90.36h-9.4v6.33a1.53 1.53 0 00.91 1.41l19 11a5.86 5.86 0 005.27-.22L117 98.32a2.27 2.27 0 001.29-1.63z" transform="translate(0 -1.86)"/><path class="cls-16" d="M117 97.88l-18.22 10.53a5.83 5.83 0 01-5.27.22l-19-11a1.52 1.52 0 01-.91-1.41v.44a1.53 1.53 0 00.91 1.41l19 11a5.86 5.86 0 005.27-.22L117 98.32a2.27 2.27 0 001.29-1.63v-.44a2.27 2.27 0 01-1.29 1.63z" transform="translate(0 -1.86)"/><path class="cls-17" d="M74.2 97.12V90.8h9.41L93.72 85a5.88 5.88 0 015.28-.26l10.49 6.06h8.82v-.44h-9.42l-10.49-6a5.86 5.86 0 00-5.27.21L83 90.36h-9.4v6.33a1.53 1.53 0 00.91 1.41l.11.06a1.3 1.3 0 01-.42-1.04z" transform="translate(0 -1.86)"/><path class="cls-8" d="M117.78 90.87v6.29a1.66 1.66 0 01-.45 1 2.08 2.08 0 001-1.44v-6.29a2.75 2.75 0 00-.55.44z" transform="translate(0 -1.86)"/><path class="cls-18" d="M93.51 102.74l-19-11c-1.35-.78-1.18-2.14.38-3L93.13 78.2a5.86 5.86 0 015.27-.2l19 11c1.35.78 1.18 2.14-.38 3l-18.24 10.52a5.83 5.83 0 01-5.27.22z" transform="translate(0 -1.86)"/><path class="cls-8" d="M117.4 89l-19-11a4.91 4.91 0 00-2.66-.51 4.43 4.43 0 011.92.51l19 11c1.35.78 1.18 2.14-.38 3L98 102.52a6.07 6.07 0 01-2.61.74 6.12 6.12 0 003.35-.74L117 92c1.58-.91 1.75-2.27.4-3z" transform="translate(0 -1.86)"/><path class="cls-19" d="M94.13 99.58L80 91.41c-1-.58-.88-1.59.28-2.26l13.58-7.84a4.35 4.35 0 013.93-.17l14.14 8.17c1 .58.88 1.6-.28 2.27l-13.59 7.84a4.38 4.38 0 01-3.93.16z" transform="translate(0 -1.86)"/><path class="cls-20" d="M94.64 97l-10.25-5.88c-.73-.42-.64-1.15.2-1.64l9.84-5.68a3.14 3.14 0 012.84-.12l10.25 5.92c.73.42.64 1.16-.2 1.64l-9.84 5.68a3.14 3.14 0 01-2.84.08z" transform="translate(0 -1.86)"/><path class="cls-17" d="M94.36 102.74l-19-11c-1.35-.78-1.18-2.14.38-3L94 78.2a6 6 0 012.57-.73 6.18 6.18 0 00-3.42.73L74.89 88.73c-1.56.9-1.73 2.26-.38 3l19 11a4.87 4.87 0 002.7.51 4.3 4.3 0 01-1.85-.5z" transform="translate(0 -1.86)"/><g class="cls-21"><path class="cls-22" d="M84.59 90.28l9.84-5.68a3.14 3.14 0 012.84-.12l10.26 5.92a1.13 1.13 0 01.36.32.76.76 0 00-.36-1.12l-10.26-5.92a3.14 3.14 0 00-2.84.12l-9.84 5.68c-.66.38-.85.91-.57 1.32a1.72 1.72 0 01.57-.52z" transform="translate(0 -1.86)"/><path class="cls-23" d="M84.59 91.25l9.84-5.69a3.17 3.17 0 012.84-.11l10.26 5.92a1.08 1.08 0 01.3.25.78.78 0 00-.3-1.22l-10.26-5.92a3.14 3.14 0 00-2.84.12l-9.84 5.68c-.7.4-.87 1-.51 1.39a1.85 1.85 0 01.51-.42z" transform="translate(0 -1.86)"/><path class="cls-24" d="M84.18 92.74a1.69 1.69 0 01.41-.31l9.84-5.69a3.18 3.18 0 012.84-.12l10.26 5.92.2.15a.77.77 0 00-.2-1.32l-10.26-5.92a3.17 3.17 0 00-2.84.11l-9.84 5.69c-.76.43-.9 1.06-.41 1.49z" transform="translate(0 -1.86)"/></g><path class="cls-25" d="M118.31 76.56h-9.42L98.4 70.5a5.86 5.86 0 00-5.27.22L83 76.56h-9.4v6.32a1.52 1.52 0 00.91 1.41l19 11a5.86 5.86 0 005.27-.22L117 84.51a2.26 2.26 0 001.29-1.63z" transform="translate(0 -1.86)"/><path class="cls-26" d="M117 84.08L98.78 94.61a5.86 5.86 0 01-5.27.22l-19-11a1.54 1.54 0 01-.91-1.41v.43a1.52 1.52 0 00.91 1.41l19 11a5.86 5.86 0 005.27-.22L117 84.51a2.26 2.26 0 001.29-1.63v-.43a2.27 2.27 0 01-1.29 1.63z" transform="translate(0 -1.86)"/><path class="cls-17" d="M74.2 83.32V77h9.41l10.11-5.83a5.85 5.85 0 015.28-.23l10.49 6h8.82v-.43h-9.42L98.4 70.5a5.86 5.86 0 00-5.27.22L83 76.56h-9.4v6.32a1.52 1.52 0 00.91 1.41l.11.07a1.3 1.3 0 01-.42-1.04z" transform="translate(0 -1.86)"/><path class="cls-8" d="M117.78 77.06v6.3a1.66 1.66 0 01-.45 1 2 2 0 001-1.44v-6.3a3.18 3.18 0 00-.55.44z" transform="translate(0 -1.86)"/><path class="cls-27" d="M93.51 88.94l-19-11c-1.35-.78-1.18-2.14.38-3l18.24-10.55a5.86 5.86 0 015.27-.22l19 11c1.35.78 1.18 2.15-.38 3L98.78 88.72a5.86 5.86 0 01-5.27.22z" transform="translate(0 -1.86)"/><path class="cls-8" d="M117.4 75.14l-19-11a4.91 4.91 0 00-2.66-.51 4.43 4.43 0 011.92.51l19 11c1.35.78 1.18 2.15-.38 3L98 88.72a6.06 6.06 0 01-2.61.73 6.2 6.2 0 003.35-.73L117 78.19c1.58-.9 1.75-2.27.4-3.05z" transform="translate(0 -1.86)"/><path class="cls-28" d="M94.13 85.78L80 77.61c-1-.58-.88-1.6.28-2.27l13.57-7.84a4.38 4.38 0 013.93-.16l14.14 8.17c1 .58.88 1.59-.28 2.26l-13.58 7.84a4.38 4.38 0 01-3.93.17z" transform="translate(0 -1.86)"/><path class="cls-20" d="M94.64 83.24l-10.25-5.92c-.73-.42-.64-1.16.2-1.64L94.43 70a3.14 3.14 0 012.84-.12l10.25 5.92c.73.42.64 1.15-.2 1.64l-9.84 5.68a3.18 3.18 0 01-2.84.12z" transform="translate(0 -1.86)"/><path class="cls-17" d="M94.36 88.94l-19-11c-1.35-.78-1.18-2.14.38-3L94 64.39a6.13 6.13 0 012.57-.73 6.27 6.27 0 00-3.42.73L74.89 74.93c-1.56.9-1.73 2.26-.38 3l19 11a5 5 0 002.7.51 4.44 4.44 0 01-1.85-.5z" transform="translate(0 -1.86)"/><g class="cls-29"><path class="cls-22" d="M84.59 76.48l9.84-5.69a3.17 3.17 0 012.84-.11l10.26 5.92a1.13 1.13 0 01.36.32.76.76 0 00-.36-1.12l-10.26-5.92a3.14 3.14 0 00-2.84.11l-9.84 5.69c-.66.38-.85.9-.57 1.32a1.53 1.53 0 01.57-.52z" transform="translate(0 -1.86)"/><path class="cls-23" d="M84.59 77.44l9.84-5.68a3.14 3.14 0 012.84-.12l10.26 5.92a1.28 1.28 0 01.3.25.77.77 0 00-.3-1.21l-10.26-5.92a3.17 3.17 0 00-2.84.11l-9.84 5.69c-.7.4-.87 1-.51 1.39a1.87 1.87 0 01.51-.43z" transform="translate(0 -1.86)"/><path class="cls-24" d="M84.18 78.94a2 2 0 01.41-.32l9.84-5.68a3.14 3.14 0 012.84-.12l10.26 5.92a1 1 0 01.2.15.78.78 0 00-.2-1.33l-10.26-5.92a3.14 3.14 0 00-2.84.12l-9.84 5.68c-.76.44-.9 1.07-.41 1.5z" transform="translate(0 -1.86)"/></g><path class="cls-30" d="M108 62.5l-24.1 1.15v12.91a.83.83 0 00.49.76l10.25 5.92a3.18 3.18 0 002.84-.12l9.84-5.68a1.13 1.13 0 00.68-1z" transform="translate(0 -1.86)"/><path class="cls-30" d="M118.31 58.5l-44.72.44v17.6A1.51 1.51 0 0074.5 78l19 11a5.86 5.86 0 005.27-.22L117 78.17a2.11 2.11 0 001.27-1.77z" transform="translate(0 -1.86)"/><path class="cls-31" d="M118.31 52.89h-9.42L98.4 46.83a5.86 5.86 0 00-5.27.22L83 52.89h-9.4v6.32a1.52 1.52 0 00.91 1.41l19 11a5.86 5.86 0 005.27-.21L117 60.84a2.27 2.27 0 001.29-1.63z" transform="translate(0 -1.86)"/><path class="cls-32" d="M117 60.41L98.78 70.94a5.86 5.86 0 01-5.27.22l-19-11a1.54 1.54 0 01-.91-1.41v.43a1.52 1.52 0 00.91 1.41l19 11a5.86 5.86 0 005.27-.21L117 60.84a2.27 2.27 0 001.29-1.63v-.43a2.27 2.27 0 01-1.29 1.63z" transform="translate(0 -1.86)"/><path class="cls-17" d="M74.2 59.65v-6.33h9.41l10.11-5.84a5.88 5.88 0 015.28-.21l10.49 6h8.82v-.43h-9.42L98.4 46.83a5.86 5.86 0 00-5.27.22L83 52.89h-9.4v6.32a1.52 1.52 0 00.91 1.41l.11.07a1.31 1.31 0 01-.42-1.04z" transform="translate(0 -1.86)"/><path class="cls-8" d="M117.78 53.39v6.3a1.66 1.66 0 01-.45 1 2 2 0 001-1.44V53a3.18 3.18 0 00-.55.39z" transform="translate(0 -1.86)"/><path class="cls-33" d="M93.51 65.27l-19-11c-1.35-.78-1.18-2.14.38-3l18.24-10.55a5.86 5.86 0 015.27-.22l19 11c1.35.78 1.18 2.15-.38 3.05l-18.24 10.5a5.86 5.86 0 01-5.27.22z" transform="translate(0 -1.86)"/><path class="cls-8" d="M117.4 51.47l-19-11a4.91 4.91 0 00-2.66-.47 4.43 4.43 0 011.92.51l19 11c1.35.78 1.18 2.15-.38 3.05L98 65.05a6.06 6.06 0 01-2.61.73 6.2 6.2 0 003.35-.73L117 54.52c1.58-.9 1.75-2.27.4-3.05z" transform="translate(0 -1.86)"/><path class="cls-34" d="M94.13 62.1L80 53.94c-1-.58-.88-1.6.28-2.27l13.58-7.84a4.38 4.38 0 013.93-.16l14.14 8.16c1 .59.88 1.6-.28 2.27l-13.59 7.84a4.35 4.35 0 01-3.93.16z" transform="translate(0 -1.86)"/><path class="cls-20" d="M94.64 59.56l-10.25-5.91c-.73-.42-.64-1.16.2-1.64l9.84-5.68a3.14 3.14 0 012.84-.12l10.25 5.91c.73.42.64 1.16-.2 1.65l-9.84 5.68a3.14 3.14 0 01-2.84.11z" transform="translate(0 -1.86)"/><path class="cls-17" d="M94.36 65.27l-19-11c-1.35-.78-1.18-2.14.38-3L94 40.72a6 6 0 012.55-.72 6.27 6.27 0 00-3.42.73L74.89 51.25c-1.56.91-1.73 2.27-.38 3l19 11a5 5 0 002.7.51 4.44 4.44 0 01-1.85-.49z" transform="translate(0 -1.86)"/><g class="cls-35"><path class="cls-22" d="M84.59 52.81l9.84-5.69a3.14 3.14 0 012.84-.12l10.26 5.91a1.29 1.29 0 01.36.33.77.77 0 00-.36-1.13L97.27 46.2a3.18 3.18 0 00-2.84.12L84.59 52c-.66.37-.85.9-.57 1.32a1.53 1.53 0 01.57-.51z" transform="translate(0 -1.86)"/><path class="cls-23" d="M84.59 53.77l9.84-5.68a3.14 3.14 0 012.84-.09l10.26 5.92a1.08 1.08 0 01.3.25.78.78 0 00-.3-1.22L97.27 47a3.14 3.14 0 00-2.84.11l-9.84 5.69c-.7.4-.87 1-.51 1.39a1.87 1.87 0 01.51-.42z" transform="translate(0 -1.86)"/><path class="cls-24" d="M84.18 55.27a2 2 0 01.41-.32l9.84-5.68a3.14 3.14 0 012.84-.12l10.26 5.92.2.14a.78.78 0 00-.2-1.32L97.27 48a3.14 3.14 0 00-2.84.12l-9.84 5.68c-.76.41-.9 1.04-.41 1.47z" transform="translate(0 -1.86)"/></g><path class="cls-20" d="M81.57 68.16a1.7 1.7 0 11-1.69-1.69 1.7 1.7 0 011.69 1.69z" transform="translate(0 -1.86)"/><path class="cls-30" d="M85.39 72.2a2 2 0 11-2-2 2 2 0 012 2z" transform="translate(0 -1.86)"/><circle class="cls-36" cx="79.5" cy="71.43" r=".67"/><path class="cls-36" d="M83.37 70.37a.67.67 0 11-.67-.68.67.67 0 01.67.68z" transform="translate(0 -1.86)"/><path class="cls-20" d="M90.28 80.74a.87.87 0 11-.87-.87.87.87 0 01.87.87z" transform="translate(0 -1.86)"/><circle class="cls-30" cx="83.18" cy="75.78" r="1.33"/><circle class="cls-30" cx="88.76" cy="73.43" r="1.33"/><circle class="cls-30" cx="112.64" cy="65.78" r="1.33"/><path class="cls-20" d="M114.74 72.06a1.89 1.89 0 11-1.89-1.88 1.88 1.88 0 011.89 1.88z" transform="translate(0 -1.86)"/><path class="cls-36" d="M110 70.57a.84.84 0 11-.84-.84.83.83 0 01.84.84z" transform="translate(0 -1.86)"/><path class="cls-36" d="M109.14 68.8a1.39 1.39 0 11-1.25-1.52 1.39 1.39 0 011.25 1.52z" transform="translate(0 -1.86)"/><path class="cls-30" d="M113.8 77.39a1.33 1.33 0 11-1.33-1.33 1.33 1.33 0 011.33 1.33z" transform="translate(0 -1.86)"/><path class="cls-36" d="M103.53 82a1 1 0 11-1-1 1 1 0 011 1z" transform="translate(0 -1.86)"/><path class="cls-20" d="M107 78.52a1.68 1.68 0 11-1.68-1.68 1.68 1.68 0 011.68 1.68z" transform="translate(0 -1.86)"/><path class="cls-30" d="M104.52 73.54a1.33 1.33 0 11-1.33-1.34 1.33 1.33 0 011.33 1.34z" transform="translate(0 -1.86)"/><circle class="cls-30" cx="95.57" cy="82.7" r="1.99"/><circle class="cls-20" cx="87.91" cy="69.02" r="1.33"/><path class="cls-30" d="M108 38.57l-24.1 1.16v12.9a.82.82 0 00.49.76l10.25 5.92a3.14 3.14 0 002.84-.12l9.84-5.68a1.11 1.11 0 00.68-.95z" transform="translate(0 -1.86)"/><path class="cls-30" d="M118.31 34.85l-44.71.44v17.6a1.53 1.53 0 00.9 1.41l19 11a5.86 5.86 0 005.27-.22L117 54.52a2.13 2.13 0 001.28-1.77z" transform="translate(0 -1.86)"/><path class="cls-37" d="M118.31 29h-9.42L98.4 22.9a5.86 5.86 0 00-5.27.22L83 29h-9.4v6.33a1.54 1.54 0 00.91 1.41l19 11a5.86 5.86 0 005.27-.22L117 36.92a2.27 2.27 0 001.29-1.63z" transform="translate(0 -1.86)"/><path class="cls-38" d="M117 36.48L98.78 47a5.83 5.83 0 01-5.27.22l-19-11a1.52 1.52 0 01-.91-1.41v.44a1.54 1.54 0 00.91 1.41l19 11a5.86 5.86 0 005.27-.22L117 36.92a2.27 2.27 0 001.29-1.63v-.44a2.27 2.27 0 01-1.29 1.63z" transform="translate(0 -1.86)"/><path class="cls-17" d="M74.2 35.72V29.4h9.41l10.11-5.84a5.88 5.88 0 015.28-.22l10.49 6.06h8.82V29h-9.42L98.4 22.9a5.86 5.86 0 00-5.27.22L83 29h-9.4v6.33a1.54 1.54 0 00.91 1.41l.11.06a1.3 1.3 0 01-.42-1.08z" transform="translate(0 -1.86)"/><path class="cls-8" d="M117.78 29.47v6.29a1.66 1.66 0 01-.45 1 2.08 2.08 0 001-1.44V29a2.75 2.75 0 00-.55.47z" transform="translate(0 -1.86)"/><path class="cls-39" d="M93.51 41.34l-19-11c-1.35-.78-1.18-2.14.38-3L93.13 16.8a5.86 5.86 0 015.27-.22l19 11c1.35.78 1.18 2.14-.38 3L98.78 41.12a5.83 5.83 0 01-5.27.22z" transform="translate(0 -1.86)"/><path class="cls-8" d="M117.4 27.55l-19-11a4.91 4.91 0 00-2.66-.51 4.43 4.43 0 011.92.51l19 11c1.35.78 1.18 2.14-.38 3L98 41.12a6.07 6.07 0 01-2.61.74 6.12 6.12 0 003.35-.74L117 30.59c1.58-.9 1.75-2.26.4-3.04z" transform="translate(0 -1.86)"/><path class="cls-40" d="M94.13 38.18L80 30c-1-.58-.88-1.59.28-2.26l13.58-7.84a4.35 4.35 0 013.93-.17l14.14 8.17c1 .58.88 1.59-.28 2.27L98.06 38a4.38 4.38 0 01-3.93.18z" transform="translate(0 -1.86)"/><path class="cls-20" d="M94.64 35.64l-10.25-5.92c-.73-.42-.64-1.15.2-1.64l9.84-5.68a3.14 3.14 0 012.84-.12l10.25 5.92c.73.42.64 1.16-.2 1.64l-9.84 5.68a3.14 3.14 0 01-2.84.12z" transform="translate(0 -1.86)"/><path class="cls-17" d="M94.36 41.34l-19-11c-1.35-.78-1.18-2.14.38-3L94 16.8a6 6 0 012.57-.73 6.18 6.18 0 00-3.42.73L74.89 27.33c-1.56.9-1.73 2.26-.38 3l19 11a4.87 4.87 0 002.7.51 4.3 4.3 0 01-1.85-.5z" transform="translate(0 -1.86)"/><g class="cls-41"><path class="cls-22" d="M84.59 28.88l9.84-5.68a3.14 3.14 0 012.84-.12L107.53 29a1.13 1.13 0 01.36.32.76.76 0 00-.36-1.12l-10.26-5.92a3.14 3.14 0 00-2.84.12l-9.84 5.68c-.66.38-.85.91-.57 1.32a1.72 1.72 0 01.57-.52z" transform="translate(0 -1.86)"/><path class="cls-23" d="M84.59 29.85l9.84-5.69a3.17 3.17 0 012.84-.11L107.53 30a1.08 1.08 0 01.3.25.78.78 0 00-.3-1.22l-10.26-5.95a3.14 3.14 0 00-2.84.12l-9.84 5.68c-.7.4-.87 1-.51 1.39a1.85 1.85 0 01.51-.42z" transform="translate(0 -1.86)"/><path class="cls-24" d="M84.18 31.34a1.69 1.69 0 01.41-.31l9.84-5.69a3.18 3.18 0 012.84-.12l10.26 5.92.2.15a.77.77 0 00-.2-1.32l-10.26-5.92a3.17 3.17 0 00-2.84.11l-9.84 5.69c-.76.43-.9 1.06-.41 1.49z" transform="translate(0 -1.86)"/></g><path class="cls-20" d="M81.57 44.24a1.7 1.7 0 11-1.69-1.7 1.69 1.69 0 011.69 1.7z" transform="translate(0 -1.86)"/><path class="cls-30" d="M85.39 48.28a2 2 0 11-2-2 2 2 0 012 2z" transform="translate(0 -1.86)"/><circle class="cls-36" cx="79.5" cy="47.5" r=".67"/><path class="cls-36" d="M83.37 46.44a.67.67 0 11-1.34 0 .67.67 0 011.34 0z" transform="translate(0 -1.86)"/><path class="cls-20" d="M90.28 56.81a.87.87 0 11-.87-.87.87.87 0 01.87.87z" transform="translate(0 -1.86)"/><circle class="cls-30" cx="83.18" cy="51.85" r="1.33"/><path class="cls-30" d="M90.09 51.36A1.34 1.34 0 1188.76 50a1.33 1.33 0 011.33 1.36z" transform="translate(0 -1.86)"/><circle class="cls-30" cx="112.64" cy="41.85" r="1.33"/><path class="cls-20" d="M114.74 48.14a1.89 1.89 0 11-1.89-1.89 1.89 1.89 0 011.89 1.89z" transform="translate(0 -1.86)"/><path class="cls-36" d="M110 46.65a.84.84 0 11-.84-.85.84.84 0 01.84.85z" transform="translate(0 -1.86)"/><path class="cls-36" d="M109.14 44.88a1.39 1.39 0 11-1.25-1.53 1.39 1.39 0 011.25 1.53z" transform="translate(0 -1.86)"/><circle class="cls-30" cx="110.24" cy="50.42" r="1.33"/><circle class="cls-36" cx="102.54" cy="56.25" r=".99"/><path class="cls-20" d="M107 54.6a1.68 1.68 0 11-1.68-1.68A1.68 1.68 0 01107 54.6z" transform="translate(0 -1.86)"/><path class="cls-30" d="M104.52 49.61a1.33 1.33 0 11-1.33-1.33 1.32 1.32 0 011.33 1.33zM97.57 60.63a2 2 0 11-2-2 2 2 0 012 2z" transform="translate(0 -1.86)"/><circle class="cls-20" cx="87.91" cy="45.09" r="1.33"/><path class="cls-42" d="M108 1.86H83.9V29a.83.83 0 00.49.71l10.25 5.92a3.14 3.14 0 002.84-.12l9.84-5.68A1.18 1.18 0 00108 29z" transform="translate(0 -1.86)"/><path class="cls-43" d="M106.87 6.76H85V29a.78.78 0 00.45.64L94.76 35a2.88 2.88 0 002.58-.11l8.9-5.14a1.1 1.1 0 00.63-.79z" transform="translate(0 -1.86)"/></g><path class="cls-10" d="M73.83 140.91l-28.3-16.33c-.81-.47-.71-1.29.23-1.84l27.84-16.07a3.53 3.53 0 013.17-.13l28.3 16.34c.81.47.71 1.29-.23 1.83L77 140.78a3.53 3.53 0 01-3.17.13z" transform="translate(0 -1.86)"/><path class="cls-11" d="M45.53 124.58l1.37.79L73.6 110a3.53 3.53 0 013.17-.13l26.92 15.54 1.15-.66c.94-.54 1-1.36.23-1.83l-28.3-16.34a3.53 3.53 0 00-3.17.13l-27.84 16.03c-.94.55-1.04 1.37-.23 1.84z" transform="translate(0 -1.86)"/><circle class="cls-44" cx="61.32" cy="106.34" r="32.24"/><path class="cls-45" d="M123.45 107.91c0 23.84-24.76 43.45-35.71 43.45S67.93 132 67.93 108.2 76.8 65 87.74 65s35.71 19.07 35.71 42.91z" transform="translate(0 -1.86)"/><g class="cls-46"><path class="cls-47" d="M97.66 125h-9.43l-10.49-6.06a5.86 5.86 0 00-5.27.22L62.36 125h-9.42v6.32a1.51 1.51 0 00.9 1.41l19 11a5.86 5.86 0 005.27-.21l18.25-10.54a2.23 2.23 0 001.28-1.63z" transform="translate(0 -1.86)"/><path class="cls-48" d="M96.37 132.5L78.12 143a5.86 5.86 0 01-5.27.22l-19-11a1.53 1.53 0 01-.9-1.41v.43a1.51 1.51 0 00.9 1.41l19 11a5.86 5.86 0 005.27-.21l18.25-10.54a2.23 2.23 0 001.28-1.63v-.43a2.23 2.23 0 01-1.28 1.66z" transform="translate(0 -1.86)"/><path class="cls-17" d="M53.54 131.74v-6.33H63l10.11-5.84a5.86 5.86 0 015.27-.21l10.49 6h8.83V125h-9.47l-10.49-6.06a5.86 5.86 0 00-5.27.22L62.36 125h-9.42v6.32a1.51 1.51 0 00.9 1.41l.11.07a1.31 1.31 0 01-.41-1.06z" transform="translate(0 -1.86)"/><path class="cls-8" d="M97.12 125.48v6.3a1.6 1.6 0 01-.45 1 2 2 0 001-1.44V125a2.88 2.88 0 00-.55.48z" transform="translate(0 -1.86)"/><path class="cls-49" d="M72.85 137.36l-19-11c-1.35-.78-1.18-2.14.38-3l18.24-10.54a5.86 5.86 0 015.27-.22l19 11c1.35.78 1.19 2.15-.37 3l-18.25 10.54a5.86 5.86 0 01-5.27.22z" transform="translate(0 -1.86)"/><path class="cls-8" d="M96.74 123.56l-19-11a4.91 4.91 0 00-2.66-.51 4.39 4.39 0 011.92.51l19 11c1.35.78 1.18 2.15-.38 3l-18.24 10.58a6 6 0 01-2.61.73 6.18 6.18 0 003.35-.73l18.25-10.53c1.56-.9 1.72-2.27.37-3.05z" transform="translate(0 -1.86)"/><path class="cls-50" d="M73.48 134.19L59.33 126c-1-.58-.88-1.6.28-2.27l13.58-7.84a4.38 4.38 0 013.93-.16l14.14 8.16c1 .59.88 1.6-.28 2.27L77.4 134a4.33 4.33 0 01-3.92.19z" transform="translate(0 -1.86)"/><path class="cls-20" d="M74 131.65l-10.25-5.91c-.73-.42-.64-1.16.2-1.64l9.84-5.68a3.16 3.16 0 012.85-.12l10.24 5.91c.73.43.64 1.16-.2 1.65l-9.84 5.68a3.14 3.14 0 01-2.84.11z" transform="translate(0 -1.86)"/><path class="cls-17" d="M73.7 137.36l-19-11c-1.35-.78-1.18-2.14.38-3l18.24-10.54a6.07 6.07 0 012.57-.73 6.29 6.29 0 00-3.42.73l-18.24 10.53c-1.56.9-1.73 2.26-.38 3l19 11a5 5 0 002.7.51 4.44 4.44 0 01-1.85-.5z" transform="translate(0 -1.86)"/><g class="cls-51"><path class="cls-22" d="M63.93 124.9l9.84-5.69a3.16 3.16 0 012.85-.11l10.25 5.9a1.16 1.16 0 01.36.33.77.77 0 00-.36-1.13l-10.25-5.92a3.2 3.2 0 00-2.85.12l-9.84 5.69c-.66.37-.85.9-.56 1.32a1.42 1.42 0 01.56-.51z" transform="translate(0 -1.86)"/><path class="cls-23" d="M63.93 125.86l9.84-5.68a3.16 3.16 0 012.85-.12L86.87 126a1.08 1.08 0 01.3.25.77.77 0 00-.3-1.22l-10.25-5.93a3.16 3.16 0 00-2.85.11l-9.84 5.69c-.69.4-.87 1-.51 1.39a1.87 1.87 0 01.51-.43z" transform="translate(0 -1.86)"/><path class="cls-24" d="M63.52 127.36a2 2 0 01.41-.32l9.84-5.68a3.16 3.16 0 012.85-.12l10.25 5.92a1 1 0 01.2.14.78.78 0 00-.2-1.32l-10.25-5.92a3.16 3.16 0 00-2.85.12l-9.84 5.68c-.75.44-.93 1.07-.41 1.5z" transform="translate(0 -1.86)"/></g><path class="cls-52" d="M97.66 111.17h-9.43l-10.49-6a5.86 5.86 0 00-5.27.21l-10.11 5.84h-9.42v6.33a1.52 1.52 0 00.9 1.41l19 11a5.86 5.86 0 005.27-.22l18.25-10.53a2.23 2.23 0 001.28-1.63z" transform="translate(0 -1.86)"/><path class="cls-53" d="M96.37 118.69l-18.25 10.54a5.86 5.86 0 01-5.27.21l-19-11a1.51 1.51 0 01-.9-1.41v.44a1.52 1.52 0 00.9 1.41l19 11a5.86 5.86 0 005.27-.22l18.25-10.53a2.23 2.23 0 001.28-1.63v-.44a2.23 2.23 0 01-1.28 1.63z" transform="translate(0 -1.86)"/><path class="cls-17" d="M53.54 117.93v-6.32H63l10.11-5.84a5.86 5.86 0 015.27-.22l10.49 6.06h8.83v-.44h-9.47l-10.49-6a5.86 5.86 0 00-5.27.21l-10.11 5.84h-9.42v6.33a1.52 1.52 0 00.9 1.41l.16.04a1.3 1.3 0 01-.46-1.07z" transform="translate(0 -1.86)"/><path class="cls-8" d="M97.12 111.68V118a1.6 1.6 0 01-.45 1 2.06 2.06 0 001-1.44v-6.26a2.54 2.54 0 00-.55.38z" transform="translate(0 -1.86)"/><path class="cls-54" d="M72.85 123.55l-19-11c-1.35-.78-1.18-2.14.38-3L72.47 99a5.86 5.86 0 015.27-.22l19 11c1.35.78 1.19 2.14-.37 3l-18.25 10.56a5.86 5.86 0 01-5.27.21z" transform="translate(0 -1.86)"/><path class="cls-8" d="M96.74 109.76l-19-11a4.91 4.91 0 00-2.66-.51 4.39 4.39 0 011.92.51l19 11c1.35.78 1.18 2.14-.38 3l-18.24 10.58a6 6 0 01-2.61.73 6.18 6.18 0 003.35-.73l18.25-10.54c1.56-.9 1.72-2.26.37-3.04z" transform="translate(0 -1.86)"/><path class="cls-55" d="M73.48 120.39l-14.15-8.17c-1-.58-.88-1.59.28-2.26l13.58-7.84a4.38 4.38 0 013.93-.17l14.14 8.17c1 .58.88 1.6-.28 2.27l-13.58 7.84a4.36 4.36 0 01-3.92.16z" transform="translate(0 -1.86)"/><path class="cls-20" d="M74 117.85l-10.25-5.92c-.73-.42-.64-1.15.2-1.64l9.84-5.68a3.2 3.2 0 012.85-.12l10.24 5.92c.73.42.64 1.16-.2 1.64l-9.84 5.68a3.14 3.14 0 01-2.84.12z" transform="translate(0 -1.86)"/><path class="cls-17" d="M73.7 123.55l-19-11c-1.35-.78-1.18-2.14.38-3L73.32 99a6.07 6.07 0 012.57-.73 6.29 6.29 0 00-3.42.73l-18.24 10.54c-1.56.9-1.73 2.26-.38 3l19 11a4.87 4.87 0 002.7.51 4.16 4.16 0 01-1.85-.5z" transform="translate(0 -1.86)"/><g class="cls-56"><path class="cls-22" d="M63.93 111.09l9.84-5.68a3.16 3.16 0 012.85-.12l10.25 5.92a1 1 0 01.36.32.76.76 0 00-.36-1.12l-10.25-5.92a3.16 3.16 0 00-2.85.12l-9.84 5.68c-.66.38-.85.91-.56 1.32a1.58 1.58 0 01.56-.52z" transform="translate(0 -1.86)"/><path class="cls-23" d="M63.93 112.06l9.84-5.69a3.19 3.19 0 012.85-.11l10.25 5.92a1.08 1.08 0 01.3.25.77.77 0 00-.3-1.22l-10.25-5.92a3.16 3.16 0 00-2.85.12l-9.84 5.68c-.69.4-.87 1-.51 1.39a1.85 1.85 0 01.51-.42z" transform="translate(0 -1.86)"/><path class="cls-24" d="M63.52 113.55a1.69 1.69 0 01.41-.31l9.84-5.69a3.16 3.16 0 012.85-.11l10.25 5.91.2.15a.77.77 0 00-.2-1.32l-10.25-5.92a3.19 3.19 0 00-2.85.11l-9.84 5.69c-.75.43-.93 1.06-.41 1.49z" transform="translate(0 -1.86)"/></g><path class="cls-30" d="M87.36 97.11l-24.12 1.15v12.91a.82.82 0 00.49.76L74 117.85a3.14 3.14 0 002.84-.12l9.84-5.68a1.14 1.14 0 00.69-1z" transform="translate(0 -1.86)"/><path class="cls-30" d="M97.66 93.39l-44.72.44v17.6a1.53 1.53 0 00.9 1.41l19 11a5.86 5.86 0 005.27-.22l18.25-10.53a2.13 2.13 0 001.27-1.77z" transform="translate(0 -1.86)"/><path class="cls-57" d="M97.66 87.5h-9.43l-10.49-6.06a5.86 5.86 0 00-5.27.22L62.36 87.5h-9.42v6.33a1.53 1.53 0 00.9 1.41l19 11a5.86 5.86 0 005.27-.22l18.26-10.56a2.23 2.23 0 001.28-1.63z" transform="translate(0 -1.86)"/><path class="cls-58" d="M96.37 95l-18.25 10.55a5.86 5.86 0 01-5.27.22l-19-11a1.51 1.51 0 01-.9-1.41v.44a1.53 1.53 0 00.9 1.41l19 11a5.86 5.86 0 005.27-.22l18.25-10.53a2.23 2.23 0 001.28-1.63v-.44A2.23 2.23 0 0196.37 95z" transform="translate(0 -1.86)"/><path class="cls-17" d="M53.54 94.26v-6.32H63l10.07-5.84a5.86 5.86 0 015.27-.22l10.49 6.06h8.83v-.44h-9.43l-10.49-6.06a5.86 5.86 0 00-5.27.22L62.36 87.5h-9.42v6.33a1.53 1.53 0 00.9 1.41l.11.06a1.3 1.3 0 01-.41-1.04z" transform="translate(0 -1.86)"/><path class="cls-8" d="M97.12 88v6.3a1.6 1.6 0 01-.45 1 2.08 2.08 0 001-1.44v-6.29a2.54 2.54 0 00-.55.43z" transform="translate(0 -1.86)"/><path class="cls-59" d="M72.85 99.88l-19-11c-1.35-.78-1.18-2.14.38-3l18.24-10.54a5.86 5.86 0 015.27-.22l19 11c1.35.78 1.19 2.14-.37 3L78.12 99.66a5.86 5.86 0 01-5.27.22z" transform="translate(0 -1.86)"/><path class="cls-8" d="M96.74 86.09l-19-11a4.91 4.91 0 00-2.66-.52 4.54 4.54 0 011.92.52l19 11c1.35.78 1.18 2.14-.38 3L77.38 99.66a6 6 0 01-2.61.74 6.1 6.1 0 003.35-.74l18.25-10.53c1.56-.9 1.72-2.26.37-3.04z" transform="translate(0 -1.86)"/><path class="cls-60" d="M73.48 96.72l-14.15-8.17c-1-.58-.88-1.59.28-2.26l13.58-7.85a4.38 4.38 0 013.93-.16l14.14 8.17c1 .58.88 1.59-.28 2.26L77.4 96.56a4.36 4.36 0 01-3.92.16z" transform="translate(0 -1.86)"/><path class="cls-20" d="M74 94.18l-10.27-5.92c-.73-.42-.64-1.15.2-1.64l9.84-5.68a3.16 3.16 0 012.85-.12l10.24 5.92c.73.42.64 1.15-.2 1.64l-9.84 5.68a3.14 3.14 0 01-2.82.12z" transform="translate(0 -1.86)"/><path class="cls-17" d="M73.7 99.88l-19-11c-1.35-.78-1.18-2.14.38-3l18.24-10.54a6.07 6.07 0 012.57-.73 6.11 6.11 0 00-3.42.73L54.23 85.87c-1.56.9-1.73 2.26-.38 3l19 11a4.87 4.87 0 002.7.51 4.3 4.3 0 01-1.85-.5z" transform="translate(0 -1.86)"/><path class="cls-61" d="M87.36 36.13H63.24v51.42a.83.83 0 00.49.71L74 94.18a3.14 3.14 0 002.84-.12l9.84-5.68a1.18 1.18 0 00.69-.88z" transform="translate(0 -1.86)"/><path class="cls-62" d="M86.21 41H64.38v46.57a.78.78 0 00.45.64l9.27 5.36a2.88 2.88 0 002.58-.11l8.9-5.14a1.1 1.1 0 00.63-.79z" transform="translate(0 -1.86)"/><g class="cls-63"><path class="cls-22" d="M63.93 87.42l9.84-5.68a3.16 3.16 0 012.85-.12l10.25 5.92a1 1 0 01.36.32.76.76 0 00-.36-1.12l-10.25-5.92a3.16 3.16 0 00-2.85.12l-9.84 5.68c-.66.38-.85.91-.56 1.32a1.5 1.5 0 01.56-.52z" transform="translate(0 -1.86)"/><path class="cls-23" d="M63.93 88.39l9.84-5.69a3.16 3.16 0 012.85-.11l10.25 5.91a1.31 1.31 0 01.3.26.77.77 0 00-.3-1.22l-10.25-5.92a3.16 3.16 0 00-2.85.12l-9.84 5.68c-.69.4-.87 1-.51 1.39a1.69 1.69 0 01.51-.42z" transform="translate(0 -1.86)"/><path class="cls-24" d="M63.52 89.88a1.69 1.69 0 01.41-.31l9.84-5.69a3.2 3.2 0 012.85-.12l10.25 5.92a1.73 1.73 0 01.2.15.78.78 0 00-.2-1.33l-10.25-5.91a3.16 3.16 0 00-2.85.11l-9.84 5.69c-.75.43-.93 1.06-.41 1.49z" transform="translate(0 -1.86)"/></g><path class="cls-20" d="M70.47 83.24a.9.9 0 11-.89-.89.89.89 0 01.89.89z" transform="translate(0 -1.86)"/><circle class="cls-20" cx="76.35" cy="75.36" r="1.53"/><circle class="cls-20" cx="74.46" cy="74.39" r=".39"/><circle class="cls-20" cx="81.15" cy="66.69" r=".77"/><circle class="cls-20" cx="77.11" cy="60.18" r=".54"/><circle class="cls-20" cx="70.47" cy="56.02" r=".98"/><path class="cls-20" d="M77.88 50.92a2 2 0 11-2-2 2 2 0 012 2zM73.9 49.66a.55.55 0 11-.54-.55.55.55 0 01.54.55z" transform="translate(0 -1.86)"/><circle class="cls-20" cx="77.49" cy="51.45" r=".64"/><path class="cls-20" d="M78.62 52a.31.31 0 11-.31-.31.31.31 0 01.31.31z" transform="translate(0 -1.86)"/><circle class="cls-20" cx="81.77" cy="43.4" r=".9"/><path class="cls-20" d="M60.91 102.78a1.7 1.7 0 11-1.69-1.7 1.69 1.69 0 011.69 1.7z" transform="translate(0 -1.86)"/><path class="cls-30" d="M64.73 106.82a2 2 0 11-2-2 2 2 0 012 2z" transform="translate(0 -1.86)"/><path class="cls-36" d="M59.51 107.9a.67.67 0 01-.67.67.68.68 0 11.67-.67z" transform="translate(0 -1.86)"/><circle class="cls-36" cx="62.04" cy="103.13" r=".67"/><path class="cls-20" d="M69.62 115.35a.87.87 0 11-.87-.87.87.87 0 01.87.87z" transform="translate(0 -1.86)"/><circle class="cls-30" cx="62.52" cy="110.39" r="1.33"/><circle class="cls-30" cx="68.1" cy="108.05" r="1.33"/><circle class="cls-30" cx="91.99" cy="100.39" r="1.33"/><path class="cls-20" d="M94.09 106.68a1.89 1.89 0 11-1.89-1.89 1.89 1.89 0 011.89 1.89z" transform="translate(0 -1.86)"/><circle class="cls-36" cx="88.51" cy="103.33" r=".84"/><path class="cls-36" d="M88.48 103.42a1.39 1.39 0 11-1.25-1.53 1.39 1.39 0 011.25 1.53z" transform="translate(0 -1.86)"/><circle class="cls-30" cx="89.58" cy="108.96" r="1.33"/><path class="cls-36" d="M82.87 116.65a1 1 0 11-1-1 1 1 0 011 1z" transform="translate(0 -1.86)"/><path class="cls-20" d="M86.38 113.14a1.68 1.68 0 11-1.67-1.68 1.67 1.67 0 011.67 1.68z" transform="translate(0 -1.86)"/><path class="cls-30" d="M83.87 108.15a1.34 1.34 0 11-1.34-1.33 1.33 1.33 0 011.34 1.33z" transform="translate(0 -1.86)"/><circle class="cls-30" cx="74.91" cy="117.32" r="1.99"/><circle class="cls-20" cx="67.25" cy="103.63" r="1.33"/></g><path class="cls-7" d="M77.28 178.43a10 10 0 01-5-1.21l-40.9-23.53a4 4 0 010-7.39L54 133.2a1.43 1.43 0 111.43 2.47l-22.61 13.11c-.66.38-1.05.83-1.05 1.22s.39.83 1 1.21l40.94 23.53a7.9 7.9 0 007.06 0l22.7-13a1.43 1.43 0 111.43 2.48l-22.7 13a10.11 10.11 0 01-4.92 1.21z" transform="translate(0 -1.86)"/><path class="cls-8" d="M77.28 177.28a9 9 0 01-4.39-1.05L32 152.69a2.86 2.86 0 010-5.39l22.62-13.11.29.49-22.67 13.11a2.31 2.31 0 000 4.41l40.94 23.54a9.11 9.11 0 008.2 0l22.71-13 .28.5-22.7 13a9 9 0 01-4.39 1.04z" transform="translate(0 -1.86)"/><path class="cls-9" d="M48 138.36a1.3 1.3 0 111.77.45 1.3 1.3 0 01-1.77-.45zM41.18 142.28a1.31 1.31 0 111.78.46 1.3 1.3 0 01-1.78-.46zM34.42 146.2a1.3 1.3 0 111.77.46 1.3 1.3 0 01-1.77-.46zM31.16 151.74a1 1 0 01-1 .28 1.43 1.43 0 01-1-1 1.49 1.49 0 01.23-1.43.9.9 0 011-.27 3.18 3.18 0 01.82.49c.21.16.37.25.41.39a2 2 0 01-.46 1.54zM37.85 155.76a1.3 1.3 0 11-.49-1.77 1.29 1.29 0 01.49 1.77zM44.63 159.65a1.29 1.29 0 01-1.77.47 1.29 1.29 0 111.28-2.23 1.29 1.29 0 01.49 1.76zM51.41 163.55a1.3 1.3 0 11-.49-1.76 1.29 1.29 0 01.49 1.76zM58.19 167.45a1.3 1.3 0 01-1.77.46 1.29 1.29 0 111.28-2.23 1.31 1.31 0 01.49 1.77zM65 171.34a1.3 1.3 0 11-.49-1.76 1.3 1.3 0 01.49 1.76zM71.74 175.24a1.3 1.3 0 11-.49-1.76 1.28 1.28 0 01.49 1.76zM79.18 176.82a1.23 1.23 0 01-1.18 1.44 1.24 1.24 0 01-1.41-1.26 1.3 1.3 0 012.59-.15zM86.14 173.34a1.3 1.3 0 11-1.77-.47 1.3 1.3 0 011.77.47zM92.92 169.45a1.3 1.3 0 01-2.26 1.29 1.3 1.3 0 012.26-1.29zM99.71 165.56a1.3 1.3 0 01-2.26 1.29 1.3 1.3 0 012.26-1.29z" transform="translate(0 -1.86)"/><path class="cls-64" d="M168.83 135.73l-20-11.53c-1.42-.82-1.25-2.25.39-3.2l19.18-11.07a6.15 6.15 0 015.54-.23l20 11.53c1.42.82 1.24 2.25-.4 3.2l-19.17 11.07a6.15 6.15 0 01-5.54.23z" transform="translate(0 -1.86)"/><path class="cls-65" d="M171.21 138.93a5.93 5.93 0 01-3-.68l-23.53-13.58a2.17 2.17 0 01-1.25-1.84 2.91 2.91 0 011.71-2.34l22.6-13a7.5 7.5 0 016.76-.27l23.53 13.58a2.19 2.19 0 011.25 1.84 2.93 2.93 0 01-1.72 2.34L175 138a7.83 7.83 0 01-3.79.93zm-2.72-1.09a7 7 0 006.29-.27l22.59-13a2.44 2.44 0 001.48-1.93 1.72 1.72 0 00-1-1.43l-23.53-13.58a7 7 0 00-6.29.27l-22.59 13a2.47 2.47 0 00-1.48 1.93 1.74 1.74 0 001 1.43z" transform="translate(0 -1.86)"/><path class="cls-66" d="M194.91 111H185l-11-6.37a6.15 6.15 0 00-5.54.23L157.8 111h-9.9v6.65a1.57 1.57 0 001 1.48l20 11.53a6.15 6.15 0 005.54-.23l19.18-11.07a2.34 2.34 0 001.35-1.71z" transform="translate(0 -1.86)"/><path class="cls-67" d="M193.55 118.92L174.37 130a6.15 6.15 0 01-5.54.23l-20-11.53a1.57 1.57 0 01-1-1.48v.46a1.57 1.57 0 001 1.48l20 11.53a6.15 6.15 0 005.54-.23l19.18-11.07a2.34 2.34 0 001.35-1.71v-.46a2.34 2.34 0 01-1.35 1.7z" transform="translate(0 -1.86)"/><path class="cls-17" d="M148.53 118.12v-6.65h9.9l10.63-6.13a6.15 6.15 0 015.54-.23l11 6.36h9.28V111H185l-11-6.37a6.15 6.15 0 00-5.54.23L157.8 111h-9.9v6.65a1.57 1.57 0 001 1.48l.11.07a1.41 1.41 0 01-.48-1.08z" transform="translate(0 -1.86)"/><path class="cls-8" d="M194.34 111.55v6.62a1.78 1.78 0 01-.48 1 2.14 2.14 0 001-1.51v-6.59a3.24 3.24 0 00-.52.48z" transform="translate(0 -1.86)"/><path class="cls-68" d="M168.83 124l-20-11.53c-1.42-.82-1.25-2.25.39-3.2L168.4 98.2a6.15 6.15 0 015.6-.2l20 11.53c1.42.82 1.24 2.25-.4 3.2l-19.23 11.07a6.15 6.15 0 01-5.54.2z" transform="translate(0 -1.86)"/><path class="cls-8" d="M194 109.53L174 98a5.07 5.07 0 00-2.79-.54 4.53 4.53 0 012 .54l20 11.53c1.42.82 1.24 2.25-.4 3.2l-19.22 11.07a6.21 6.21 0 01-2.74.77 6.42 6.42 0 003.52-.77l19.18-11.07c1.64-.95 1.82-2.38.45-3.2z" transform="translate(0 -1.86)"/><path class="cls-69" d="M171.28 121.29a3.84 3.84 0 01-1.88-.44l-14.87-8.58a1.41 1.41 0 01-.8-1.18 1.87 1.87 0 011.1-1.5l14.28-8.24a4.76 4.76 0 014.29-.17l14.87 8.58a1.39 1.39 0 01.8 1.18 1.87 1.87 0 01-1.09 1.5l-14.28 8.24a5 5 0 01-2.42.61zm.25-20.21a4.63 4.63 0 00-2.25.56L155 109.89a1.54 1.54 0 00-.93 1.2 1.08 1.08 0 00.63.88l14.87 8.59a4.44 4.44 0 004-.17l14.28-8.25a1.54 1.54 0 00.92-1.2 1.06 1.06 0 00-.63-.88l-14.87-8.59a3.47 3.47 0 00-1.74-.39z" transform="translate(0 -1.86)"/><path class="cls-17" d="M169.73 124l-20-11.53c-1.42-.82-1.24-2.25.4-3.2l19.18-11.07a6.31 6.31 0 012.7-.77 6.54 6.54 0 00-3.6.77l-19.16 11.1c-1.64 1-1.81 2.38-.39 3.2l20 11.53a5.18 5.18 0 002.84.54 4.49 4.49 0 01-1.97-.57z" transform="translate(0 -1.86)"/><path class="cls-64" d="M120.88 164.41l-20-11.53c-1.42-.82-1.24-2.26.4-3.2l19.18-11.08a6.18 6.18 0 015.54-.23l20 11.54c1.42.82 1.25 2.25-.39 3.2l-19.18 11.07a6.15 6.15 0 01-5.55.23z" transform="translate(0 -1.86)"/><path class="cls-70" d="M123.25 167.61a6.09 6.09 0 01-3-.68l-23.48-13.59a2.17 2.17 0 01-1.25-1.84 2.93 2.93 0 011.72-2.33l22.59-13a7.53 7.53 0 016.76-.27l23.53 13.59a2.16 2.16 0 011.25 1.84 2.93 2.93 0 01-1.71 2.34l-22.6 13a7.77 7.77 0 01-3.81.94zm.39-32a7.33 7.33 0 00-3.57.89l-22.59 13.08A2.45 2.45 0 0096 151.5a1.72 1.72 0 001 1.44l23.53 13.58a7 7 0 006.29-.27l22.59-13a2.5 2.5 0 001.48-1.93 1.72 1.72 0 00-1-1.43l-23.53-13.59a5.55 5.55 0 00-2.72-.66z" transform="translate(0 -1.86)"/><path class="cls-71" d="M147 139.69h-9.9l-11-6.36a6.15 6.15 0 00-5.54.23l-10.63 6.13H100v6.65a1.62 1.62 0 001 1.49l20 11.53a6.15 6.15 0 005.54-.23l19.18-11.07a2.34 2.34 0 001.34-1.72z" transform="translate(0 -1.86)"/><path class="cls-72" d="M145.6 147.6l-19.18 11.07a6.15 6.15 0 01-5.54.23l-20-11.53a1.62 1.62 0 01-1-1.49v.46a1.62 1.62 0 001 1.49l20 11.53a6.15 6.15 0 005.54-.23l19.18-11.07a2.34 2.34 0 001.34-1.72v-.46a2.34 2.34 0 01-1.34 1.72z" transform="translate(0 -1.86)"/><path class="cls-17" d="M100.57 146.8v-6.65h9.9L121.1 134a6.18 6.18 0 015.54-.23l11 6.37H147v-.46h-9.9l-11-6.36a6.15 6.15 0 00-5.54.23l-10.63 6.13H100v6.65a1.62 1.62 0 001 1.49l.11.06a1.41 1.41 0 01-.54-1.08z" transform="translate(0 -1.86)"/><path class="cls-8" d="M146.39 140.23v6.61a1.72 1.72 0 01-.47 1 2.13 2.13 0 001-1.52v-6.58a2.74 2.74 0 00-.53.49z" transform="translate(0 -1.86)"/><path class="cls-73" d="M120.88 152.71l-20-11.53c-1.42-.82-1.24-2.26.4-3.2l19.18-11.07a6.15 6.15 0 015.54-.23l20 11.53c1.42.82 1.25 2.25-.39 3.2l-19.18 11.07a6.15 6.15 0 01-5.55.23z" transform="translate(0 -1.86)"/><path class="cls-8" d="M146 138.21l-20-11.53a5.13 5.13 0 00-2.8-.54 4.54 4.54 0 012 .54l20 11.53c1.42.82 1.24 2.25-.4 3.2l-19.17 11.07a6.39 6.39 0 01-2.75.77 6.57 6.57 0 003.53-.77l19.18-11.07c1.65-.95 1.82-2.41.41-3.2z" transform="translate(0 -1.86)"/><path class="cls-74" d="M121.53 149.38l-14.87-8.58c-1.06-.61-.92-1.68.3-2.38l14.28-8.25a4.59 4.59 0 014.12-.17l14.87 8.59c1.06.61.93 1.67-.29 2.38l-14.28 8.24a4.58 4.58 0 01-4.13.17z" transform="translate(0 -1.86)"/><path class="cls-20" d="M122.06 146.71l-10.77-6.22c-.77-.44-.67-1.21.21-1.72l10.35-6a3.28 3.28 0 013-.13l10.78 6.22c.76.44.67 1.22-.22 1.73l-10.34 6a3.3 3.3 0 01-3.01.12z" transform="translate(0 -1.86)"/><path class="cls-17" d="M121.77 152.71l-20-11.53c-1.42-.82-1.24-2.26.4-3.2l19.17-11.07a6.31 6.31 0 012.7-.77 6.42 6.42 0 00-3.59.77L101.3 138c-1.64.94-1.82 2.38-.4 3.2l20 11.53a5.23 5.23 0 002.84.54 4.68 4.68 0 01-1.97-.56z" transform="translate(0 -1.86)"/><g class="cls-75"><path class="cls-22" d="M111.5 139.61l10.34-6a3.33 3.33 0 013-.12l10.78 6.22a1.28 1.28 0 01.38.34.79.79 0 00-.38-1.18l-10.78-6.22a3.33 3.33 0 00-3 .12l-10.34 6c-.69.4-.9.95-.6 1.39a1.62 1.62 0 01.6-.55z" transform="translate(0 -1.86)"/><path class="cls-23" d="M111.5 140.62l10.34-6a3.3 3.3 0 013-.12l10.78 6.22a1.24 1.24 0 01.32.26.81.81 0 00-.32-1.28l-10.78-6.22a3.33 3.33 0 00-3 .12l-10.34 6c-.73.42-.92 1-.53 1.46a1.74 1.74 0 01.53-.44z" transform="translate(0 -1.86)"/><path class="cls-24" d="M111.07 142.2a1.7 1.7 0 01.43-.34l10.34-6a3.34 3.34 0 013-.13l10.77 6.27a1.13 1.13 0 01.21.15.81.81 0 00-.21-1.39l-10.78-6.22a3.3 3.3 0 00-3 .12l-10.34 6c-.78.42-.94 1.08-.42 1.54z" transform="translate(0 -1.86)"/></g><path class="cls-76" d="M136.13 121.67h-25.36v18.08a.87.87 0 00.52.74l10.77 6.22a3.3 3.3 0 003-.12l10.34-6a1.27 1.27 0 00.73-.93z" transform="translate(0 -1.86)"/><path class="cls-77" d="M136 86.12h-25.14v53.68a.88.88 0 00.51.74l10.7 6.18a3.29 3.29 0 003-.13l10.27-5.93a1.22 1.22 0 00.72-.92z" transform="translate(0 -1.86)"/><path class="cls-78" d="M134.84 91.23h-22.79v48.59a.83.83 0 00.47.67l9.68 5.59a3 3 0 002.69-.11l9.29-5.37a1.13 1.13 0 00.66-.83z" transform="translate(0 -1.86)"/><path class="cls-20" d="M118.41 135.3a.94.94 0 11-.94-.94.94.94 0 01.94.94z" transform="translate(0 -1.86)"/><circle class="cls-20" cx="124.54" cy="127.15" r="1.6"/><circle class="cls-20" cx="122.57" cy="126.13" r=".41"/><path class="cls-20" d="M130.36 120a.8.8 0 11-.8-.8.8.8 0 01.8.8zM125.91 113.15a.57.57 0 11-.57-.56.56.56 0 01.57.56z" transform="translate(0 -1.86)"/></g></g></g></svg>